{
.appVersion = "3116";
classes = (
{
code = "alef-hb bet-hb gimel-hb dalet-hb he-hb vav-hb zayin-hb het-hb tet-hb yod-hb finalkaf-hb kaf-hb lamed-hb finalmem-hb mem-hb finalnun-hb nun-hb samekh-hb ayin-hb finalpe-hb pe-hb finaltsadi-hb tsadi-hb qof-hb resh-hb shin-hb tav-hb";
name = HebrewLetters;
},
{
automatic = 1;

glyphs = (
{
color = 5;
glyphname = A;
layers = (
{
anchors = (
{
name = bottom;
position = "{335, 0}";
},
{
name = ogonek;
position = "{631, 69}";
},
{
name = top;
position = "{335, 700}";
}
);
layerId = "FF2DC345-5101-49B6-97F3-57A040F7C387";
paths = (
{
closed = 1;
nodes = (
"91 0 LINE SMOOTH",
"106 0 OFFCURVE",
"114 11 OFFCURVE",
"116 17 CURVE SMOOTH",
"171 159 LINE",
"499 159 LINE",
"554 17 LINE SMOOTH",
"556 11 OFFCURVE",
"563 0 OFFCURVE",
"579 0 CURVE SMOOTH",
"630 0 LINE SMOOTH",
"641 0 OFFCURVE",
"650 9 OFFCURVE",
"650 20 CURVE SMOOTH",
"650 22 OFFCURVE",
"649 28 OFFCURVE",
"648 31 CURVE SMOOTH",
"401 678 LINE SMOOTH",
"396 691 OFFCURVE",
"387 700 OFFCURVE",
"369 700 CURVE SMOOTH",
"301 700 LINE SMOOTH",
"283 700 OFFCURVE",
"274 691 OFFCURVE",
"269 678 CURVE SMOOTH",
"21 31 LINE SMOOTH",
"20 28 OFFCURVE",
"20 22 OFFCURVE",
"20 20 CURVE SMOOTH",
"20 9 OFFCURVE",
"29 0 OFFCURVE",
"40 0 CURVE SMOOTH"
);
},
{
closed = 1;
nodes = (
"335 600 LINE",
"470 245 LINE",
"200 245 LINE"
);
}
);
width = 669.6875;
}
);
leftKerningGroup = A;
rightKerningGroup = A;
unicode = 0041;
userData = {
com.typemytype.robofont.guides = (
{
angle = 0;
isGlobal = 0;
magnetic = 5;
x = 0;
y = 680;
},
{
angle = 90;
isGlobal = 0;
magnetic = 5;
x = 35;
y = 0;
},
{
angle = 90;
isGlobal = 0;
magnetic = 5;
x = 637;
y = 0;
},
{
angle = 90;
isGlobal = 0;
magnetic = 5;
x = 336;
y = 0;
}
);
};
},
{
color = 5;
glyphname = AE;
layers = (
{
anchors = (
{
name = bottom;
position = "{468, 0}";
},
{
name = top;
position = "{468, 700}";
}
);
layerId = "FF2DC345-5101-49B6-97F3-57A040F7C387";
paths = (
{
closed = 1;
nodes = (
"79 0 LINE SMOOTH",
"91 0 OFFCURVE",
"99 8 OFFCURVE",
"104 17 CURVE",
"105 21 OFFCURVE",
"108 27 OFFCURVE",
"181 159 CURVE",
"422 159 LINE",
"422 23 LINE SMOOTH",
"422 10 OFFCURVE",
"432 0 OFFCURVE",
"445 0 CURVE SMOOTH",
"861 0 LINE SMOOTH",
"875 0 OFFCURVE",
"884 10 OFFCURVE",
"884 23 CURVE SMOOTH",
"884 62 LINE SMOOTH",
"884 76 OFFCURVE",
"875 85 OFFCURVE",
"861 85 CURVE SMOOTH",
"518 85 LINE",
"518 312 LINE",
"831 312 LINE SMOOTH",
"845 312 OFFCURVE",
"854 322 OFFCURVE",
"854 335 CURVE SMOOTH",
"854 372 LINE SMOOTH",
"854 386 OFFCURVE",
"845 396 OFFCURVE",
"831 396 CURVE SMOOTH",
"518 396 LINE",
"518 615 LINE",
"853 615 LINE SMOOTH",
"867 615 OFFCURVE",
"876 624 OFFCURVE",
"876 638 CURVE SMOOTH",
"876 676 LINE SMOOTH",
"876 690 OFFCURVE",
"867 700 OFFCURVE",
"853 700 CURVE SMOOTH",
"377 700 LINE SMOOTH",
"365 700 OFFCURVE",
"355 693 OFFCURVE",
"347 678 CURVE SMOOTH",
"43 125 OFFCURVE",
"22 73 OFFCURVE",
"8 33 CURVE",
"6 29 OFFCURVE",
"5 25 OFFCURVE",
"5 20 CURVE SMOOTH",
"5 9 OFFCURVE",
"14 0 OFFCURVE",
"25 0 CURVE SMOOTH"
);
},
{
closed = 1;
nodes = (
"415 609 LINE",
"422 609 LINE",
"422 245 LINE",
"219 245 LINE"
);
}
);
width = 935.9375;
}
);
leftKerningGroup = AE;
rightKerningGroup = E;
unicode = 00C6;
userData = {
com.typemytype.robofont.guides = (
{
angle = 0;
isGlobal = 0;
magnetic = 5;
x = 0;
y = 505;
},
{
angle = 90;
isGlobal = 0;
magnetic = 5;
x = 431;
y = 0;
}
);
};
},
{
color = 5;
glyphname = B;
layers = (
{
anchors = (
{
name = bottom;
position = "{335, 0}";
},
{
name = top;
position = "{335, 700}";
}
);
hints = (
{
horizontal = 1;
place = "{0, 0}";
type = Tag;
}
);
layerId = "FF2DC345-5101-49B6-97F3-57A040F7C387";
paths = (
{
closed = 1;
nodes = (
"392 0 LINE",
"536 0 OFFCURVE",
"613 92 OFFCURVE",
"613 202 CURVE SMOOTH",
"613 283 OFFCURVE",
"565 342 OFFCURVE",
"513 368 CURVE",
"551 387 OFFCURVE",
"599 433 OFFCURVE",
"599 515 CURVE SMOOTH",
"599 619 OFFCURVE",
"534 700 OFFCURVE",
"384 700 CURVE SMOOTH",
"110 700 LINE SMOOTH",
"96 700 OFFCURVE",
"87 690 OFFCURVE",
"87 676 CURVE SMOOTH",
"87 23 LINE SMOOTH",
"87 10 OFFCURVE",
"96 0 OFFCURVE",
"110 0 CURVE SMOOTH"
);
},
{
closed = 1;
nodes = (
"185 324 LINE",
"379 324 LINE",
"465 324 OFFCURVE",
"513 273 OFFCURVE",
"513 202 CURVE SMOOTH",
"513 133 OFFCURVE",
"465 81 OFFCURVE",
"379 81 CURVE SMOOTH",
"185 81 LINE"
);
},
{
closed = 1;
nodes = (
"185 619 LINE",
"369 619 LINE",
"455 619 OFFCURVE",
"499 582 OFFCURVE",
"499 514 CURVE SMOOTH",
"499 446 OFFCURVE",
"455 404 OFFCURVE",
"369 404 CURVE SMOOTH",
"185 404 LINE"
);
}
);
width = 668.1875;
}
);
leftKerningGroup = I;
unicode = 0042;
userData = {
com.typemytype.robofont.guides = (
{
angle = 0;
isGlobal = 0;
magnetic = 5;
x = 0;
y = 271;
},
{
angle = 0;
isGlobal = 0;
magnetic = 5;
x = 0;
y = 437;
},
{
angle = 0;
isGlobal = 0;
magnetic = 5;
x = 0;
y = 521;
},
{
angle = 0;
isGlobal = 0;
magnetic = 5;
x = 0;
y = 198;
},
{
angle = 0;
isGlobal = 0;
magnetic = 5;
x = 0;
y = 9;
},
{
angle = 90;
isGlobal = 0;
magnetic = 5;
x = 355;
y = 0;
},
{
angle = 90;
isGlobal = 0;
magnetic = 5;
x = 583;
y = 0;
},
{
angle = 90;
isGlobal = 0;
magnetic = 5;
x = 94;
y = 0;
}
);
};
},
{
color = 5;
glyphname = C;
layers = (
{
anchors = (
{
name = bottom;
position = "{334, 0}";
},
{
name = top;
position = "{334, 700}";
}
);
layerId = "FF2DC345-5101-49B6-97F3-57A040F7C387";
paths = (
{
closed = 1;
nodes = (
"525 -10 OFFCURVE",
"614 102 OFFCURVE",
"619 214 CURVE SMOOTH",
"620 226 OFFCURVE",
"610 234 OFFCURVE",
"598 234 CURVE SMOOTH",
"543 234 LINE SMOOTH",
"530 234 OFFCURVE",
"522 229 OFFCURVE",
"518 211 CURVE SMOOTH",
"495 107 OFFCURVE",
"432 75 OFFCURVE",
"339 75 CURVE SMOOTH",
"231 75 OFFCURVE",
"165 132 OFFCURVE",
"161 266 CURVE SMOOTH",
"159 323 OFFCURVE",
"159 379 OFFCURVE",
"161 434 CURVE SMOOTH",
"165 568 OFFCURVE",
"231 625 OFFCURVE",
"339 625 CURVE SMOOTH",
"432 625 OFFCURVE",
"494 593 OFFCURVE",
"518 489 CURVE SMOOTH",
"522 472 OFFCURVE",
"530 466 OFFCURVE",
"543 466 CURVE SMOOTH",
"598 466 LINE SMOOTH",
"610 466 OFFCURVE",
"620 475 OFFCURVE",
"619 487 CURVE SMOOTH",
"614 598 OFFCURVE",
"525 710 OFFCURVE",
"339 710 CURVE SMOOTH",
"156 710 OFFCURVE",
"67 601 OFFCURVE",
"61 439 CURVE SMOOTH",
"59 382 OFFCURVE",
"59 315 OFFCURVE",
"61 261 CURVE SMOOTH",
"67 98 OFFCURVE",
"155 -10 OFFCURVE",
"339 -10 CURVE SMOOTH"
);
}
);
width = 666.375;
}
);
leftKerningGroup = O;
rightKerningGroup = C;
unicode = 0043;
userData = {
com.typemytype.robofont.guides = (
{
angle = 0;
isGlobal = 0;
magnetic = 5;
x = 0;
y = 434;
},
{
angle = 0;
isGlobal = 0;
magnetic = 5;
x = 0;
y = 266;
},
{
angle = 0;
isGlobal = 0;
magnetic = 5;
x = 0;
y = 710;
},
{
angle = 0;
isGlobal = 0;
magnetic = 5;
x = 0;
y = "-10";
},
{
angle = 90;
isGlobal = 0;
magnetic = 5;
x = 599;
y = 0;
},
{
angle = 90;
isGlobal = 0;
magnetic = 5;
x = 209;
y = 0;
},
{
angle = 90;
isGlobal = 0;
magnetic = 5;
x = 149;
y = 0;
},
{
angle = 90;
isGlobal = 0;
magnetic = 5;
x = 332;
y = 0;
}
);
};
},
{
color = 5;
glyphname = Ccedilla;
layers = (
{
hints = (
{
horizontal = 1;
place = "{0, 0}";
type = Tag;
}
);
layerId = "FF2DC345-5101-49B6-97F3-57A040F7C387";
paths = (
{
closed = 1;
nodes = (
"398 -221 OFFCURVE",
"430 -181 OFFCURVE",
"430 -132 CURVE SMOOTH",
"430 -83 OFFCURVE",
"398 -48 OFFCURVE",
"353 -48 CURVE SMOOTH",
"340 -48 OFFCURVE",
"325 -51 OFFCURVE",
"317 -56 CURVE",
"339 -10 LINE",
"525 -10 OFFCURVE",
"614 102 OFFCURVE",
"619 214 CURVE SMOOTH",
"620 226 OFFCURVE",
"610 234 OFFCURVE",
"598 234 CURVE",
"543 234 LINE",
"530 234 OFFCURVE",
"522 229 OFFCURVE",
"518 211 CURVE SMOOTH",
"495 107 OFFCURVE",
"432 75 OFFCURVE",
"339 75 CURVE SMOOTH",
"231 75 OFFCURVE",
"165 132 OFFCURVE",
"161 266 CURVE SMOOTH",
"159 323 OFFCURVE",
"159 379 OFFCURVE",
"161 434 CURVE SMOOTH",
"165 568 OFFCURVE",
"231 625 OFFCURVE",
"339 625 CURVE SMOOTH",
"432 625 OFFCURVE",
"494 593 OFFCURVE",
"518 489 CURVE SMOOTH",
"522 472 OFFCURVE",
"530 466 OFFCURVE",
"543 466 CURVE",
"598 466 LINE",
"610 466 OFFCURVE",
"620 475 OFFCURVE",
"619 487 CURVE SMOOTH",
"614 598 OFFCURVE",
"525 710 OFFCURVE",
"339 710 CURVE SMOOTH",
"156 710 OFFCURVE",
"67 601 OFFCURVE",
"61 439 CURVE SMOOTH",
"59 382 OFFCURVE",
"59 315 OFFCURVE",
"61 261 CURVE SMOOTH",
"66 115 OFFCURVE",
"136 14 OFFCURVE",
"283 -6 CURVE",
"263 -53 LINE",
"258 -64 OFFCURVE",
"252 -75 OFFCURVE",
"259 -83 CURVE",
"276 -101 LINE",
"291 -117 OFFCURVE",
"306 -98 OFFCURVE",
"335 -98 CURVE SMOOTH",
"358 -98 OFFCURVE",
"375 -111 OFFCURVE",
"375 -133 CURVE SMOOTH",
"375 -156 OFFCURVE",
"357 -170 OFFCURVE",
"335 -170 CURVE SMOOTH",
"293 -170 OFFCURVE",
"286 -139 OFFCURVE",
"269 -155 CURVE",
"254 -169 LINE",
"237 -185 OFFCURVE",
"279 -219 OFFCURVE",
"335 -220 CURVE SMOOTH"
);
}
);
width = 666.375;
}
);
leftKerningGroup = O;
rightKerningGroup = C;
unicode = 00C7;
userData = {
com.typemytype.robofont.guides = (
{
angle = 0;
isGlobal = 0;
magnetic = 5;
x = 0;
y = "-174";
},
{
angle = 0;
isGlobal = 0;
magnetic = 5;
x = 0;
y = "-220";
},
{
angle = 0;
isGlobal = 0;
magnetic = 5;
x = 0;
y = "-96";
},
{
angle = 0;
isGlobal = 0;
magnetic = 5;
x = 0;
y = "-50";
},
{
angle = 0;
isGlobal = 0;
magnetic = 5;
x = 0;
y = "-135";
},
{
angle = 90;
isGlobal = 0;
magnetic = 5;
x = 331;
y = 0;
},
{
angle = 90;
isGlobal = 0;
magnetic = 5;
x = 342;
y = 0;
}
);
};
},
{
color = 5;
glyphname = D;
layers = (
{
anchors = (
{
name = bottom;
position = "{345, 0}";
},
{
name = center;
position = "{345, 350}";
},
{
name = top;
position = "{344, 700}";
}
);
hints = (
{
horizontal = 1;
place = "{0, 0}";
type = Tag;
}
);
layerId = "FF2DC345-5101-49B6-97F3-57A040F7C387";
paths = (
{
closed = 1;
nodes = (
"342 0 LINE SMOOTH",
"545 0 OFFCURVE",
"620 87 OFFCURVE",
"625 272 CURVE SMOOTH",
"626 331 OFFCURVE",
"626 370 OFFCURVE",
"625 429 CURVE SMOOTH",
"621 604 OFFCURVE",
"544 700 OFFCURVE",
"337 700 CURVE",
"110 700 LINE SMOOTH",
"96 700 OFFCURVE",
"87 690 OFFCURVE",
"87 676 CURVE SMOOTH",
"87 23 LINE SMOOTH",
"87 10 OFFCURVE",
"96 0 OFFCURVE",
"110 0 CURVE SMOOTH"
);
},
{
closed = 1;
nodes = (
"185 615 LINE",
"332 615 LINE SMOOTH",
"470 615 OFFCURVE",
"523 554 OFFCURVE",
"526 425 CURVE SMOOTH",
"528 366 OFFCURVE",
"528 335 OFFCURVE",
"526 276 CURVE SMOOTH",
"523 139 OFFCURVE",
"474 85 OFFCURVE",
"337 85 CURVE SMOOTH",
"185 85 LINE"
);
}
);
width = 688.8125;
}
);
leftKerningGroup = I;
rightKerningGroup = D;
unicode = 0044;
userData = {
com.typemytype.robofont.guides = (
{
angle = 0;
isGlobal = 0;
magnetic = 5;
x = 0;
y = 425;
},
{
angle = 0;
isGlobal = 0;
magnetic = 5;
x = 0;
y = 276;
},
{
angle = 0;
isGlobal = 0;
magnetic = 5;
x = 0;
y = 9;
},
{
angle = 90;
isGlobal = 0;
magnetic = 5;
x = 320;
y = 0;
},
{
angle = 90;
isGlobal = 0;
magnetic = 5;
x = 603;
y = 0;
},
{
angle = 90;
isGlobal = 0;
magnetic = 5;
x = 94;
y = 0;
}
);
};
},
{
color = 5;
glyphname = Eth;
layers = (
{
hints = (
{
horizontal = 1;
place = "{0, 0}";
type = Tag;
}
);
layerId = "FF2DC345-5101-49B6-97F3-57A040F7C387";
paths = (
{
closed = 1;
nodes = (
"350 0 LINE SMOOTH",
"554 0 OFFCURVE",
"632 87 OFFCURVE",
"635 272 CURVE SMOOTH",
"636 330 OFFCURVE",
"636 371 OFFCURVE",
"635 429 CURVE SMOOTH",
"632 604 OFFCURVE",
"553 700 OFFCURVE",
"346 700 CURVE",
"119 700 LINE SMOOTH",
"106 700 OFFCURVE",
"96 690 OFFCURVE",
"96 676 CURVE SMOOTH",
"96 391 LINE",
"38 391 LINE SMOOTH",
"24 391 OFFCURVE",
"15 381 OFFCURVE",
"15 368 CURVE SMOOTH",
"15 336 LINE SMOOTH",
"15 323 OFFCURVE",
"24 313 OFFCURVE",
"38 313 CURVE SMOOTH",
"96 313 LINE",
"96 23 LINE SMOOTH",
"96 10 OFFCURVE",
"106 0 OFFCURVE",
"119 0 CURVE SMOOTH"
);
},
{
closed = 1;
nodes = (
"194 313 LINE",
"327 313 LINE SMOOTH",
"340 313 OFFCURVE",
"349 323 OFFCURVE",
"349 336 CURVE SMOOTH",
"349 368 LINE SMOOTH",
"349 381 OFFCURVE",
"340 391 OFFCURVE",
"327 391 CURVE SMOOTH",
"194 391 LINE",
"194 615 LINE",
"342 615 LINE SMOOTH",
"480 615 OFFCURVE",
"532 554 OFFCURVE",
"535 425 CURVE SMOOTH",
"536 367 OFFCURVE",
"536 334 OFFCURVE",
"535 276 CURVE SMOOTH",
"532 139 OFFCURVE",
"484 85 OFFCURVE",
"346 85 CURVE SMOOTH",
"194 85 LINE"
);
}
);
width = 698.5625;
}
);
leftKerningGroup = I;
rightKerningGroup = D;
unicode = 00D0;
userData = {
com.typemytype.robofont.guides = (
{
angle = 0;
isGlobal = 0;
magnetic = 5;
x = 0;
y = 350;
}
);
};
},
{
color = 5;
glyphname = E;
layers = (
{
anchors = (
{
name = bottom;
position = "{303, 0}";
},
{
name = ogonek;
position = "{550, 69}";
},
{
name = top;
position = "{303, 700}";
},
{
name = topleft;
position = "{20, 700}";
}
);
layerId = "FF2DC345-5101-49B6-97F3-57A040F7C387";
paths = (
{
closed = 1;
nodes = (
"531 0 LINE SMOOTH",
"545 0 OFFCURVE",
"554 10 OFFCURVE",
"554 23 CURVE SMOOTH",
"554 62 LINE SMOOTH",
"554 76 OFFCURVE",
"545 85 OFFCURVE",
"531 85 CURVE",
"183 85 LINE",
"183 312 LINE",
"501 312 LINE SMOOTH",
"515 312 OFFCURVE",
"524 322 OFFCURVE",
"524 335 CURVE SMOOTH",
"524 372 LINE SMOOTH",
"524 386 OFFCURVE",
"515 396 OFFCURVE",
"501 396 CURVE SMOOTH",
"183 396 LINE",
"183 615 LINE",
"523 615 LINE SMOOTH",
"537 615 OFFCURVE",
"546 624 OFFCURVE",
"546 638 CURVE SMOOTH",
"546 676 LINE SMOOTH",
"546 690 OFFCURVE",
"537 700 OFFCURVE",
"523 700 CURVE SMOOTH",
"110 700 LINE SMOOTH",
"96 700 OFFCURVE",
"87 690 OFFCURVE",
"87 676 CURVE SMOOTH",
"87 23 LINE SMOOTH",
"87 10 OFFCURVE",
"96 0 OFFCURVE",
"110 0 CURVE SMOOTH"
);
}
);
width = 606.0625;
}
);
leftKerningGroup = I;
rightKerningGroup = E;
unicode = 0045;
userData = {
com.typemytype.robofont.guides = (
{
angle = 0;
isGlobal = 0;
magnetic = 5;
x = 0;
y = 334;
},
{
angle = 0;
isGlobal = 0;
magnetic = 5;
x = 0;
y = 9;
},
{
angle = 0;
isGlobal = 0;
magnetic = 5;
x = 0;
y = 376;
},
{
angle = 0;
isGlobal = 0;
magnetic = 5;
x = 0;
y = 691;
},
{
angle = 0;
isGlobal = 0;
magnetic = 5;
x = 0;
y = 649;
},
{
angle = 90;
isGlobal = 0;
magnetic = 5;
x = 664;
y = 0;
},
{
angle = 90;
isGlobal = 0;
magnetic = 5;
x = 94;
y = 0;
},
{
angle = 90;
isGlobal = 0;
magnetic = 5;
x = 511;
y = 0;
}
);
};
},
{
color = 5;
glyphname = F;
layers = (
{
anchors = (
{
name = bottom;
position = "{292, 0}";
},
{
name = top;
position = "{292, 700}";
}
);
hints = (
{
horizontal = 1;
place = "{0, 0}";
type = Tag;
}
);
layerId = "FF2DC345-5101-49B6-97F3-57A040F7C387";
paths = (
{
closed = 1;
nodes = (
"160 0 LINE SMOOTH",
"174 0 OFFCURVE",
"184 10 OFFCURVE",
"184 23 CURVE SMOOTH",
"184 293 LINE",
"498 293 LINE SMOOTH",
"512 293 OFFCURVE",
"522 303 OFFCURVE",
"522 316 CURVE SMOOTH",
"522 356 LINE SMOOTH",
"522 371 OFFCURVE",
"512 380 OFFCURVE",
"498 380 CURVE SMOOTH",
"184 380 LINE",
"184 613 LINE",
"518 613 LINE SMOOTH",
"532 613 OFFCURVE",
"542 622 OFFCURVE",
"542 636 CURVE SMOOTH",
"542 676 LINE SMOOTH",
"542 690 OFFCURVE",
"532 700 OFFCURVE",
"518 700 CURVE SMOOTH",
"110 700 LINE",
"96 700 OFFCURVE",
"87 690 OFFCURVE",
"87 676 CURVE SMOOTH",
"87 23 LINE SMOOTH",
"87 10 OFFCURVE",
"96 0 OFFCURVE",
"110 0 CURVE SMOOTH"
);
}
);
width = 584.25;
}
);
leftKerningGroup = I;
unicode = 0046;
userData = {
com.typemytype.robofont.guides = (
{
angle = 0;
isGlobal = 0;
magnetic = 5;
x = 0;
y = 320;
},
{
angle = 0;
isGlobal = 0;
magnetic = 5;
x = 0;
y = 691;
},
{
angle = 0;
isGlobal = 0;
magnetic = 5;
x = 0;
y = 649;
},
{
angle = 0;
isGlobal = 0;
magnetic = 5;
x = 0;
y = 362;
},
{
angle = 0;
isGlobal = 0;
magnetic = 5;
x = 0;
y = 9;
},
{
angle = 90;
isGlobal = 0;
magnetic = 5;
x = 761;
y = 0;
},
{
angle = 90;
isGlobal = 0;
magnetic = 5;
x = 94;
y = 0;
},
{
angle = 90;
isGlobal = 0;
magnetic = 5;
x = 487;
y = 0;
},
{
angle = 90;
isGlobal = 0;
magnetic = 5;
x = 139;
y = 0;
}
);
};
},
{
color = 5;
glyphname = G;
layers = (
{
anchors = (
{
name = bottom;
position = "{352, 0}";
},
{
name = top;
position = "{346, 700}";
}
);
hints = (
{
horizontal = 1;
place = "{0, 0}";
type = Tag;
}
);
layerId = "FF2DC345-5101-49B6-97F3-57A040F7C387";
paths = (
{
closed = 1;
nodes = (
"519 -10 OFFCURVE",
"625 97 OFFCURVE",
"625 261 CURVE SMOOTH",
"625 357 LINE SMOOTH",
"625 371 OFFCURVE",
"616 381 OFFCURVE",
"602 381 CURVE SMOOTH",
"376 381 LINE SMOOTH",
"363 381 OFFCURVE",
"353 371 OFFCURVE",
"353 357 CURVE SMOOTH",
"353 325 LINE SMOOTH",
"353 310 OFFCURVE",
"363 301 OFFCURVE",
"376 301 CURVE SMOOTH",
"526 301 LINE",
"526 259 LINE SMOOTH",
"526 132 OFFCURVE",
"448 75 OFFCURVE",
"342 75 CURVE SMOOTH",
"236 75 OFFCURVE",
"166 129 OFFCURVE",
"161 262 CURVE SMOOTH",
"159 321 OFFCURVE",
"159 381 OFFCURVE",
"161 440 CURVE SMOOTH",
"166 571 OFFCURVE",
"236 625 OFFCURVE",
"342 625 CURVE SMOOTH",
"447 625 OFFCURVE",
"497 568 OFFCURVE",
"514 516 CURVE SMOOTH",
"519 502 OFFCURVE",
"524 498 OFFCURVE",
"537 498 CURVE SMOOTH",
"596 498 LINE SMOOTH",
"609 498 OFFCURVE",
"618 506 OFFCURVE",
"617 518 CURVE SMOOTH",
"614 587 OFFCURVE",
"531 710 OFFCURVE",
"342 710 CURVE SMOOTH",
"166 710 OFFCURVE",
"67 606 OFFCURVE",
"61 445 CURVE SMOOTH",
"59 386 OFFCURVE",
"59 316 OFFCURVE",
"61 257 CURVE SMOOTH",
"67 95 OFFCURVE",
"164 -10 OFFCURVE",
"342 -10 CURVE SMOOTH"
);
}
);
width = 680.6875;
}
);
leftKerningGroup = O;
rightKerningGroup = G;
unicode = 0047;
userData = {
com.typemytype.robofont.guides = (
{
angle = 0;
isGlobal = 0;
magnetic = 5;
x = 0;
y = "-10";
},
{
angle = 0;
isGlobal = 0;
magnetic = 5;
x = 0;
y = 260;
},
{
angle = 0;
isGlobal = 0;
magnetic = 5;
x = 0;
y = 440;
},
{
angle = 90;
isGlobal = 0;
magnetic = 5;
x = 334;
y = 0;
},
{
angle = 90;
isGlobal = 0;
magnetic = 5;
x = 133;
y = 0;
},
{
angle = 90;
isGlobal = 0;
magnetic = 5;
x = 604;
y = 0;
},
{
angle = 90;
isGlobal = 0;
magnetic = 5;
x = 67;
y = 0;
}
);
};
},
{
color = 5;
glyphname = H;
layers = (
{
anchors = (
{
name = bottom;
position = "{357, 0}";
},
{
name = center;
position = "{357, 350}";
},
{
name = top;
position = "{357, 700}";
},
{
name = topleft;
position = "{20, 700}";
}
);
layerId = "FF2DC345-5101-49B6-97F3-57A040F7C387";
paths = (
{
closed = 1;
nodes = (
"161 0 LINE SMOOTH",
"175 0 OFFCURVE",
"185 10 OFFCURVE",
"185 23 CURVE SMOOTH",
"185 310 LINE",
"529 310 LINE",
"529 23 LINE SMOOTH",
"529 10 OFFCURVE",
"538 0 OFFCURVE",
"552 0 CURVE SMOOTH",
"603 0 LINE SMOOTH",
"617 0 OFFCURVE",
"627 10 OFFCURVE",
"627 23 CURVE SMOOTH",
"627 676 LINE SMOOTH",
"627 690 OFFCURVE",
"617 700 OFFCURVE",
"603 700 CURVE SMOOTH",
"552 700 LINE",
"538 700 OFFCURVE",
"529 690 OFFCURVE",
"529 676 CURVE SMOOTH",
"529 400 LINE",
"185 400 LINE",
"185 676 LINE SMOOTH",
"185 690 OFFCURVE",
"175 700 OFFCURVE",
"161 700 CURVE SMOOTH",
"110 700 LINE SMOOTH",
"96 700 OFFCURVE",
"87 690 OFFCURVE",
"87 676 CURVE SMOOTH",
"87 23 LINE SMOOTH",
"87 9 OFFCURVE",
"96 0 OFFCURVE",
"110 0 CURVE SMOOTH"
);
}
);
width = 713.5;
}
);
leftKerningGroup = I;
rightKerningGroup = I;
unicode = 0048;
userData = {
com.typemytype.robofont.guides = (
{
angle = 0;
isGlobal = 0;
magnetic = 5;
x = 0;
y = 350;
},
{
angle = 0;
isGlobal = 0;
magnetic = 5;
x = 0;
y = 9;
},
{
angle = 0;
isGlobal = 0;
magnetic = 5;
x = 0;
y = 691;
},
{
angle = 90;
isGlobal = 0;
magnetic = 5;
x = 94;
y = 0;
},
{
angle = 90;
isGlobal = 0;
magnetic = 5;
x = 139;
y = 0;
},
{
angle = 90;
isGlobal = 0;
magnetic = 5;
x = 543;
y = 0;
},
{
angle = 90;
isGlobal = 0;
magnetic = 5;
x = 588;
y = 0;
}
);
};
},
{
color = 5;
glyphname = I;
layers = (
{
anchors = (
{
name = bottom;
position = "{137, 0}";
},
{
name = ogonek;
position = "{184, 69}";
},
{
name = top;
position = "{137, 700}";
},
{
name = topleft;
position = "{20, 700}";
}
);
layerId = "FF2DC345-5101-49B6-97F3-57A040F7C387";
paths = (
{
closed = 1;
nodes = (
"163 0 LINE SMOOTH",
"177 0 OFFCURVE",
"186 10 OFFCURVE",
"186 23 CURVE SMOOTH",
"186 677 LINE SMOOTH",
"186 690 OFFCURVE",
"177 700 OFFCURVE",
"163 700 CURVE SMOOTH",
"110 700 LINE SMOOTH",
"96 700 OFFCURVE",
"87 690 OFFCURVE",
"87 677 CURVE SMOOTH",
"87 23 LINE SMOOTH",
"87 10 OFFCURVE",
"96 0 OFFCURVE",
"110 0 CURVE SMOOTH"
);
}
);
width = 272.9375;
}
);
leftKerningGroup = I;
rightKerningGroup = I;
unicode = 0049;
userData = {
com.typemytype.robofont.guides = (
{
angle = 90;
isGlobal = 0;
magnetic = 5;
x = 85;
y = 0;
},
{
angle = 90;
isGlobal = 0;
magnetic = 5;
x = 148;
y = 0;
}
);
};
},
{
color = 5;
glyphname = J;
layers = (
{
anchors = (
{
name = bottom;
position = "{317, 0}";
},
{
name = top;
position = "{316, 700}";
}
);
hints = (
{
horizontal = 1;
place = "{0, 0}";
type = Tag;
}
);
layerId = "FF2DC345-5101-49B6-97F3-57A040F7C387";
paths = (
{
closed = 1;
nodes = (
"457 -10 OFFCURVE",
"553 94 OFFCURVE",
"553 256 CURVE",
"553 676 LINE SMOOTH",
"553 690 OFFCURVE",
"544 700 OFFCURVE",
"529 700 CURVE SMOOTH",
"98 700 LINE SMOOTH",
"84 700 OFFCURVE",
"75 690 OFFCURVE",
"75 677 CURVE SMOOTH",
"75 636 LINE SMOOTH",
"75 623 OFFCURVE",
"84 613 OFFCURVE",
"98 613 CURVE SMOOTH",
"453 613 LINE",
"453 258 LINE SMOOTH",
"453 148 OFFCURVE",
"399 75 OFFCURVE",
"297 75 CURVE SMOOTH",
"216 75 OFFCURVE",
"149 111 OFFCURVE",
"140 201 CURVE SMOOTH",
"137 215 OFFCURVE",
"129 224 OFFCURVE",
"114 224 CURVE SMOOTH",
"60 224 LINE SMOOTH",
"46 224 OFFCURVE",
"38 214 OFFCURVE",
"38 202 CURVE SMOOTH",
"43 57 OFFCURVE",
"159 -10 OFFCURVE",
"295 -10 CURVE SMOOTH"
);
}
);
width = 633.75;
}
);
leftKerningGroup = J;
rightKerningGroup = U;
unicode = 004A;
userData = {
com.typemytype.robofont.guides = (
{
angle = 0;
isGlobal = 0;
magnetic = 5;
x = 0;
y = "-10";
},
{
angle = 0;
isGlobal = 0;
magnetic = 5;
x = 0;
y = 133;
},
{
angle = 0;
isGlobal = 0;
magnetic = 5;
x = 0;
y = 677;
},
{
angle = 90;
isGlobal = 0;
magnetic = 5;
x = 303;
y = 0;
},
{
angle = 90;
isGlobal = 0;
magnetic = 5;
x = 60;
y = 0;
},
{
angle = 90;
isGlobal = 0;
magnetic = 5;
x = 91;
y = 0;
}
);
};
},
{
color = 5;
glyphname = K;
layers = (
{
anchors = (
{
name = bottom;
position = "{314, 0}";
},
{
name = top;
position = "{301, 700}";
}
);
layerId = "FF2DC345-5101-49B6-97F3-57A040F7C387";
paths = (
{
closed = 1;
nodes = (
"160 0 LINE SMOOTH",
"174 0 OFFCURVE",
"184 10 OFFCURVE",
"184 23 CURVE SMOOTH",
"184 298 LINE",
"470 17 LINE SMOOTH",
"475 12 OFFCURVE",
"486 0 OFFCURVE",
"509 0 CURVE SMOOTH",
"565 0 LINE SMOOTH",
"576 0 OFFCURVE",
"585 9 OFFCURVE",
"585 20 CURVE SMOOTH",
"585 24 OFFCURVE",
"584 29 OFFCURVE",
"580 34 CURVE SMOOTH",
"251 365 LINE",
"560 667 LINE SMOOTH",
"563 671 OFFCURVE",
"564 676 OFFCURVE",
"564 680 CURVE SMOOTH",
"564 691 OFFCURVE",
"555 700 OFFCURVE",
"544 700 CURVE SMOOTH",
"490 700 LINE SMOOTH",
"468 700 OFFCURVE",
"456 689 OFFCURVE",
"451 684 CURVE SMOOTH",
"184 428 LINE",
"184 676 LINE SMOOTH",
"184 690 OFFCURVE",
"174 700 OFFCURVE",
"160 700 CURVE SMOOTH",
"110 700 LINE SMOOTH",
"96 700 OFFCURVE",
"87 690 OFFCURVE",
"87 676 CURVE SMOOTH",
"87 23 LINE SMOOTH",
"87 10 OFFCURVE",
"96 0 OFFCURVE",
"110 0 CURVE SMOOTH"
);
}
);
width = 601.25;
}
);
leftKerningGroup = I;
rightKerningGroup = K;
unicode = 004B;
userData = {
com.typemytype.robofont.guides = (
{
angle = 0;
isGlobal = 0;
magnetic = 5;
x = 0;
y = 365;
},
{
angle = 90;
isGlobal = 0;
magnetic = 5;
x = 547;
y = 0;
},
{
angle = 90;
isGlobal = 0;
magnetic = 5;
x = 94;
y = 0;
},
{
angle = 90;
isGlobal = 0;
magnetic = 5;
x = 139;
y = 0;
}
);
};
},
{
color = 5;
glyphname = L;
layers = (
{
anchors = (
{
name = bottom;
position = "{308, 0}";
},
{
name = center;
position = "{281, 350}";
},
{
name = top;
position = "{133, 700}";
},
{
name = topright;
position = "{355, 682}";
}
);
layerId = "FF2DC345-5101-49B6-97F3-57A040F7C387";
paths = (
{
closed = 1;
nodes = (
"518 0 LINE",
"532 0 OFFCURVE",
"542 10 OFFCURVE",
"542 23 CURVE",
"542 63 LINE",
"542 78 OFFCURVE",
"532 87 OFFCURVE",
"518 87 CURVE",
"186 87 LINE",
"186 677 LINE",
"186 690 OFFCURVE",
"176 700 OFFCURVE",
"163 700 CURVE",
"110 700 LINE",
"96 700 OFFCURVE",
"87 690 OFFCURVE",
"87 677 CURVE",
"87 23 LINE",
"87 10 OFFCURVE",
"96 0 OFFCURVE",
"110 0 CURVE"
);
}
);
width = 562.625;
}
);
leftKerningGroup = I;
rightKerningGroup = L;
unicode = 004C;
},
{
color = 5;
glyphname = M;
layers = (
{
anchors = (
{
name = bottom;
position = "{397, 0}";
},
{
name = top;
position = "{397, 700}";
}
);
hints = (
{
horizontal = 1;
place = "{0, 0}";
type = Tag;
}
);
layerId = "FF2DC345-5101-49B6-97F3-57A040F7C387";
paths = (
{
closed = 1;
nodes = (
"159 0 LINE SMOOTH",
"172 0 OFFCURVE",
"182 10 OFFCURVE",
"182 23 CURVE SMOOTH",
"182 515 LINE",
"350 189 LINE SMOOTH",
"356 176 OFFCURVE",
"365 168 OFFCURVE",
"382 168 CURVE SMOOTH",
"413 168 LINE SMOOTH",
"429 168 OFFCURVE",
"439 176 OFFCURVE",
"445 189 CURVE SMOOTH",
"612 515 LINE",
"612 23 LINE SMOOTH",
"612 10 OFFCURVE",
"622 0 OFFCURVE",
"635 0 CURVE SMOOTH",
"684 0 LINE SMOOTH",
"698 0 OFFCURVE",
"708 10 OFFCURVE",
"708 23 CURVE SMOOTH",
"708 676 LINE SMOOTH",
"708 690 OFFCURVE",
"698 700 OFFCURVE",
"684 700 CURVE SMOOTH",
"635 700 LINE SMOOTH",
"619 700 OFFCURVE",
"612 689 OFFCURVE",
"610 684 CURVE SMOOTH",
"397 280 LINE",
"186 684 LINE SMOOTH",
"183 689 OFFCURVE",
"176 700 OFFCURVE",
"160 700 CURVE SMOOTH",
"110 700 LINE SMOOTH",
"96 700 OFFCURVE",
"87 690 OFFCURVE",
"87 676 CURVE SMOOTH",
"87 23 LINE SMOOTH",
"87 10 OFFCURVE",
"96 0 OFFCURVE",
"110 0 CURVE SMOOTH"
);
}
);
width = 794.25;
}
);
leftKerningGroup = I;
rightKerningGroup = I;
unicode = 004D;
userData = {
com.typemytype.robofont.guides = (
{
angle = 0;
isGlobal = 0;
magnetic = 5;
x = 0;
y = 168;
},
{
angle = 0;
isGlobal = 0;
magnetic = 5;
x = 0;
y = 9;
},
{
angle = 0;
isGlobal = 0;
magnetic = 5;
x = 0;
y = 691;
},
{
angle = 90;
isGlobal = 0;
magnetic = 5;
x = 126;
y = 0;
},
{
angle = 90;
isGlobal = 0;
magnetic = 5;
x = 636;
y = 0;
}
);
};
},
{
color = 5;
glyphname = N;
layers = (
{
anchors = (
{
name = bottom;
position = "{350, 0}";
},
{
name = top;
position = "{347, 700}";
}
);
layerId = "FF2DC345-5101-49B6-97F3-57A040F7C387";
paths = (
{
closed = 1;
nodes = (
"158 0 LINE SMOOTH",
"172 0 OFFCURVE",
"182 10 OFFCURVE",
"182 23 CURVE SMOOTH",
"182 519 LINE",
"513 14 LINE",
"515 11 OFFCURVE",
"522 0 OFFCURVE",
"537 0 CURVE SMOOTH",
"585 0 LINE SMOOTH",
"598 0 OFFCURVE",
"608 10 OFFCURVE",
"608 24 CURVE SMOOTH",
"608 676 LINE SMOOTH",
"608 690 OFFCURVE",
"598 700 OFFCURVE",
"584 700 CURVE SMOOTH",
"536 700 LINE SMOOTH",
"522 700 OFFCURVE",
"513 690 OFFCURVE",
"513 676 CURVE SMOOTH",
"513 176 LINE",
"181 686 LINE SMOOTH",
"179 690 OFFCURVE",
"172 700 OFFCURVE",
"156 700 CURVE SMOOTH",
"110 700 LINE SMOOTH",
"96 700 OFFCURVE",
"87 690 OFFCURVE",
"87 676 CURVE SMOOTH",
"87 23 LINE SMOOTH",
"87 10 OFFCURVE",
"96 0 OFFCURVE",
"110 0 CURVE SMOOTH"
);
}
);
width = 694.5;
}
);
leftKerningGroup = I;
rightKerningGroup = I;
unicode = 004E;
userData = {
com.typemytype.robofont.guides = (
{
angle = 0;
isGlobal = 0;
magnetic = 5;
x = 0;
y = 9;
},
{
angle = 0;
isGlobal = 0;
magnetic = 5;
x = 0;
y = 691;
},
{
angle = 90;
isGlobal = 0;
magnetic = 5;
x = 540;
y = 0;
},
{
angle = 90;
isGlobal = 0;
magnetic = 5;
x = 125;
y = 0;
}
);
};
},
{
color = 5;
glyphname = O;
layers = (
{
anchors = (
{
name = bottom;
position = "{339, 0}";
},
{
name = center;
position = "{339, 350}";
},
{
name = ogonek;
position = "{610, 10}";
},
{
name = top;
position = "{339, 700}";
},
{
name = topleft;
position = "{20, 700}";
},
{
name = topright;
position = "{657, 700}";
}
);
layerId = "FF2DC345-5101-49B6-97F3-57A040F7C387";
paths = (
{
closed = 1;
nodes = (
"510 -10 OFFCURVE",
"610 78 OFFCURVE",
"616 265 CURVE SMOOTH",
"618 324 OFFCURVE",
"618 375 OFFCURVE",
"616 434 CURVE SMOOTH",
"610 618 OFFCURVE",
"502 710 OFFCURVE",
"339 710 CURVE SMOOTH",
"175 710 OFFCURVE",
"67 618 OFFCURVE",
"61 434 CURVE SMOOTH",
"59 375 OFFCURVE",
"59 324 OFFCURVE",
"61 265 CURVE SMOOTH",
"67 78 OFFCURVE",
"167 -10 OFFCURVE",
"339 -10 CURVE SMOOTH"
);
},
{
closed = 1;
nodes = (
"238 75 OFFCURVE",
"166 133 OFFCURVE",
"161 270 CURVE SMOOTH",
"159 330 OFFCURVE",
"159 371 OFFCURVE",
"161 430 CURVE SMOOTH",
"166 567 OFFCURVE",
"239 625 OFFCURVE",
"339 625 CURVE SMOOTH",
"438 625 OFFCURVE",
"511 567 OFFCURVE",
"516 430 CURVE SMOOTH",
"518 371 OFFCURVE",
"518 330 OFFCURVE",
"516 270 CURVE SMOOTH",
"511 133 OFFCURVE",
"439 75 OFFCURVE",
"339 75 CURVE SMOOTH"
);
}
);
width = 677;
}
);
leftKerningGroup = O;
rightKerningGroup = O;
unicode = 004F;
userData = {
com.typemytype.robofont.guides = (
{
angle = 0;
isGlobal = 0;
magnetic = 5;
x = 0;
y = "-10";
},
{
angle = 0;
isGlobal = 0;
magnetic = 5;
x = 0;
y = 710;
},
{
angle = 0;
isGlobal = 0;
magnetic = 5;
x = 0;
y = 335;
},
{
angle = 0;
isGlobal = 0;
magnetic = 5;
x = 0;
y = 434;
},
{
angle = 0;
isGlobal = 0;
magnetic = 5;
x = 0;
y = 266;
},
{
angle = 90;
isGlobal = 0;
magnetic = 5;
x = 496;
y = 0;
}
);
};
},
{
color = 5;
glyphname = OE;
layers = (
{
anchors = (
{
name = bottom;
position = "{460, 0}";
},
{
name = top;
position = "{460, 700}";
}
);
hints = (
{
horizontal = 1;
place = "{0, 0}";
type = Tag;
}
);
layerId = "FF2DC345-5101-49B6-97F3-57A040F7C387";
paths = (
{
closed = 1;
nodes = (
"844 0 LINE",
"859 0 OFFCURVE",
"868 10 OFFCURVE",
"868 23 CURVE",
"868 62 LINE",
"868 76 OFFCURVE",
"859 85 OFFCURVE",
"844 85 CURVE",
"533 85 LINE",
"533 312 LINE",
"814 312 LINE",
"829 312 OFFCURVE",
"838 322 OFFCURVE",
"838 335 CURVE",
"838 372 LINE",
"838 386 OFFCURVE",
"829 396 OFFCURVE",
"814 396 CURVE",
"533 396 LINE",
"533 615 LINE",
"836 615 LINE",
"851 615 OFFCURVE",
"860 624 OFFCURVE",
"860 638 CURVE",
"860 676 LINE",
"860 690 OFFCURVE",
"851 700 OFFCURVE",
"836 700 CURVE",
"352 700 LINE",
"145 700 OFFCURVE",
"67 604 OFFCURVE",
"63 429 CURVE SMOOTH",
"62 370 OFFCURVE",
"62 331 OFFCURVE",
"63 272 CURVE SMOOTH",
"68 87 OFFCURVE",
"144 0 OFFCURVE",
"347 0 CURVE"
);
},
{
closed = 1;
nodes = (
"215 85 OFFCURVE",
"165 139 OFFCURVE",
"162 276 CURVE SMOOTH",
"161 335 OFFCURVE",
"161 366 OFFCURVE",
"162 425 CURVE SMOOTH",
"165 554 OFFCURVE",
"219 615 OFFCURVE",
"357 615 CURVE",
"437 615 LINE",
"437 85 LINE",
"352 85 LINE"
);
}
);
width = 919.125;
}
);
leftKerningGroup = O;
rightKerningGroup = E;
unicode = 0152;
userData = {
com.typemytype.robofont.guides = (
{
angle = 90;
isGlobal = 0;
magnetic = 5;
x = 842;
y = 0;
},
{
angle = 90;
isGlobal = 0;
magnetic = 5;
x = 66;
y = 0;
},
{
angle = 90;
isGlobal = 0;
magnetic = 5;
x = 439;
y = 0;
},
{
angle = 90;
isGlobal = 0;
magnetic = 5;
x = 502;
y = 0;
}
);
};
},
{
color = 5;
glyphname = P;
layers = (
{
anchors = (
{
name = bottom;
position = "{321, 0}";
},
{
name = top;
position = "{321, 700}";
}
);
hints = (
{
horizontal = 1;
place = "{0, 0}";
type = Tag;
}
);
layerId = "FF2DC345-5101-49B6-97F3-57A040F7C387";
paths = (
{
closed = 1;
nodes = (
"163 0 LINE SMOOTH",
"177 0 OFFCURVE",
"187 10 OFFCURVE",
"187 23 CURVE SMOOTH",
"187 273 LINE",
"364 273 LINE SMOOTH",
"512 273 OFFCURVE",
"607 344 OFFCURVE",
"607 486 CURVE SMOOTH",
"607 628 OFFCURVE",
"512 700 OFFCURVE",
"364 700 CURVE SMOOTH",
"110 700 LINE SMOOTH",
"96 700 OFFCURVE",
"87 690 OFFCURVE",
"87 676 CURVE SMOOTH",
"87 23 LINE SMOOTH",
"87 10 OFFCURVE",
"96 0 OFFCURVE",
"110 0 CURVE SMOOTH"
);
},
{
closed = 1;
nodes = (
"186 616 LINE",
"359 616 LINE SMOOTH",
"460 616 OFFCURVE",
"507 568 OFFCURVE",
"507 486 CURVE SMOOTH",
"507 402 OFFCURVE",
"457 357 OFFCURVE",
"359 357 CURVE SMOOTH",
"186 357 LINE"
);
}
);
width = 642.4375;
}
);
leftKerningGroup = I;
unicode = 0050;
userData = {
com.typemytype.robofont.guides = (
{
angle = 0;
isGlobal = 0;
magnetic = 5;
x = 0;
y = 493;
},
{
angle = 0;
isGlobal = 0;
magnetic = 5;
x = 0;
y = 403;
},
{
angle = 0;
isGlobal = 0;
magnetic = 5;
x = 0;
y = 218;
},
{
angle = 0;
isGlobal = 0;
magnetic = 5;
x = 0;
y = 310;
},
{
angle = 0;
isGlobal = 0;
magnetic = 5;
x = 0;
y = 9;
},
{
angle = 0;
isGlobal = 0;
magnetic = 5;
x = 0;
y = 691;
},
{
angle = 90;
isGlobal = 0;
magnetic = 5;
x = 345;
y = 0;
},
{
angle = 90;
isGlobal = 0;
magnetic = 5;
x = 94;
y = 0;
},
{
angle = 90;
isGlobal = 0;
magnetic = 5;
x = 139;
y = 0;
}
);
};
},
{
color = 5;
glyphname = Thorn;
layers = (
{
anchors = (
{
name = bottom;
position = "{324, 0}";
},
{
name = top;
position = "{324, 700}";
}
);
hints = (
{
horizontal = 1;
place = "{0, 0}";
type = Tag;
}
);
layerId = "FF2DC345-5101-49B6-97F3-57A040F7C387";
paths = (
{
closed = 1;
nodes = (
"163 0 LINE",
"177 0 OFFCURVE",
"187 10 OFFCURVE",
"187 23 CURVE",
"187 139 LINE",
"363 139 LINE",
"512 139 OFFCURVE",
"607 210 OFFCURVE",
"607 351 CURVE SMOOTH",
"607 493 OFFCURVE",
"512 565 OFFCURVE",
"363 565 CURVE",
"187 565 LINE",
"187 677 LINE",
"187 690 OFFCURVE",
"177 700 OFFCURVE",
"164 700 CURVE",
"110 700 LINE",
"96 700 OFFCURVE",
"87 690 OFFCURVE",
"87 677 CURVE",
"87 23 LINE",
"87 10 OFFCURVE",
"96 0 OFFCURVE",
"110 0 CURVE"
);
},
{
closed = 1;
nodes = (
"186 482 LINE",
"359 482 LINE",
"460 482 OFFCURVE",
"507 433 OFFCURVE",
"507 352 CURVE SMOOTH",
"507 267 OFFCURVE",
"457 222 OFFCURVE",
"359 222 CURVE",
"186 222 LINE"
);
}
);
width = 646.5;
}
);
leftKerningGroup = I;
unicode = 00DE;
userData = {
com.typemytype.robofont.guides = (
{
angle = 0;
isGlobal = 0;
magnetic = 5;
x = 0;
y = 119;
},
{
angle = 0;
isGlobal = 0;
magnetic = 5;
x = 0;
y = 601;
},
{
angle = 0;
isGlobal = 0;
magnetic = 5;
x = 0;
y = 570;
},
{
angle = 0;
isGlobal = 0;
magnetic = 5;
x = 0;
y = 350;
}
);
};
},
{
color = 5;
glyphname = Q;
layers = (
{
anchors = (
{
name = bottom;
position = "{339, 0}";
},
{
name = top;
position = "{339, 700}";
}
);
hints = (
{
horizontal = 1;
place = "{0, 0}";
type = Tag;
}
);
layerId = "FF2DC345-5101-49B6-97F3-57A040F7C387";
paths = (
{
closed = 1;
nodes = (
"592 -65 LINE",
"604 -65 OFFCURVE",
"613 -56 OFFCURVE",
"612 -45 CURVE SMOOTH",
"612 -39 OFFCURVE",
"610 -36 OFFCURVE",
"609 -34 CURVE",
"543 60 LINE",
"588 105 OFFCURVE",
"612 173 OFFCURVE",
"615 265 CURVE SMOOTH",
"617 324 OFFCURVE",
"617 375 OFFCURVE",
"615 434 CURVE SMOOTH",
"610 618 OFFCURVE",
"502 710 OFFCURVE",
"338 710 CURVE SMOOTH",
"175 710 OFFCURVE",
"67 618 OFFCURVE",
"61 434 CURVE SMOOTH",
"59 375 OFFCURVE",
"59 324 OFFCURVE",
"61 265 CURVE SMOOTH",
"67 78 OFFCURVE",
"167 -10 OFFCURVE",
"338 -10 CURVE SMOOTH",
"387 -10 OFFCURVE",
"428 -2 OFFCURVE",
"463 14 CURVE",
"504 -42 LINE",
"510 -50 OFFCURVE",
"521 -65 OFFCURVE",
"538 -65 CURVE"
);
},
{
closed = 1;
nodes = (
"237 75 OFFCURVE",
"166 133 OFFCURVE",
"161 270 CURVE SMOOTH",
"159 330 OFFCURVE",
"159 371 OFFCURVE",
"161 430 CURVE SMOOTH",
"166 567 OFFCURVE",
"238 625 OFFCURVE",
"338 625 CURVE SMOOTH",
"438 625 OFFCURVE",
"511 567 OFFCURVE",
"516 430 CURVE SMOOTH",
"518 371 OFFCURVE",
"518 330 OFFCURVE",
"516 270 CURVE SMOOTH",
"511 133 OFFCURVE",
"439 75 OFFCURVE",
"338 75 CURVE SMOOTH"
);
}
);
width = 677;
}
);
leftKerningGroup = O;
rightKerningGroup = O;
unicode = 0051;
userData = {
com.typemytype.robofont.guides = (
{
angle = 0;
isGlobal = 0;
magnetic = 5;
x = 0;
y = 710;
},
{
angle = 0;
isGlobal = 0;
magnetic = 5;
x = 0;
y = "-10";
},
{
angle = 0;
isGlobal = 0;
magnetic = 5;
x = 0;
y = "-56";
},
{
angle = 90;
isGlobal = 0;
magnetic = 5;
x = 82;
y = 0;
},
{
angle = 90;
isGlobal = 0;
magnetic = 5;
x = 750;
y = 0;
},
{
angle = 90;
isGlobal = 0;
magnetic = 5;
x = 580;
y = 0;
}
);
};
},
{
color = 5;
glyphname = R;
layers = (
{
anchors = (
{
name = bottom;
position = "{332, 0}";
},
{
name = top;
position = "{307, 700}";
}
);
layerId = "FF2DC345-5101-49B6-97F3-57A040F7C387";
paths = (
{
closed = 1;
nodes = (
"161 0 LINE SMOOTH",
"175 0 OFFCURVE",
"185 10 OFFCURVE",
"185 23 CURVE SMOOTH",
"185 281 LINE",
"360 281 LINE",
"505 27 LINE SMOOTH",
"512 14 OFFCURVE",
"521 0 OFFCURVE",
"544 0 CURVE SMOOTH",
"592 0 LINE SMOOTH",
"603 0 OFFCURVE",
"613 9 OFFCURVE",
"613 20 CURVE SMOOTH",
"613 25 OFFCURVE",
"612 27 OFFCURVE",
"610 31 CURVE SMOOTH",
"456 297 LINE",
"545 322 OFFCURVE",
"599 387 OFFCURVE",
"599 490 CURVE SMOOTH",
"599 629 OFFCURVE",
"504 700 OFFCURVE",
"354 700 CURVE SMOOTH",
"110 700 LINE SMOOTH",
"96 700 OFFCURVE",
"87 690 OFFCURVE",
"87 676 CURVE SMOOTH",
"87 23 LINE SMOOTH",
"87 10 OFFCURVE",
"96 0 OFFCURVE",
"110 0 CURVE SMOOTH"
);
},
{
closed = 1;
nodes = (
"185 616 LINE",
"350 616 LINE SMOOTH",
"451 616 OFFCURVE",
"499 573 OFFCURVE",
"499 491 CURVE SMOOTH",
"499 408 OFFCURVE",
"450 366 OFFCURVE",
"350 366 CURVE SMOOTH",
"185 366 LINE"
);
}
);
width = 655.375;
}
);
leftKerningGroup = I;
rightKerningGroup = R;
unicode = 0052;
userData = {
com.typemytype.robofont.guides = (
{
angle = 0;
isGlobal = 0;
magnetic = 5;
x = 0;
y = 691;
},
{
angle = 0;
isGlobal = 0;
magnetic = 5;
x = 0;
y = 9;
},
{
angle = 90;
isGlobal = 0;
magnetic = 5;
x = 616;
y = 0;
},
{
angle = 90;
isGlobal = 0;
magnetic = 5;
x = 574;
y = 0;
},
{
angle = 90;
isGlobal = 0;
magnetic = 5;
x = 94;
y = 0;
},
{
angle = 90;
isGlobal = 0;
magnetic = 5;
x = 139;
y = 0;
}
);
};
},
{
color = 5;
glyphname = S;
layers = (
{
anchors = (
{
name = bottom;
position = "{313, 0}";
},
{
name = top;
position = "{312, 700}";
}
);
layerId = "FF2DC345-5101-49B6-97F3-57A040F7C387";
paths = (
{
closed = 1;
nodes = (
"473 -10 OFFCURVE",
"578 64 OFFCURVE",
"578 189 CURVE SMOOTH",
"578 303 OFFCURVE",
"506 346 OFFCURVE",
"347 390 CURVE SMOOTH",
"214 429 OFFCURVE",
"161 453 OFFCURVE",
"161 522 CURVE SMOOTH",
"161 592 OFFCURVE",
"220 625 OFFCURVE",
"307 625 CURVE SMOOTH",
"392 625 OFFCURVE",
"449 583 OFFCURVE",
"457 528 CURVE SMOOTH",
"461 513 OFFCURVE",
"473 509 OFFCURVE",
"483 509 CURVE SMOOTH",
"536 509 LINE SMOOTH",
"550 509 OFFCURVE",
"557 519 OFFCURVE",
"557 529 CURVE SMOOTH",
"554 608 OFFCURVE",
"473 710 OFFCURVE",
"307 710 CURVE SMOOTH",
"152 710 OFFCURVE",
"62 628 OFFCURVE",
"62 521 CURVE SMOOTH",
"62 406 OFFCURVE",
"132 361 OFFCURVE",
"278 319 CURVE SMOOTH",
"417 278 OFFCURVE",
"479 256 OFFCURVE",
"479 187 CURVE SMOOTH",
"479 119 OFFCURVE",
"426 75 OFFCURVE",
"312 75 CURVE SMOOTH",
"200 75 OFFCURVE",
"151 129 OFFCURVE",
"141 177 CURVE SMOOTH",
"137 188 OFFCURVE",
"130 197 OFFCURVE",
"115 197 CURVE SMOOTH",
"64 197 LINE SMOOTH",
"52 197 OFFCURVE",
"42 187 OFFCURVE",
"42 176 CURVE SMOOTH",
"45 81 OFFCURVE",
"139 -10 OFFCURVE",
"312 -10 CURVE SMOOTH"
);
}
);
width = 622.25;
}
);
leftKerningGroup = S;
rightKerningGroup = S;
unicode = 0053;
userData = {
com.typemytype.robofont.guides = (
{
angle = 0;
isGlobal = 0;
magnetic = 5;
x = 0;
y = 355;
},
{
angle = 90;
isGlobal = 0;
magnetic = 5;
x = 306;
y = 0;
}
);
};
},
{
color = 5;
glyphname = T;
layers = (
{
anchors = (
{
name = bottom;
position = "{290, 0}";
},
{
name = center;
position = "{290, 350}";
},
{
name = top;
position = "{290, 700}";
}
);
hints = (
{
horizontal = 1;
place = "{0, 0}";
type = Tag;
}
);
layerId = "FF2DC345-5101-49B6-97F3-57A040F7C387";
paths = (
{
closed = 1;
nodes = (
"315 0 LINE SMOOTH",
"329 0 OFFCURVE",
"339 10 OFFCURVE",
"339 23 CURVE SMOOTH",
"339 611 LINE",
"530 611 LINE SMOOTH",
"544 611 OFFCURVE",
"554 621 OFFCURVE",
"554 634 CURVE SMOOTH",
"554 676 LINE SMOOTH",
"554 690 OFFCURVE",
"544 700 OFFCURVE",
"530 700 CURVE SMOOTH",
"48 700 LINE SMOOTH",
"35 700 OFFCURVE",
"25 690 OFFCURVE",
"25 676 CURVE SMOOTH",
"25 634 LINE SMOOTH",
"25 621 OFFCURVE",
"35 611 OFFCURVE",
"48 611 CURVE SMOOTH",
"240 611 LINE",
"240 23 LINE SMOOTH",
"240 10 OFFCURVE",
"250 0 OFFCURVE",
"263 0 CURVE SMOOTH"
);
}
);
width = 578.9375;
}
);
leftKerningGroup = T;
rightKerningGroup = T;
unicode = 0054;
userData = {
com.typemytype.robofont.guides = (
{
angle = 0;
isGlobal = 0;
magnetic = 5;
x = 0;
y = 495;
},
{
angle = 0;
isGlobal = 0;
magnetic = 5;
x = 0;
y = 9;
},
{
angle = 0;
isGlobal = 0;
magnetic = 5;
x = 0;
y = 691;
},
{
angle = 0;
isGlobal = 0;
magnetic = 5;
x = 0;
y = 649;
},
{
angle = 90;
isGlobal = 0;
magnetic = 5;
x = 279;
y = 0;
},
{
angle = 90;
isGlobal = 0;
magnetic = 5;
x = 324;
y = 0;
},
{
angle = 90;
isGlobal = 0;
magnetic = 5;
x = 59;
y = 0;
},
{
angle = 90;
isGlobal = 0;
magnetic = 5;
x = 544;
y = 0;
}
);
};
},
{
color = 5;
glyphname = U;
layers = (
{
anchors = (
{
name = bottom;
position = "{351, 0}";
},
{
name = ogonek;
position = "{421, 62}";
},
{
name = top;
position = "{351, 700}";
},
{
name = topright;
position = "{681, 700}";
}
);
layerId = "FF2DC345-5101-49B6-97F3-57A040F7C387";
paths = (
{
closed = 1;
nodes = (
"519 -10 OFFCURVE",
"621 77 OFFCURVE",
"621 270 CURVE SMOOTH",
"621 676 LINE",
"621 690 OFFCURVE",
"611 700 OFFCURVE",
"598 700 CURVE",
"546 700 LINE",
"532 700 OFFCURVE",
"523 690 OFFCURVE",
"523 676 CURVE",
"523 268 LINE SMOOTH",
"523 137 OFFCURVE",
"457 76 OFFCURVE",
"351 76 CURVE SMOOTH",
"244 76 OFFCURVE",
"179 137 OFFCURVE",
"179 268 CURVE SMOOTH",
"179 676 LINE",
"179 690 OFFCURVE",
"169 700 OFFCURVE",
"155 700 CURVE",
"104 700 LINE",
"90 700 OFFCURVE",
"81 690 OFFCURVE",
"81 676 CURVE",
"81 270 LINE SMOOTH",
"81 77 OFFCURVE",
"184 -10 OFFCURVE",
"351 -10 CURVE SMOOTH"
);
}
);
width = 701.3125;
}
);
leftKerningGroup = U;
rightKerningGroup = U;
unicode = 0055;
userData = {
com.typemytype.robofont.guides = (
{
angle = 0;
isGlobal = 0;
magnetic = 5;
x = 0;
y = 267;
},
{
angle = 90;
isGlobal = 0;
magnetic = 5;
x = 333;
y = 0;
},
{
angle = 90;
isGlobal = 0;
magnetic = 5;
x = 535;
y = 0;
},
{
angle = 90;
isGlobal = 0;
magnetic = 5;
x = 580;
y = 0;
},
{
angle = 90;
isGlobal = 0;
magnetic = 5;
x = 84;
y = 0;
},
{
angle = 90;
isGlobal = 0;
magnetic = 5;
x = 129;
y = 0;
}
);
};
},
{
color = 5;
glyphname = V;
layers = (
{
anchors = (
{
name = bottom;
position = "{327, 0}";
},
{
name = top;
position = "{327, 700}";
}
);
hints = (
{
horizontal = 1;
place = "{0, 0}";
type = Tag;
}
);
layerId = "FF2DC345-5101-49B6-97F3-57A040F7C387";
paths = (
{
closed = 1;
nodes = (
"360 0 LINE SMOOTH",
"380 0 OFFCURVE",
"390 10 OFFCURVE",
"396 26 CURVE SMOOTH",
"620 669 LINE SMOOTH",
"621 673 OFFCURVE",
"622 678 OFFCURVE",
"622 680 CURVE SMOOTH",
"622 691 OFFCURVE",
"612 700 OFFCURVE",
"601 700 CURVE SMOOTH",
"549 700 LINE SMOOTH",
"534 700 OFFCURVE",
"525 689 OFFCURVE",
"523 682 CURVE SMOOTH",
"327 115 LINE",
"132 682 LINE SMOOTH",
"129 689 OFFCURVE",
"121 700 OFFCURVE",
"105 700 CURVE SMOOTH",
"53 700 LINE SMOOTH",
"42 700 OFFCURVE",
"33 691 OFFCURVE",
"33 680 CURVE SMOOTH",
"33 678 OFFCURVE",
"34 673 OFFCURVE",
"35 669 CURVE SMOOTH",
"258 26 LINE SMOOTH",
"264 10 OFFCURVE",
"275 0 OFFCURVE",
"295 0 CURVE SMOOTH"
);
}
);
width = 654.5;
}
);
unicode = 0056;
userData = {
com.typemytype.robofont.guides = (
{
angle = 0;
isGlobal = 0;
magnetic = 5;
x = 0;
y = 24;
}
);
};
},
{
color = 5;
glyphname = W;
layers = (
{
anchors = (
{
name = bottom;
position = "{400, 0}";
},
{
name = top;
position = "{400, 700}";
}
);
layerId = "FF2DC345-5101-49B6-97F3-57A040F7C387";
paths = (
{
closed = 1;
nodes = (
"244 0 LINE",
"262 0 OFFCURVE",
"272 10 OFFCURVE",
"277 25 CURVE",
"400 406 LINE",
"524 25 LINE",
"528 10 OFFCURVE",
"539 0 OFFCURVE",
"557 0 CURVE",
"596 0 LINE",
"614 0 OFFCURVE",
"623 9 OFFCURVE",
"627 27 CURVE",
"756 669 LINE",
"756 674 OFFCURVE",
"757 678 OFFCURVE",
"757 680 CURVE SMOOTH",
"757 691 OFFCURVE",
"748 700 OFFCURVE",
"737 700 CURVE",
"685 700 LINE",
"670 700 OFFCURVE",
"662 694 OFFCURVE",
"660 683 CURVE",
"559 167 LINE",
"450 521 LINE",
"447 532 OFFCURVE",
"438 545 OFFCURVE",
"419 545 CURVE",
"382 545 LINE",
"363 545 OFFCURVE",
"354 532 OFFCURVE",
"350 521 CURVE",
"242 167 LINE",
"140 683 LINE",
"138 694 OFFCURVE",
"131 700 OFFCURVE",
"116 700 CURVE",
"64 700 LINE",
"53 700 OFFCURVE",
"44 691 OFFCURVE",
"44 680 CURVE SMOOTH",
"44 678 OFFCURVE",
"44 674 OFFCURVE",
"45 669 CURVE",
"174 27 LINE",
"177 9 OFFCURVE",
"187 0 OFFCURVE",
"205 0 CURVE"
);
}
);
width = 800.75;
}
);
leftKerningGroup = W;
rightKerningGroup = W;
unicode = 0057;
userData = {
com.typemytype.robofont.guides = (
{
angle = 0;
isGlobal = 0;
magnetic = 5;
x = 0;
y = 545;
},
{
angle = 0;
isGlobal = 0;
magnetic = 5;
x = 0;
y = 670;
},
{
angle = 0;
isGlobal = 0;
magnetic = 5;
x = 0;
y = 24;
}
);
};
},
{
color = 5;
glyphname = X;
layers = (
{
anchors = (
{
name = bottom;
position = "{317, 0}";
},
{
name = top;
position = "{317, 700}";
}
);
hints = (
{
horizontal = 1;
place = "{0, 0}";
type = Tag;
}
);
layerId = "FF2DC345-5101-49B6-97F3-57A040F7C387";
paths = (
{
closed = 1;
nodes = (
"104 0 LINE",
"116 0 OFFCURVE",
"124 7 OFFCURVE",
"130 17 CURVE",
"315 276 LINE",
"501 17 LINE",
"508 7 OFFCURVE",
"516 0 OFFCURVE",
"528 0 CURVE",
"589 0 LINE",
"601 0 OFFCURVE",
"610 9 OFFCURVE",
"610 20 CURVE SMOOTH",
"610 25 OFFCURVE",
"608 30 OFFCURVE",
"606 33 CURVE",
"378 355 LINE",
"593 667 LINE",
"596 670 OFFCURVE",
"597 675 OFFCURVE",
"597 680 CURVE SMOOTH",
"597 691 OFFCURVE",
"588 700 OFFCURVE",
"577 700 CURVE",
"520 700 LINE",
"508 700 OFFCURVE",
"500 693 OFFCURVE",
"494 683 CURVE",
"319 433 LINE",
"143 683 LINE",
"136 693 OFFCURVE",
"128 700 OFFCURVE",
"116 700 CURVE",
"56 700 LINE",
"45 700 OFFCURVE",
"36 691 OFFCURVE",
"36 680 CURVE SMOOTH",
"36 675 OFFCURVE",
"37 670 OFFCURVE",
"39 667 CURVE",
"257 356 LINE",
"28 33 LINE",
"26 30 OFFCURVE",
"24 25 OFFCURVE",
"24 20 CURVE SMOOTH",
"24 9 OFFCURVE",
"34 0 OFFCURVE",
"45 0 CURVE"
);
}
);
width = 633.375;
}
);
unicode = 0058;
userData = {
com.typemytype.robofont.guides = (
{
angle = 0;
isGlobal = 0;
magnetic = 5;
x = 0;
y = 350;
},
{
angle = 90;
isGlobal = 0;
magnetic = 5;
x = 28;
y = 0;
},
{
angle = 90;
isGlobal = 0;
magnetic = 5;
x = 580;
y = 0;
}
);
};
},
{
color = 5;
glyphname = Y;
layers = (
{
anchors = (
{
name = bottom;
position = "{323, 0}";
},
{
name = top;
position = "{323, 700}";
},
{
name = topleft;
position = "{20, 700}";
}
);
layerId = "FF2DC345-5101-49B6-97F3-57A040F7C387";
paths = (
{
closed = 1;
nodes = (
"349 0 LINE SMOOTH",
"363 0 OFFCURVE",
"373 10 OFFCURVE",
"373 23 CURVE SMOOTH",
"373 259 LINE",
"613 667 LINE SMOOTH",
"615 671 OFFCURVE",
"617 675 OFFCURVE",
"617 680 CURVE SMOOTH",
"617 691 OFFCURVE",
"608 700 OFFCURVE",
"596 700 CURVE SMOOTH",
"545 700 LINE SMOOTH",
"533 700 OFFCURVE",
"524 692 OFFCURVE",
"518 683 CURVE SMOOTH",
"323 359 LINE",
"128 683 LINE SMOOTH",
"123 692 OFFCURVE",
"114 700 OFFCURVE",
"102 700 CURVE SMOOTH",
"50 700 LINE SMOOTH",
"39 700 OFFCURVE",
"30 691 OFFCURVE",
"30 680 CURVE SMOOTH",
"30 675 OFFCURVE",
"32 671 OFFCURVE",
"33 667 CURVE SMOOTH",
"274 259 LINE",
"274 23 LINE SMOOTH",
"274 10 OFFCURVE",
"283 0 OFFCURVE",
"297 0 CURVE SMOOTH"
);
}
);
width = 646.625;
}
);
leftKerningGroup = Y;
rightKerningGroup = Y;
unicode = 0059;
userData = {
com.typemytype.robofont.guides = (
{
angle = 90;
isGlobal = 0;
magnetic = 5;
x = 310;
y = 0;
}
);
};
},
{
color = 5;
glyphname = Z;
layers = (
{
anchors = (
{
name = bottom;
position = "{301, 0}";
},
{
name = center;
position = "{301, 350}";
},
{
name = top;
position = "{291, 700}";
}
);
layerId = "FF2DC345-5101-49B6-97F3-57A040F7C387";
paths = (
{
closed = 1;
nodes = (
"536 0 LINE SMOOTH",
"551 0 OFFCURVE",
"560 10 OFFCURVE",
"560 23 CURVE SMOOTH",
"560 63 LINE SMOOTH",
"560 78 OFFCURVE",
"551 87 OFFCURVE",
"536 87 CURVE SMOOTH",
"168 87 LINE",
"537 598 LINE SMOOTH",
"543 607 OFFCURVE",
"550 617 OFFCURVE",
"550 633 CURVE SMOOTH",
"550 676 LINE SMOOTH",
"550 690 OFFCURVE",
"540 700 OFFCURVE",
"526 700 CURVE SMOOTH",
"73 700 LINE SMOOTH",
"59 700 OFFCURVE",
"50 690 OFFCURVE",
"50 676 CURVE SMOOTH",
"50 636 LINE SMOOTH",
"50 623 OFFCURVE",
"59 613 OFFCURVE",
"73 613 CURVE SMOOTH",
"428 613 LINE",
"56 104 LINE SMOOTH",
"52 99 OFFCURVE",
"41 87 OFFCURVE",
"41 67 CURVE SMOOTH",
"41 24 LINE SMOOTH",
"41 10 OFFCURVE",
"50 0 OFFCURVE",
"64 0 CURVE SMOOTH"
);
}
);
width = 600.375;
}
);
leftKerningGroup = Z;
rightKerningGroup = Z;
unicode = 005A;
userData = {
com.typemytype.robofont.guides = (
{
angle = 0;
isGlobal = 0;
magnetic = 5;
x = 0;
y = 51;
},
{
angle = 0;
isGlobal = 0;
magnetic = 5;
x = 0;
y = 9;
},
{
angle = 0;
isGlobal = 0;
magnetic = 5;
x = 0;
y = 691;
},
{
angle = 0;
isGlobal = 0;
magnetic = 5;
x = 0;
y = 649;
},
{
angle = 90;
isGlobal = 0;
magnetic = 5;
x = 189;
y = 0;
},
{
angle = 90;
isGlobal = 0;
magnetic = 5;
x = 815;
y = 0;
},
{
angle = 90;
isGlobal = 0;
magnetic = 5;
x = 732;
y = 0;
},
{
angle = 90;
isGlobal = 0;
magnetic = 5;
x = "-431";
y = 0;
},
{
angle = 90;
isGlobal = 0;
magnetic = 5;
x = 74;
y = 0;
},
{
angle = 90;
isGlobal = 0;
magnetic = 5;
x = 541;
y = 0;
}
);
};
},
{
color = 5;
glyphname = a;
layers = (
{
anchors = (
{
name = bottom;
position = "{276, 0}";
},
{
name = ogonek;
position = "{481, 70}";
},
{
name = top;
position = "{273, 520}";
}
);
hints = (
{
horizontal = 1;
place = "{0, 0}";
type = Tag;
},
{
horizontal = 1;
place = "{0, 0}";
type = Tag;
}
);
layerId = "FF2DC345-5101-49B6-97F3-57A040F7C387";
paths = (
{
closed = 1;
nodes = (
"314 -10 OFFCURVE",
"365 30 OFFCURVE",
"390 66 CURVE",
"390 23 LINE SMOOTH",
"390 10 OFFCURVE",
"399 0 OFFCURVE",
"413 0 CURVE SMOOTH",
"459 0 LINE SMOOTH",
"473 0 OFFCURVE",
"482 10 OFFCURVE",
"482 23 CURVE SMOOTH",
"482 347 LINE SMOOTH",
"482 438 OFFCURVE",
"434 530 OFFCURVE",
"272 530 CURVE SMOOTH",
"129 530 OFFCURVE",
"73 440 OFFCURVE",
"72 400 CURVE SMOOTH",
"72 388 OFFCURVE",
"79 378 OFFCURVE",
"94 378 CURVE",
"139 378 LINE",
"149 378 OFFCURVE",
"156 384 OFFCURVE",
"160 393 CURVE SMOOTH",
"175 431 OFFCURVE",
"211 457 OFFCURVE",
"271 457 CURVE SMOOTH",
"353 457 OFFCURVE",
"388 419 OFFCURVE",
"388 355 CURVE SMOOTH",
"388 326 LINE",
"239 305 LINE SMOOTH",
"119 288 OFFCURVE",
"37 232 OFFCURVE",
"37 141 CURVE SMOOTH",
"37 56 OFFCURVE",
"120 -10 OFFCURVE",
"219 -10 CURVE SMOOTH"
);
},
{
closed = 1;
nodes = (
"185 65 OFFCURVE",
"129 92 OFFCURVE",
"129 148 CURVE SMOOTH",
"129 195 OFFCURVE",
"177 228 OFFCURVE",
"272 241 CURVE SMOOTH",
"388 258 LINE",
"388 230 LINE SMOOTH",
"388 118 OFFCURVE",
"322 65 OFFCURVE",
"240 65 CURVE SMOOTH"
);
}
);
width = 552.125;
}
);
leftKerningGroup = a;
rightKerningGroup = a;
unicode = 0061;
},
{
color = 5;
glyphname = ae;
layers = (
{
anchors = (
{
name = bottom;
position = "{446, 0}";
},
{
name = top;
position = "{448, 520}";
}
);
hints = (
{
horizontal = 1;
place = "{0, 0}";
type = Tag;
},
{
horizontal = 1;
place = "{0, 0}";
type = Tag;
},
{
horizontal = 1;
place = "{0, 0}";
type = Tag;
}
);
layerId = "FF2DC345-5101-49B6-97F3-57A040F7C387";
paths = (
{
closed = 1;
nodes = (
"314 -10 OFFCURVE",
"384 21 OFFCURVE",
"427 91 CURVE",
"461 31 OFFCURVE",
"521 -10 OFFCURVE",
"616 -10 CURVE SMOOTH",
"760 -10 OFFCURVE",
"831 83 OFFCURVE",
"831 117 CURVE SMOOTH",
"831 130 OFFCURVE",
"822 138 OFFCURVE",
"810 138 CURVE",
"765 138 LINE",
"749 138 OFFCURVE",
"745 136 OFFCURVE",
"734 121 CURVE SMOOTH",
"706 81 OFFCURVE",
"660 64 OFFCURVE",
"616 64 CURVE SMOOTH",
"554 64 OFFCURVE",
"487 106 OFFCURVE",
"484 220 CURVE",
"484 229 LINE",
"821 229 LINE",
"834 229 OFFCURVE",
"845 238 OFFCURVE",
"845 252 CURVE",
"845 269 LINE",
"845 379 OFFCURVE",
"805 530 OFFCURVE",
"617 530 CURVE SMOOTH",
"537 530 OFFCURVE",
"482 498 OFFCURVE",
"447 452 CURVE",
"421 496 OFFCURVE",
"369 530 OFFCURVE",
"273 530 CURVE SMOOTH",
"129 530 OFFCURVE",
"72 440 OFFCURVE",
"72 400 CURVE SMOOTH",
"72 388 OFFCURVE",
"82 378 OFFCURVE",
"94 378 CURVE",
"137 378 LINE",
"147 378 OFFCURVE",
"153 382 OFFCURVE",
"157 395 CURVE SMOOTH",
"172 422 OFFCURVE",
"206 457 OFFCURVE",
"272 457 CURVE SMOOTH",
"354 457 OFFCURVE",
"388 419 OFFCURVE",
"388 355 CURVE",
"388 328 LINE",
"240 307 LINE",
"120 290 OFFCURVE",
"38 232 OFFCURVE",
"38 141 CURVE SMOOTH",
"38 56 OFFCURVE",
"112 -10 OFFCURVE",
"224 -10 CURVE SMOOTH"
);
},
{
closed = 1;
nodes = (
"186 65 OFFCURVE",
"130 92 OFFCURVE",
"130 148 CURVE SMOOTH",
"130 195 OFFCURVE",
"178 228 OFFCURVE",
"273 241 CURVE",
"389 258 LINE",
"389 230 LINE",
"389 118 OFFCURVE",
"323 65 OFFCURVE",
"241 65 CURVE SMOOTH"
);
},
{
closed = 1;
nodes = (
"484 302 LINE",
"487 408 OFFCURVE",
"550 457 OFFCURVE",
"617 457 CURVE SMOOTH",
"707 457 OFFCURVE",
"749 391 OFFCURVE",
"749 302 CURVE",
"749 298 LINE",
"484 298 LINE"
);
}
);
width = 891.125;
}
);
leftKerningGroup = a;
rightKerningGroup = e;
unicode = 00E6;
userData = {
com.typemytype.robofont.guides = (
{
angle = 0;
isGlobal = 0;
magnetic = 5;
x = 0;
y = "-10";
},
{
angle = 0;
isGlobal = 0;
magnetic = 5;
x = 0;
y = 530;
},
{
angle = 90;
isGlobal = 0;
magnetic = 5;
x = 473;
y = 0;
},
{
angle = 90;
isGlobal = 0;
magnetic = 5;
x = "-379";
y = 0;
},
{
angle = 90;
isGlobal = 0;
magnetic = 5;
x = 453;
y = 0;
}
);
};
},
{
color = 5;
glyphname = b;
layers = (
{
anchors = (
{
name = bottom;
position = "{298, 0}";
},
{
name = top;
position = "{298, 750}";
}
);
hints = (
{
horizontal = 1;
place = "{0, 0}";
type = Tag;
},
{
horizontal = 1;
place = "{0, 0}";
type = Tag;
}
);
layerId = "FF2DC345-5101-49B6-97F3-57A040F7C387";
paths = (
{
closed = 1;
nodes = (
"479 -10 OFFCURVE",
"540 104 OFFCURVE",
"545 230 CURVE SMOOTH",
"546 252 OFFCURVE",
"546 268 OFFCURVE",
"545 290 CURVE SMOOTH",
"540 415 OFFCURVE",
"479 530 OFFCURVE",
"331 530 CURVE SMOOTH",
"253 530 OFFCURVE",
"202 498 OFFCURVE",
"169 457 CURVE",
"169 687 LINE SMOOTH",
"169 700 OFFCURVE",
"160 710 OFFCURVE",
"147 710 CURVE SMOOTH",
"98 710 LINE SMOOTH",
"85 710 OFFCURVE",
"75 700 OFFCURVE",
"75 687 CURVE SMOOTH",
"75 23 LINE SMOOTH",
"75 10 OFFCURVE",
"85 0 OFFCURVE",
"98 0 CURVE SMOOTH",
"144 0 LINE SMOOTH",
"157 0 OFFCURVE",
"167 10 OFFCURVE",
"167 23 CURVE SMOOTH",
"167 65 LINE",
"199 22 OFFCURVE",
"251 -10 OFFCURVE",
"331 -10 CURVE SMOOTH"
);
},
{
closed = 1;
nodes = (
"211 71 OFFCURVE",
"172 151 OFFCURVE",
"169 225 CURVE SMOOTH",
"168 246 OFFCURVE",
"168 280 OFFCURVE",
"169 302 CURVE SMOOTH",
"171 373 OFFCURVE",
"214 449 OFFCURVE",
"310 449 CURVE SMOOTH",
"412 449 OFFCURVE",
"445 374 OFFCURVE",
"449 289 CURVE SMOOTH",
"450 269 OFFCURVE",
"450 251 OFFCURVE",
"449 231 CURVE SMOOTH",
"445 146 OFFCURVE",
"412 71 OFFCURVE",
"310 71 CURVE SMOOTH"
);
}
);
width = 595.1875;
}
);
leftKerningGroup = h;
rightKerningGroup = b;
unicode = 0062;
userData = {
com.typemytype.robofont.guides = (
{
angle = 0;
isGlobal = 0;
magnetic = 5;
x = 0;
y = 530;
},
{
angle = 0;
isGlobal = 0;
magnetic = 5;
x = 0;
y = "-10";
},
{
angle = 0;
isGlobal = 0;
magnetic = 5;
x = 0;
y = 710;
},
{
angle = 0;
isGlobal = 0;
magnetic = 5;
x = 0;
y = 288;
},
{
angle = 0;
isGlobal = 0;
magnetic = 5;
x = 0;
y = 232;
},
{
angle = 0;
isGlobal = 0;
magnetic = 5;
x = 0;
y = 451;
},
{
angle = 0;
isGlobal = 0;
magnetic = 5;
x = 0;
y = 69;
},
{
angle = 90;
isGlobal = 0;
magnetic = 5;
x = 121;
y = 0;
},
{
angle = 90;
isGlobal = 0;
magnetic = 5;
x = 79;
y = 0;
}
);
};
},
{
color = 5;
glyphname = c;
layers = (
{
anchors = (
{
name = bottom;
position = "{276, 0}";
},
{
name = top;
position = "{279, 520}";
}
);
hints = (
{
horizontal = 1;
place = "{0, 0}";
type = Tag;
},
{
horizontal = 1;
place = "{0, 0}";
type = Tag;
}
);
layerId = "FF2DC345-5101-49B6-97F3-57A040F7C387";
paths = (
{
closed = 1;
nodes = (
"440 -10 OFFCURVE",
"504 89 OFFCURVE",
"507 156 CURVE SMOOTH",
"508 169 OFFCURVE",
"497 179 OFFCURVE",
"484 179 CURVE SMOOTH",
"436 179 LINE SMOOTH",
"422 179 OFFCURVE",
"417 173 OFFCURVE",
"411 158 CURVE SMOOTH",
"387 92 OFFCURVE",
"346 69 OFFCURVE",
"285 69 CURVE SMOOTH",
"205 69 OFFCURVE",
"151 115 OFFCURVE",
"147 225 CURVE SMOOTH",
"146 245 OFFCURVE",
"146 273 OFFCURVE",
"147 295 CURVE SMOOTH",
"151 404 OFFCURVE",
"205 451 OFFCURVE",
"285 451 CURVE SMOOTH",
"346 451 OFFCURVE",
"387 428 OFFCURVE",
"411 362 CURVE SMOOTH",
"417 347 OFFCURVE",
"422 342 OFFCURVE",
"436 342 CURVE SMOOTH",
"484 342 LINE SMOOTH",
"497 342 OFFCURVE",
"508 351 OFFCURVE",
"507 364 CURVE SMOOTH",
"504 433 OFFCURVE",
"438 530 OFFCURVE",
"284 530 CURVE SMOOTH",
"141 530 OFFCURVE",
"57 444 OFFCURVE",
"52 300 CURVE SMOOTH",
"51 279 OFFCURVE",
"51 240 OFFCURVE",
"52 220 CURVE SMOOTH",
"57 76 OFFCURVE",
"141 -10 OFFCURVE",
"284 -10 CURVE SMOOTH"
);
}
);
width = 552.125;
}
);
leftKerningGroup = o;
rightKerningGroup = c;
unicode = 0063;
userData = {
com.typemytype.robofont.guides = (
{
angle = 0;
isGlobal = 0;
magnetic = 5;
x = 0;
y = "-10";
},
{
angle = 0;
isGlobal = 0;
magnetic = 5;
x = 0;
y = 295;
},
{
angle = 0;
isGlobal = 0;
magnetic = 5;
x = 0;
y = 225;
},
{
angle = 90;
isGlobal = 0;
magnetic = 5;
x = 445;
y = 0;
},
{
angle = 90;
isGlobal = 0;
magnetic = 5;
x = 484;
y = 0;
},
{
angle = 90;
isGlobal = 0;
magnetic = 5;
x = 137;
y = 0;
},
{
angle = 90;
isGlobal = 0;
magnetic = 5;
x = 270;
y = 0;
}
);
};
},
{
color = 5;
glyphname = ccedilla;
layers = (
{
hints = (
{
horizontal = 1;
place = "{0, 0}";
type = Tag;
},
{
horizontal = 1;
place = "{0, 0}";
type = Tag;
}
);
layerId = "FF2DC345-5101-49B6-97F3-57A040F7C387";
paths = (
{
closed = 1;
nodes = (
"344 -221 OFFCURVE",
"377 -181 OFFCURVE",
"377 -132 CURVE SMOOTH",
"377 -83 OFFCURVE",
"345 -48 OFFCURVE",
"300 -48 CURVE SMOOTH",
"287 -48 OFFCURVE",
"271 -51 OFFCURVE",
"263 -56 CURVE",
"285 -10 LINE",
"440 -9 OFFCURVE",
"504 89 OFFCURVE",
"507 156 CURVE SMOOTH",
"508 169 OFFCURVE",
"497 179 OFFCURVE",
"484 179 CURVE",
"436 179 LINE",
"422 179 OFFCURVE",
"417 173 OFFCURVE",
"411 158 CURVE SMOOTH",
"387 92 OFFCURVE",
"346 69 OFFCURVE",
"285 69 CURVE SMOOTH",
"205 69 OFFCURVE",
"151 115 OFFCURVE",
"147 225 CURVE SMOOTH",
"146 245 OFFCURVE",
"146 273 OFFCURVE",
"147 295 CURVE SMOOTH",
"151 404 OFFCURVE",
"205 451 OFFCURVE",
"285 451 CURVE SMOOTH",
"346 451 OFFCURVE",
"387 428 OFFCURVE",
"411 362 CURVE SMOOTH",
"417 347 OFFCURVE",
"422 342 OFFCURVE",
"436 342 CURVE",
"484 342 LINE",
"497 342 OFFCURVE",
"508 351 OFFCURVE",
"507 364 CURVE SMOOTH",
"504 433 OFFCURVE",
"438 530 OFFCURVE",
"284 530 CURVE SMOOTH",
"141 530 OFFCURVE",
"57 444 OFFCURVE",
"52 300 CURVE SMOOTH",
"51 279 OFFCURVE",
"51 240 OFFCURVE",
"52 220 CURVE SMOOTH",
"56 95 OFFCURVE",
"120 13 OFFCURVE",
"230 -5 CURVE",
"210 -53 LINE",
"205 -64 OFFCURVE",
"199 -75 OFFCURVE",
"206 -83 CURVE",
"223 -101 LINE",
"238 -117 OFFCURVE",
"252 -98 OFFCURVE",
"282 -98 CURVE SMOOTH",
"304 -98 OFFCURVE",
"322 -111 OFFCURVE",
"322 -133 CURVE SMOOTH",
"322 -156 OFFCURVE",
"304 -170 OFFCURVE",
"282 -170 CURVE SMOOTH",
"240 -170 OFFCURVE",
"233 -139 OFFCURVE",
"216 -155 CURVE",
"201 -169 LINE",
"183 -185 OFFCURVE",
"226 -219 OFFCURVE",
"282 -220 CURVE SMOOTH"
);
}
);
width = 552.125;
}
);
leftKerningGroup = o;
rightKerningGroup = c;
unicode = 00E7;
},
{
color = 5;
glyphname = d;
layers = (
{
anchors = (
{
name = bottom;
position = "{298, 0}";
},
{
name = center;
position = "{443, 614}";
},
{
name = top;
position = "{298, 750}";
},
{
name = topright;
position = "{606, 710}";
}
);
hints = (
{
horizontal = 1;
place = "{0, 0}";
type = Tag;
},
{
horizontal = 1;
place = "{0, 0}";
type = Tag;
}
);
layerId = "FF2DC345-5101-49B6-97F3-57A040F7C387";
paths = (
{
closed = 1;
nodes = (
"345 -10 OFFCURVE",
"396 22 OFFCURVE",
"429 65 CURVE",
"429 23 LINE SMOOTH",
"429 10 OFFCURVE",
"438 0 OFFCURVE",
"452 0 CURVE SMOOTH",
"497 0 LINE SMOOTH",
"511 0 OFFCURVE",
"520 10 OFFCURVE",
"520 23 CURVE SMOOTH",
"520 687 LINE SMOOTH",
"520 700 OFFCURVE",
"511 710 OFFCURVE",
"497 710 CURVE SMOOTH",
"449 710 LINE SMOOTH",
"435 710 OFFCURVE",
"426 700 OFFCURVE",
"426 687 CURVE SMOOTH",
"426 457 LINE",
"393 498 OFFCURVE",
"342 530 OFFCURVE",
"264 530 CURVE SMOOTH",
"116 530 OFFCURVE",
"55 415 OFFCURVE",
"51 290 CURVE SMOOTH",
"50 268 OFFCURVE",
"50 252 OFFCURVE",
"51 230 CURVE SMOOTH",
"55 104 OFFCURVE",
"116 -10 OFFCURVE",
"264 -10 CURVE SMOOTH"
);
},
{
closed = 1;
nodes = (
"183 71 OFFCURVE",
"150 146 OFFCURVE",
"146 231 CURVE SMOOTH",
"145 251 OFFCURVE",
"145 269 OFFCURVE",
"146 289 CURVE SMOOTH",
"150 374 OFFCURVE",
"183 449 OFFCURVE",
"285 449 CURVE SMOOTH",
"381 449 OFFCURVE",
"424 373 OFFCURVE",
"426 302 CURVE SMOOTH",
"427 280 OFFCURVE",
"427 246 OFFCURVE",
"426 225 CURVE SMOOTH",
"423 151 OFFCURVE",
"384 71 OFFCURVE",
"285 71 CURVE SMOOTH"
);
}
);
width = 595.1875;
}
);
leftKerningGroup = d;
rightKerningGroup = d;
unicode = 0064;
userData = {
com.typemytype.robofont.guides = (
{
angle = 0;
isGlobal = 0;
magnetic = 5;
x = 0;
y = 650;
},
{
angle = 0;
isGlobal = 0;
magnetic = 5;
x = 0;
y = 530;
},
{
angle = 90;
isGlobal = 0;
magnetic = 5;
x = 438;
y = 0;
},
{
angle = 90;
isGlobal = 0;
magnetic = 5;
x = 499;
y = 0;
}
);
};
},
{
color = 5;
glyphname = eth;
layers = (
{
hints = (
{
horizontal = 1;
place = "{0, 0}";
type = Tag;
}
);
layerId = "FF2DC345-5101-49B6-97F3-57A040F7C387";
paths = (
{
closed = 1;
nodes = (
"430 -10 OFFCURVE",
"512 88 OFFCURVE",
"513 228 CURVE SMOOTH",
"514 233 OFFCURVE",
"514 238 OFFCURVE",
"513 243 CURVE SMOOTH",
"510 406 OFFCURVE",
"475 505 OFFCURVE",
"417 580 CURVE",
"475 602 LINE",
"491 608 OFFCURVE",
"497 613 OFFCURVE",
"497 629 CURVE",
"497 650 LINE",
"497 662 OFFCURVE",
"489 668 OFFCURVE",
"477 668 CURVE SMOOTH",
"474 668 OFFCURVE",
"470 667 OFFCURVE",
"465 665 CURVE",
"372 629 LINE",
"353 649 OFFCURVE",
"333 667 OFFCURVE",
"310 687 CURVE SMOOTH",
"300 695 OFFCURVE",
"289 700 OFFCURVE",
"271 700 CURVE",
"219 700 LINE",
"207 700 OFFCURVE",
"199 692 OFFCURVE",
"199 680 CURVE SMOOTH",
"199 675 OFFCURVE",
"202 668 OFFCURVE",
"215 658 CURVE SMOOTH",
"241 638 OFFCURVE",
"265 617 OFFCURVE",
"287 597 CURVE",
"222 572 LINE",
"206 566 OFFCURVE",
"200 561 OFFCURVE",
"200 545 CURVE",
"200 524 LINE",
"200 512 OFFCURVE",
"209 506 OFFCURVE",
"220 506 CURVE SMOOTH",
"223 506 OFFCURVE",
"227 507 OFFCURVE",
"232 509 CURVE",
"333 548 LINE",
"358 516 OFFCURVE",
"376 481 OFFCURVE",
"391 438 CURVE",
"362 459 OFFCURVE",
"325 470 OFFCURVE",
"281 470 CURVE SMOOTH",
"134 470 OFFCURVE",
"48 373 OFFCURVE",
"49 231 CURVE",
"48 89 OFFCURVE",
"131 -10 OFFCURVE",
"281 -10 CURVE SMOOTH"
);
},
{
closed = 1;
nodes = (
"190 67 OFFCURVE",
"146 135 OFFCURVE",
"144 222 CURVE SMOOTH",
"144 226 OFFCURVE",
"144 230 OFFCURVE",
"144 237 CURVE SMOOTH",
"145 324 OFFCURVE",
"189 393 OFFCURVE",
"281 393 CURVE SMOOTH",
"373 393 OFFCURVE",
"418 324 OFFCURVE",
"418 237 CURVE SMOOTH",
"418 231 OFFCURVE",
"418 228 OFFCURVE",
"418 223 CURVE SMOOTH",
"417 136 OFFCURVE",
"372 67 OFFCURVE",
"281 67 CURVE SMOOTH"
);
}
);
width = 566.5;
}
);
unicode = 00F0;
userData = {
com.typemytype.robofont.guides = (
{
angle = 0;
isGlobal = 0;
magnetic = 5;
x = 0;
y = 512;
},
{
angle = 90;
isGlobal = 0;
magnetic = 5;
x = 214;
y = 0;
},
{
angle = 90;
isGlobal = 0;
magnetic = 5;
x = 484;
y = 0;
}
);
};
},
{
color = 5;
glyphname = e;
layers = (
{
anchors = (
{
name = bottom;
position = "{280, 0}";
},
{
name = ogonek;
position = "{415, 51}";
},
{
name = top;
position = "{281, 520}";
}
);
hints = (
{
horizontal = 1;
place = "{0, 0}";
type = Tag;
}
);
layerId = "FF2DC345-5101-49B6-97F3-57A040F7C387";
paths = (
{
closed = 1;
nodes = (
"419 -10 OFFCURVE",
"498 77 OFFCURVE",
"500 117 CURVE SMOOTH",
"501 130 OFFCURVE",
"491 138 OFFCURVE",
"479 138 CURVE SMOOTH",
"430 138 LINE SMOOTH",
"415 138 OFFCURVE",
"412 137 OFFCURVE",
"400 121 CURVE SMOOTH",
"389 105 OFFCURVE",
"352 64 OFFCURVE",
"281 64 CURVE SMOOTH",
"197 64 OFFCURVE",
"149 138 OFFCURVE",
"145 220 CURVE SMOOTH",
"145 222 OFFCURVE",
"145 228 OFFCURVE",
"145 229 CURVE",
"491 229 LINE SMOOTH",
"504 229 OFFCURVE",
"514 238 OFFCURVE",
"514 252 CURVE SMOOTH",
"514 269 LINE SMOOTH",
"514 427 OFFCURVE",
"431 530 OFFCURVE",
"281 530 CURVE SMOOTH",
"144 530 OFFCURVE",
"59 436 OFFCURVE",
"50 294 CURVE SMOOTH",
"49 277 OFFCURVE",
"49 244 OFFCURVE",
"50 227 CURVE SMOOTH",
"58 81 OFFCURVE",
"144 -10 OFFCURVE",
"282 -10 CURVE SMOOTH"
);
},
{
closed = 1;
nodes = (
"145 301 LINE SMOOTH",
"145 391 OFFCURVE",
"195 457 OFFCURVE",
"281 457 CURVE SMOOTH",
"367 457 OFFCURVE",
"419 391 OFFCURVE",
"419 301 CURVE SMOOTH",
"419 298 LINE",
"145 298 LINE"
);
}
);
width = 560.4375;
}
);
leftKerningGroup = o;
rightKerningGroup = e;
unicode = 0065;
userData = {
com.typemytype.robofont.guides = (
{
angle = 0;
isGlobal = 0;
magnetic = 5;
x = 0;
y = "-10";
},
{
angle = 90;
isGlobal = 0;
magnetic = 5;
x = 275;
y = 0;
},
{
angle = 90;
isGlobal = 0;
magnetic = 5;
x = 496;
y = 0;
},
{
angle = 90;
isGlobal = 0;
magnetic = 5;
x = 61;
y = 0;
},
{
angle = 90;
isGlobal = 0;
magnetic = 5;
x = 122;
y = 0;
},
{
angle = 90;
isGlobal = 0;
magnetic = 5;
x = 430;
y = 0;
}
);
};
},
{
color = 5;
glyphname = f;
layers = (
{
anchors = (
{
name = bottom;
position = "{192, 0}";
},
{
name = top;
position = "{192, 718}";
}
);
hints = (
{
horizontal = 1;
place = "{0, 0}";
type = Tag;
}
);
layerId = "FF2DC345-5101-49B6-97F3-57A040F7C387";
paths = (
{
closed = 1;
nodes = (
"196 0 LINE SMOOTH",
"209 0 OFFCURVE",
"219 10 OFFCURVE",
"219 23 CURVE SMOOTH",
"219 440 LINE",
"348 440 LINE SMOOTH",
"361 440 OFFCURVE",
"371 450 OFFCURVE",
"371 463 CURVE SMOOTH",
"371 497 LINE SMOOTH",
"371 510 OFFCURVE",
"361 520 OFFCURVE",
"348 520 CURVE SMOOTH",
"219 520 LINE",
"219 565 LINE SMOOTH",
"219 626 OFFCURVE",
"237 660 OFFCURVE",
"300 660 CURVE SMOOTH",
"358 660 LINE SMOOTH",
"371 660 OFFCURVE",
"381 670 OFFCURVE",
"381 683 CURVE SMOOTH",
"381 717 LINE SMOOTH",
"381 730 OFFCURVE",
"371 740 OFFCURVE",
"358 740 CURVE SMOOTH",
"298 740 LINE SMOOTH",
"172 740 OFFCURVE",
"126 673 OFFCURVE",
"126 570 CURVE SMOOTH",
"126 520 LINE",
"41 520 LINE SMOOTH",
"28 520 OFFCURVE",
"18 510 OFFCURVE",
"18 497 CURVE SMOOTH",
"18 463 LINE SMOOTH",
"18 450 OFFCURVE",
"28 440 OFFCURVE",
"41 440 CURVE SMOOTH",
"126 440 LINE",
"126 23 LINE SMOOTH",
"126 10 OFFCURVE",
"136 0 OFFCURVE",
"149 0 CURVE SMOOTH"
);
}
);
width = 384.75;
}
);
leftKerningGroup = f;
rightKerningGroup = f;
unicode = 0066;
userData = {
com.typemytype.robofont.guides = (
{
angle = 0;
isGlobal = 0;
magnetic = 5;
x = 0;
y = 345;
},
{
angle = 0;
isGlobal = 0;
magnetic = 5;
x = 0;
y = 9;
},
{
angle = 0;
isGlobal = 0;
magnetic = 5;
x = 0;
y = 740;
},
{
angle = 90;
isGlobal = 0;
magnetic = 5;
x = 297;
y = 0;
},
{
angle = 90;
isGlobal = 0;
magnetic = 5;
x = 371;
y = 0;
}
);
};
},
{
color = 5;
glyphname = g;
layers = (
{
anchors = (
{
name = bottom;
position = "{299, -225}";
},
{
name = top;
position = "{287, 520}";
}
);
hints = (
{
horizontal = 1;
place = "{0, 0}";
type = Tag;
},
{
horizontal = 1;
place = "{0, 0}";
type = Tag;
},
{
horizontal = 1;
place = "{0, 0}";
type = Tag;
}
);
layerId = "FF2DC345-5101-49B6-97F3-57A040F7C387";
paths = (
{
closed = 1;
nodes = (
"461 -220 OFFCURVE",
"522 -124 OFFCURVE",
"522 11 CURVE SMOOTH",
"522 496 LINE SMOOTH",
"522 510 OFFCURVE",
"511 520 OFFCURVE",
"498 520 CURVE SMOOTH",
"452 520 LINE SMOOTH",
"439 520 OFFCURVE",
"429 510 OFFCURVE",
"429 496 CURVE SMOOTH",
"429 453 LINE",
"396 496 OFFCURVE",
"344 530 OFFCURVE",
"265 530 CURVE SMOOTH",
"115 530 OFFCURVE",
"55 415 OFFCURVE",
"51 290 CURVE SMOOTH",
"50 270 OFFCURVE",
"50 255 OFFCURVE",
"51 235 CURVE SMOOTH",
"55 109 OFFCURVE",
"115 -4 OFFCURVE",
"265 -4 CURVE SMOOTH",
"342 -4 OFFCURVE",
"394 27 OFFCURVE",
"426 68 CURVE",
"426 0 LINE SMOOTH",
"426 -111 OFFCURVE",
"376 -143 OFFCURVE",
"282 -143 CURVE SMOOTH",
"193 -143 OFFCURVE",
"168 -93 OFFCURVE",
"157 -64 CURVE SMOOTH",
"151 -47 OFFCURVE",
"143 -43 OFFCURVE",
"132 -43 CURVE SMOOTH",
"84 -43 LINE SMOOTH",
"72 -43 OFFCURVE",
"60 -54 OFFCURVE",
"61 -67 CURVE SMOOTH",
"64 -108 OFFCURVE",
"106 -220 OFFCURVE",
"287 -220 CURVE SMOOTH"
);
},
{
closed = 1;
nodes = (
"183 76 OFFCURVE",
"150 152 OFFCURVE",
"147 236 CURVE SMOOTH",
"146 254 OFFCURVE",
"146 271 OFFCURVE",
"147 289 CURVE SMOOTH",
"150 374 OFFCURVE",
"183 449 OFFCURVE",
"285 449 CURVE SMOOTH",
"384 449 OFFCURVE",
"423 370 OFFCURVE",
"426 297 CURVE",
"427 279 OFFCURVE",
"427 246 OFFCURVE",
"426 228 CURVE",
"423 156 OFFCURVE",
"384 76 OFFCURVE",
"285 76 CURVE SMOOTH"
);
}
);
width = 596.9375;
}
);
leftKerningGroup = g;
rightKerningGroup = u;
unicode = 0067;
userData = {
com.typemytype.robofont.guides = (
{
angle = 0;
isGlobal = 0;
magnetic = 5;
x = 0;
y = 530;
},
{
angle = 0;
isGlobal = 0;
magnetic = 5;
x = 0;
y = "-220";
},
{
angle = 0;
isGlobal = 0;
magnetic = 5;
x = 0;
y = 288;
},
{
angle = 0;
isGlobal = 0;
magnetic = 5;
x = 0;
y = 232;
},
{
angle = 90;
isGlobal = 0;
magnetic = 5;
x = 56;
y = 0;
},
{
angle = 90;
isGlobal = 0;
magnetic = 5;
x = 270;
y = 0;
}
);
};
},
{
color = 5;
glyphname = h;
layers = (
{
anchors = (
{
name = bottom;
position = "{305, 0}";
},
{
name = center;
position = "{151, 597}";
},
{
name = top;
position = "{306, 675}";
}
);
layerId = "FF2DC345-5101-49B6-97F3-57A040F7C387";
paths = (
{
closed = 1;
nodes = (
"148 0 LINE SMOOTH",
"162 0 OFFCURVE",
"171 10 OFFCURVE",
"171 23 CURVE SMOOTH",
"171 300 LINE SMOOTH",
"171 394 OFFCURVE",
"226 449 OFFCURVE",
"309 449 CURVE SMOOTH",
"397 449 OFFCURVE",
"443 393 OFFCURVE",
"443 300 CURVE SMOOTH",
"443 23 LINE SMOOTH",
"443 10 OFFCURVE",
"453 0 OFFCURVE",
"466 0 CURVE SMOOTH",
"516 0 LINE SMOOTH",
"530 0 OFFCURVE",
"539 10 OFFCURVE",
"539 23 CURVE SMOOTH",
"539 305 LINE SMOOTH",
"539 438 OFFCURVE",
"466 530 OFFCURVE",
"336 530 CURVE SMOOTH",
"255 530 OFFCURVE",
"207 500 OFFCURVE",
"171 454 CURVE",
"171 687 LINE SMOOTH",
"171 700 OFFCURVE",
"162 710 OFFCURVE",
"148 710 CURVE SMOOTH",
"98 710 LINE SMOOTH",
"85 710 OFFCURVE",
"75 700 OFFCURVE",
"75 687 CURVE SMOOTH",
"75 23 LINE SMOOTH",
"75 10 OFFCURVE",
"85 0 OFFCURVE",
"98 0 CURVE SMOOTH"
);
}
);
width = 608.625;
}
);
leftKerningGroup = h;
rightKerningGroup = n;
unicode = 0068;
userData = {
com.typemytype.robofont.guides = (
{
angle = 0;
isGlobal = 0;
magnetic = 5;
x = 0;
y = 9;
},
{
angle = 0;
isGlobal = 0;
magnetic = 5;
x = 0;
y = 301;
},
{
angle = 0;
isGlobal = 0;
magnetic = 5;
x = 0;
y = 414;
},
{
angle = 0;
isGlobal = 0;
magnetic = 5;
x = 0;
y = 710;
},
{
angle = 90;
isGlobal = 0;
magnetic = 5;
x = 79;
y = 0;
},
{
angle = 90;
isGlobal = 0;
magnetic = 5;
x = 291;
y = 0;
}
);
};
},
{
color = 5;
glyphname = i;
layers = (
{
anchors = (
{
name = bottom;
position = "{121, 0}";
},
{
name = top;
position = "{122, 722}";
}
);
hints = (
{
horizontal = 1;
place = "{0, 0}";
type = Tag;
}
);
layerId = "FF2DC345-5101-49B6-97F3-57A040F7C387";
paths = (
{
closed = 1;
nodes = (
"145 0 LINE SMOOTH",
"158 0 OFFCURVE",
"168 10 OFFCURVE",
"168 23 CURVE SMOOTH",
"168 497 LINE SMOOTH",
"168 510 OFFCURVE",
"158 520 OFFCURVE",
"145 520 CURVE SMOOTH",
"97 520 LINE SMOOTH",
"84 520 OFFCURVE",
"74 510 OFFCURVE",
"74 497 CURVE SMOOTH",
"74 23 LINE SMOOTH",
"74 10 OFFCURVE",
"84 0 OFFCURVE",
"97 0 CURVE SMOOTH"
);
},
{
closed = 1;
nodes = (
"152 617 LINE SMOOTH",
"165 617 OFFCURVE",
"176 627 OFFCURVE",
"176 640 CURVE SMOOTH",
"176 694 LINE SMOOTH",
"176 707 OFFCURVE",
"165 718 OFFCURVE",
"152 718 CURVE SMOOTH",
"89 718 LINE SMOOTH",
"76 718 OFFCURVE",
"66 707 OFFCURVE",
"66 694 CURVE SMOOTH",
"66 640 LINE SMOOTH",
"66 627 OFFCURVE",
"76 617 OFFCURVE",
"89 617 CURVE SMOOTH"
);
}
);
width = 241.75;
}
);
leftKerningGroup = i;
rightKerningGroup = i;
unicode = 0069;
userData = {
com.typemytype.robofont.guides = (
{
angle = 0;
isGlobal = 0;
magnetic = 5;
x = 0;
y = 510;
},
{
angle = 0;
isGlobal = 0;
magnetic = 5;
x = 0;
y = 22;
},
{
angle = 0;
isGlobal = 0;
magnetic = 5;
x = 0;
y = 627;
},
{
angle = 90;
isGlobal = 0;
magnetic = 5;
x = 79;
y = 0;
},
{
angle = 90;
isGlobal = 0;
magnetic = 5;
x = 121;
y = 0;
},
{
angle = 90;
isGlobal = 0;
magnetic = 5;
x = 70;
y = 0;
},
{
angle = 90;
isGlobal = 0;
magnetic = 5;
x = 131;
y = 0;
}
);
};
},
{
color = 5;
glyphname = idotless;
layers = (
{
anchors = (
{
name = bottom;
position = "{121, 0}";
},
{
name = ogonek;
position = "{169, 48}";
},
{
name = top;
position = "{121, 520}";
}
);
hints = (
{
horizontal = 1;
place = "{0, 0}";
type = Tag;
}
);
layerId = "FF2DC345-5101-49B6-97F3-57A040F7C387";
paths = (
{
closed = 1;
nodes = (
"145 0 LINE SMOOTH",
"158 0 OFFCURVE",
"168 10 OFFCURVE",
"168 23 CURVE SMOOTH",
"168 497 LINE SMOOTH",
"168 510 OFFCURVE",
"158 520 OFFCURVE",
"145 520 CURVE SMOOTH",
"97 520 LINE SMOOTH",
"84 520 OFFCURVE",
"74 510 OFFCURVE",
"74 497 CURVE SMOOTH",
"74 23 LINE SMOOTH",
"74 10 OFFCURVE",
"84 0 OFFCURVE",
"97 0 CURVE SMOOTH"
);
}
);
width = 241.75;
}
);
leftKerningGroup = i;
rightKerningGroup = i;
unicode = 0131;
},
{
color = 5;
glyphname = j;
layers = (
{
anchors = (
{
name = top;
position = "{131, 722}";
}
);
layerId = "FF2DC345-5101-49B6-97F3-57A040F7C387";
paths = (
{
closed = 1;
nodes = (
"8 -190 LINE SMOOTH",
"135 -190 OFFCURVE",
"179 -117 OFFCURVE",
"179 -12 CURVE SMOOTH",
"179 497 LINE SMOOTH",
"179 510 OFFCURVE",
"169 520 OFFCURVE",
"156 520 CURVE SMOOTH",
"107 520 LINE SMOOTH",
"94 520 OFFCURVE",
"84 510 OFFCURVE",
"84 497 CURVE SMOOTH",
"84 -11 LINE SMOOTH",
"84 -67 OFFCURVE",
"74 -110 OFFCURVE",
"3 -110 CURVE SMOOTH",
"-11 -110 LINE SMOOTH",
"-25 -110 OFFCURVE",
"-34 -120 OFFCURVE",
"-34 -133 CURVE SMOOTH",
"-34 -167 LINE SMOOTH",
"-34 -180 OFFCURVE",
"-25 -190 OFFCURVE",
"-11 -190 CURVE SMOOTH"
);
},
{
closed = 1;
nodes = (
"163 617 LINE SMOOTH",
"177 617 OFFCURVE",
"187 627 OFFCURVE",
"187 640 CURVE SMOOTH",
"187 694 LINE SMOOTH",
"187 707 OFFCURVE",
"177 718 OFFCURVE",
"163 718 CURVE SMOOTH",
"99 718 LINE SMOOTH",
"86 718 OFFCURVE",
"76 707 OFFCURVE",
"76 694 CURVE SMOOTH",
"76 640 LINE SMOOTH",
"76 627 OFFCURVE",
"86 617 OFFCURVE",
"99 617 CURVE SMOOTH"
);
}
);
width = 254;
}
);
rightKerningGroup = i;
unicode = 006A;
userData = {
com.typemytype.robofont.guides = (
{
angle = 0;
isGlobal = 0;
magnetic = 5;
x = 0;
y = 740;
},
{
angle = 0;
isGlobal = 0;
magnetic = 5;
x = 0;
y = "-190";
},
{
angle = 90;
isGlobal = 0;
magnetic = 5;
x = "-46";
y = 0;
}
);
};
},
{
color = 5;
glyphname = k;
layers = (
{
anchors = (
{
name = bottom;
position = "{259, 0}";
},
{
name = top;
position = "{259, 750}";
}
);
hints = (
{
horizontal = 1;
place = "{0, 0}";
type = Tag;
}
);
layerId = "FF2DC345-5101-49B6-97F3-57A040F7C387";
paths = (
{
closed = 1;
nodes = (
"145 0 LINE SMOOTH",
"158 0 OFFCURVE",
"168 10 OFFCURVE",
"168 23 CURVE SMOOTH",
"168 230 LINE",
"391 17 LINE SMOOTH",
"406 3 OFFCURVE",
"411 0 OFFCURVE",
"431 0 CURVE SMOOTH",
"483 0 LINE SMOOTH",
"495 0 OFFCURVE",
"504 9 OFFCURVE",
"504 21 CURVE SMOOTH",
"504 26 OFFCURVE",
"500 32 OFFCURVE",
"492 39 CURVE SMOOTH",
"236 288 LINE",
"467 480 LINE SMOOTH",
"476 486 OFFCURVE",
"479 494 OFFCURVE",
"479 499 CURVE SMOOTH",
"479 511 OFFCURVE",
"470 520 OFFCURVE",
"458 520 CURVE SMOOTH",
"405 520 LINE SMOOTH",
"385 520 OFFCURVE",
"381 515 OFFCURVE",
"365 503 CURVE SMOOTH",
"168 339 LINE",
"168 687 LINE SMOOTH",
"168 700 OFFCURVE",
"158 710 OFFCURVE",
"145 710 CURVE SMOOTH",
"98 710 LINE SMOOTH",
"85 710 OFFCURVE",
"75 700 OFFCURVE",
"75 687 CURVE SMOOTH",
"75 23 LINE SMOOTH",
"75 10 OFFCURVE",
"85 0 OFFCURVE",
"98 0 CURVE SMOOTH"
);
}
);
width = 516.25;
}
);
leftKerningGroup = h;
rightKerningGroup = k;
unicode = 006B;
userData = {
com.typemytype.robofont.guides = (
{
angle = 0;
isGlobal = 0;
magnetic = 5;
x = 0;
y = 520;
},
{
angle = 0;
isGlobal = 0;
magnetic = 5;
x = 0;
y = 710;
},
{
angle = 0;
isGlobal = 0;
magnetic = 5;
x = 0;
y = 260;
},
{
angle = 90;
isGlobal = 0;
magnetic = 5;
x = 460;
y = 0;
},
{
angle = 90;
isGlobal = 0;
magnetic = 5;
x = 430;
y = 0;
}
);
};
},
{
color = 5;
glyphname = l;
layers = (
{
anchors = (
{
name = bottom;
position = "{122, 0}";
},
{
name = center;
position = "{122, 375}";
},
{
name = top;
position = "{122, 676}";
},
{
name = topright;
position = "{253, 710}";
}
);
layerId = "FF2DC345-5101-49B6-97F3-57A040F7C387";
paths = (
{
closed = 1;
nodes = (
"145 0 LINE SMOOTH",
"159 0 OFFCURVE",
"168 10 OFFCURVE",
"168 23 CURVE SMOOTH",
"168 687 LINE SMOOTH",
"168 700 OFFCURVE",
"159 710 OFFCURVE",
"145 710 CURVE SMOOTH",
"98 710 LINE SMOOTH",
"85 710 OFFCURVE",
"75 700 OFFCURVE",
"75 687 CURVE SMOOTH",
"75 23 LINE SMOOTH",
"75 10 OFFCURVE",
"85 0 OFFCURVE",
"98 0 CURVE SMOOTH"
);
}
);
width = 243.375;
}
);
leftKerningGroup = l;
rightKerningGroup = l;
unicode = 006C;
userData = {
com.typemytype.robofont.guides = (
{
angle = 0;
isGlobal = 0;
magnetic = 5;
x = 0;
y = 9;
},
{
angle = 0;
isGlobal = 0;
magnetic = 5;
x = 0;
y = 710;
}
);
};
},
{
color = 5;
glyphname = m;
layers = (
{
anchors = (
{
name = bottom;
position = "{445, 0}";
},
{
name = top;
position = "{445, 520}";
}
);
hints = (
{
horizontal = 1;
place = "{0, 0}";
type = Tag;
},
{
horizontal = 1;
place = "{0, 0}";
type = Tag;
}
);
layerId = "FF2DC345-5101-49B6-97F3-57A040F7C387";
paths = (
{
closed = 1;
nodes = (
"145 0 LINE SMOOTH",
"158 0 OFFCURVE",
"168 10 OFFCURVE",
"168 23 CURVE SMOOTH",
"168 304 LINE SMOOTH",
"168 415 OFFCURVE",
"229 449 OFFCURVE",
"283 449 CURVE SMOOTH",
"342 449 OFFCURVE",
"401 415 OFFCURVE",
"401 303 CURVE SMOOTH",
"401 23 LINE SMOOTH",
"401 10 OFFCURVE",
"411 0 OFFCURVE",
"424 0 CURVE SMOOTH",
"471 0 LINE SMOOTH",
"484 0 OFFCURVE",
"494 10 OFFCURVE",
"494 23 CURVE SMOOTH",
"494 303 LINE SMOOTH",
"494 415 OFFCURVE",
"555 449 OFFCURVE",
"609 449 CURVE SMOOTH",
"673 449 OFFCURVE",
"727 415 OFFCURVE",
"727 303 CURVE SMOOTH",
"727 23 LINE SMOOTH",
"727 10 OFFCURVE",
"737 0 OFFCURVE",
"750 0 CURVE SMOOTH",
"797 0 LINE SMOOTH",
"810 0 OFFCURVE",
"820 10 OFFCURVE",
"820 23 CURVE SMOOTH",
"820 312 LINE SMOOTH",
"820 458 OFFCURVE",
"739 530 OFFCURVE",
"634 530 CURVE SMOOTH",
"560 530 OFFCURVE",
"498 493 OFFCURVE",
"467 438 CURVE",
"437 499 OFFCURVE",
"383 531 OFFCURVE",
"307 530 CURVE SMOOTH",
"241 529 OFFCURVE",
"196 503 OFFCURVE",
"165 462 CURVE",
"165 497 LINE SMOOTH",
"165 510 OFFCURVE",
"155 520 OFFCURVE",
"142 520 CURVE SMOOTH",
"97 520 LINE SMOOTH",
"84 520 OFFCURVE",
"74 510 OFFCURVE",
"74 497 CURVE SMOOTH",
"74 23 LINE SMOOTH",
"74 10 OFFCURVE",
"84 0 OFFCURVE",
"97 0 CURVE SMOOTH"
);
}
);
width = 889.25;
}
);
leftKerningGroup = n;
rightKerningGroup = n;
unicode = 006D;
},
{
color = 5;
glyphname = n;
layers = (
{
anchors = (
{
name = bottom;
position = "{306, 0}";
},
{
name = top;
position = "{305, 520}";
}
);
hints = (
{
horizontal = 1;
place = "{0, 0}";
type = Tag;
},
{
horizontal = 1;
place = "{0, 0}";
type = Tag;
}
);
layerId = "FF2DC345-5101-49B6-97F3-57A040F7C387";
paths = (
{
closed = 1;
nodes = (
"147 0 LINE SMOOTH",
"160 0 OFFCURVE",
"170 10 OFFCURVE",
"170 23 CURVE SMOOTH",
"170 300 LINE SMOOTH",
"170 394 OFFCURVE",
"224 449 OFFCURVE",
"307 449 CURVE SMOOTH",
"395 449 OFFCURVE",
"441 393 OFFCURVE",
"441 300 CURVE SMOOTH",
"441 23 LINE SMOOTH",
"441 10 OFFCURVE",
"451 0 OFFCURVE",
"464 0 CURVE SMOOTH",
"514 0 LINE SMOOTH",
"527 0 OFFCURVE",
"537 10 OFFCURVE",
"537 23 CURVE SMOOTH",
"537 305 LINE SMOOTH",
"537 438 OFFCURVE",
"464 530 OFFCURVE",
"334 530 CURVE SMOOTH",
"251 530 OFFCURVE",
"202 498 OFFCURVE",
"167 453 CURVE",
"167 497 LINE SMOOTH",
"167 510 OFFCURVE",
"157 520 OFFCURVE",
"144 520 CURVE SMOOTH",
"97 520 LINE SMOOTH",
"84 520 OFFCURVE",
"74 510 OFFCURVE",
"74 497 CURVE SMOOTH",
"74 23 LINE SMOOTH",
"74 10 OFFCURVE",
"84 0 OFFCURVE",
"97 0 CURVE SMOOTH"
);
}
);
width = 605.75;
}
);
leftKerningGroup = n;
rightKerningGroup = n;
unicode = 006E;
userData = {
com.typemytype.robofont.guides = (
{
angle = 0;
isGlobal = 0;
magnetic = 5;
x = 0;
y = 530;
},
{
angle = 0;
isGlobal = 0;
magnetic = 5;
x = 0;
y = 301;
},
{
angle = 0;
isGlobal = 0;
magnetic = 5;
x = 0;
y = 650;
},
{
angle = 0;
isGlobal = 0;
magnetic = 5;
x = 0;
y = 407;
},
{
angle = 0;
isGlobal = 0;
magnetic = 5;
x = 0;
y = 451;
},
{
angle = 90;
isGlobal = 0;
magnetic = 5;
x = 291;
y = 0;
},
{
angle = 90;
isGlobal = 0;
magnetic = 5;
x = 131;
y = 0;
}
);
};
},
{
color = 5;
glyphname = o;
layers = (
{
anchors = (
{
name = bottom;
position = "{287, 0}";
},
{
name = center;
position = "{287, 260}";
},
{
name = ogonek;
position = "{516, 10}";
},
{
name = top;
position = "{287, 520}";
},
{
name = topright;
position = "{554, 520}";
}
);
hints = (
{
horizontal = 1;
place = "{0, 0}";
type = Tag;
}
);
layerId = "FF2DC345-5101-49B6-97F3-57A040F7C387";
paths = (
{
closed = 1;
nodes = (
"438 -10 OFFCURVE",
"517 85 OFFCURVE",
"522 217 CURVE SMOOTH",
"523 239 OFFCURVE",
"523 281 OFFCURVE",
"522 303 CURVE SMOOTH",
"517 435 OFFCURVE",
"436 530 OFFCURVE",
"287 530 CURVE SMOOTH",
"137 530 OFFCURVE",
"57 435 OFFCURVE",
"52 303 CURVE SMOOTH",
"51 281 OFFCURVE",
"51 239 OFFCURVE",
"52 217 CURVE SMOOTH",
"57 85 OFFCURVE",
"135 -10 OFFCURVE",
"287 -10 CURVE SMOOTH"
);
},
{
closed = 1;
nodes = (
"204 67 OFFCURVE",
"151 121 OFFCURVE",
"148 222 CURVE SMOOTH",
"147 242 OFFCURVE",
"147 278 OFFCURVE",
"148 298 CURVE SMOOTH",
"151 399 OFFCURVE",
"204 453 OFFCURVE",
"287 453 CURVE SMOOTH",
"370 453 OFFCURVE",
"422 399 OFFCURVE",
"426 298 CURVE SMOOTH",
"427 278 OFFCURVE",
"427 242 OFFCURVE",
"426 222 CURVE SMOOTH",
"422 121 OFFCURVE",
"370 67 OFFCURVE",
"287 67 CURVE SMOOTH"
);
}
);
width = 573.75;
}
);
leftKerningGroup = o;
rightKerningGroup = o;
unicode = 006F;
userData = {
com.typemytype.robofont.guides = (
{
angle = 0;
isGlobal = 0;
magnetic = 5;
x = 0;
y = 302;
},
{
angle = 0;
isGlobal = 0;
magnetic = 5;
x = 0;
y = 218;
},
{
angle = 0;
isGlobal = 0;
magnetic = 5;
x = 0;
y = 411;
},
{
angle = 0;
isGlobal = 0;
magnetic = 5;
x = 0;
y = 109;
},
{
angle = 90;
isGlobal = 0;
magnetic = 5;
x = 278;
y = 0;
},
{
angle = 90;
isGlobal = 0;
magnetic = 5;
x = 56;
y = 0;
},
{
angle = 90;
isGlobal = 0;
magnetic = 5;
x = 500;
y = 0;
}
);
};
},
{
color = 5;
glyphname = oe;
layers = (
{
anchors = (
{
name = bottom;
position = "{469, 0}";
},
{
name = top;
position = "{469, 520}";
}
);
hints = (
{
horizontal = 1;
place = "{0, 0}";
type = Tag;
},
{
horizontal = 1;
place = "{0, 0}";
type = Tag;
},
{
horizontal = 1;
place = "{0, 0}";
type = Tag;
},
{
horizontal = 1;
place = "{0, 0}";
type = Tag;
}
);
layerId = "FF2DC345-5101-49B6-97F3-57A040F7C387";
paths = (
{
closed = 1;
nodes = (
"379 -10 OFFCURVE",
"442 27 OFFCURVE",
"477 86 CURVE",
"515 26 OFFCURVE",
"578 -10 OFFCURVE",
"661 -10 CURVE SMOOTH",
"794 -10 OFFCURVE",
"872 77 OFFCURVE",
"875 117 CURVE SMOOTH",
"876 130 OFFCURVE",
"866 138 OFFCURVE",
"853 138 CURVE SMOOTH",
"805 138 LINE SMOOTH",
"790 138 OFFCURVE",
"786 137 OFFCURVE",
"774 121 CURVE SMOOTH",
"763 105 OFFCURVE",
"727 64 OFFCURVE",
"660 64 CURVE SMOOTH",
"576 64 OFFCURVE",
"528 138 OFFCURVE",
"524 220 CURVE SMOOTH",
"524 229 LINE",
"870 229 LINE SMOOTH",
"883 229 OFFCURVE",
"893 238 OFFCURVE",
"893 252 CURVE SMOOTH",
"893 269 LINE SMOOTH",
"893 427 OFFCURVE",
"810 530 OFFCURVE",
"660 530 CURVE SMOOTH",
"577 530 OFFCURVE",
"515 493 OFFCURVE",
"478 432 CURVE",
"442 492 OFFCURVE",
"378 530 OFFCURVE",
"288 530 CURVE SMOOTH",
"138 530 OFFCURVE",
"58 435 OFFCURVE",
"53 303 CURVE SMOOTH",
"52 281 OFFCURVE",
"52 239 OFFCURVE",
"53 217 CURVE SMOOTH",
"58 85 OFFCURVE",
"136 -10 OFFCURVE",
"288 -10 CURVE SMOOTH"
);
},
{
closed = 1;
nodes = (
"205 67 OFFCURVE",
"152 121 OFFCURVE",
"148 222 CURVE SMOOTH",
"147 242 OFFCURVE",
"147 278 OFFCURVE",
"148 298 CURVE SMOOTH",
"152 399 OFFCURVE",
"205 453 OFFCURVE",
"288 453 CURVE SMOOTH",
"370 453 OFFCURVE",
"423 399 OFFCURVE",
"427 298 CURVE SMOOTH",
"428 278 OFFCURVE",
"428 242 OFFCURVE",
"427 222 CURVE SMOOTH",
"423 121 OFFCURVE",
"370 67 OFFCURVE",
"288 67 CURVE SMOOTH"
);
},
{
closed = 1;
nodes = (
"524 301 LINE SMOOTH",
"524 391 OFFCURVE",
"574 457 OFFCURVE",
"660 457 CURVE SMOOTH",
"746 457 OFFCURVE",
"798 391 OFFCURVE",
"798 301 CURVE SMOOTH",
"798 298 LINE",
"524 298 LINE"
);
}
);
width = 937;
}
);
leftKerningGroup = o;
rightKerningGroup = e;
unicode = 0153;
userData = {
com.typemytype.robofont.guides = (
{
angle = 90;
isGlobal = 0;
magnetic = 5;
x = 51;
y = 0;
},
{
angle = 90;
isGlobal = 0;
magnetic = 5;
x = 495;
y = 0;
}
);
};
},
{
color = 5;
glyphname = p;
layers = (
{
anchors = (
{
name = bottom;
position = "{299, 0}";
},
{
name = top;
position = "{299, 520}";
}
);
hints = (
{
horizontal = 1;
place = "{0, 0}";
type = Tag;
},
{
horizontal = 1;
place = "{0, 0}";
type = Tag;
}
);
layerId = "FF2DC345-5101-49B6-97F3-57A040F7C387";
paths = (
{
closed = 1;
nodes = (
"147 -190 LINE SMOOTH",
"160 -190 OFFCURVE",
"169 -180 OFFCURVE",
"169 -167 CURVE SMOOTH",
"169 65 LINE",
"202 22 OFFCURVE",
"253 -10 OFFCURVE",
"331 -10 CURVE SMOOTH",
"479 -10 OFFCURVE",
"540 101 OFFCURVE",
"545 226 CURVE SMOOTH",
"546 248 OFFCURVE",
"546 272 OFFCURVE",
"545 294 CURVE SMOOTH",
"540 421 OFFCURVE",
"479 530 OFFCURVE",
"331 530 CURVE SMOOTH",
"251 530 OFFCURVE",
"199 497 OFFCURVE",
"167 453 CURVE",
"167 497 LINE SMOOTH",
"167 510 OFFCURVE",
"157 520 OFFCURVE",
"144 520 CURVE SMOOTH",
"98 520 LINE SMOOTH",
"85 520 OFFCURVE",
"75 510 OFFCURVE",
"75 497 CURVE SMOOTH",
"75 -167 LINE SMOOTH",
"75 -180 OFFCURVE",
"85 -190 OFFCURVE",
"98 -190 CURVE SMOOTH"
);
},
{
closed = 1;
nodes = (
"214 71 OFFCURVE",
"171 147 OFFCURVE",
"169 218 CURVE SMOOTH",
"168 240 OFFCURVE",
"168 274 OFFCURVE",
"169 295 CURVE SMOOTH",
"172 369 OFFCURVE",
"211 449 OFFCURVE",
"310 449 CURVE SMOOTH",
"412 449 OFFCURVE",
"445 374 OFFCURVE",
"449 289 CURVE SMOOTH",
"450 269 OFFCURVE",
"450 251 OFFCURVE",
"449 231 CURVE SMOOTH",
"445 146 OFFCURVE",
"412 71 OFFCURVE",
"310 71 CURVE SMOOTH"
);
}
);
width = 596;
}
);
leftKerningGroup = n;
rightKerningGroup = b;
unicode = 0070;
userData = {
com.typemytype.robofont.guides = (
{
angle = 0;
isGlobal = 0;
magnetic = 5;
x = 0;
y = 530;
},
{
angle = 0;
isGlobal = 0;
magnetic = 5;
x = 0;
y = "-10";
},
{
angle = 0;
isGlobal = 0;
magnetic = 5;
x = 0;
y = 422;
},
{
angle = 0;
isGlobal = 0;
magnetic = 5;
x = 0;
y = "-190";
},
{
angle = 90;
isGlobal = 0;
magnetic = 5;
x = 419;
y = 0;
},
{
angle = 90;
isGlobal = 0;
magnetic = 5;
x = "-609";
y = 0;
},
{
angle = 90;
isGlobal = 0;
magnetic = 5;
x = 79;
y = 0;
},
{
angle = 90;
isGlobal = 0;
magnetic = 5;
x = 122;
y = 0;
},
{
angle = 90;
isGlobal = 0;
magnetic = 5;
x = 291;
y = 0;
}
);
};
},
{
color = 5;
glyphname = thorn;
layers = (
{
anchors = (
{
name = bottom;
position = "{299, 0}";
},
{
name = top;
position = "{299, 520}";
}
);
hints = (
{
horizontal = 1;
place = "{0, 0}";
type = Tag;
}
);
layerId = "FF2DC345-5101-49B6-97F3-57A040F7C387";
paths = (
{
closed = 1;
nodes = (
"147 -190 LINE SMOOTH",
"160 -190 OFFCURVE",
"170 -180 OFFCURVE",
"170 -167 CURVE SMOOTH",
"170 65 LINE",
"202 22 OFFCURVE",
"253 -10 OFFCURVE",
"331 -10 CURVE SMOOTH",
"480 -10 OFFCURVE",
"540 101 OFFCURVE",
"545 226 CURVE SMOOTH",
"546 248 OFFCURVE",
"546 272 OFFCURVE",
"545 294 CURVE SMOOTH",
"540 421 OFFCURVE",
"480 530 OFFCURVE",
"331 530 CURVE SMOOTH",
"251 530 OFFCURVE",
"202 499 OFFCURVE",
"170 455 CURVE",
"170 687 LINE SMOOTH",
"170 700 OFFCURVE",
"160 710 OFFCURVE",
"147 710 CURVE SMOOTH",
"98 710 LINE SMOOTH",
"85 710 OFFCURVE",
"75 700 OFFCURVE",
"75 687 CURVE SMOOTH",
"75 -167 LINE SMOOTH",
"75 -180 OFFCURVE",
"85 -190 OFFCURVE",
"98 -190 CURVE SMOOTH"
);
},
{
closed = 1;
nodes = (
"214 71 OFFCURVE",
"172 147 OFFCURVE",
"170 218 CURVE SMOOTH",
"168 240 OFFCURVE",
"168 274 OFFCURVE",
"170 295 CURVE SMOOTH",
"172 369 OFFCURVE",
"211 449 OFFCURVE",
"311 449 CURVE SMOOTH",
"413 449 OFFCURVE",
"445 374 OFFCURVE",
"449 289 CURVE SMOOTH",
"450 269 OFFCURVE",
"450 251 OFFCURVE",
"449 231 CURVE SMOOTH",
"445 146 OFFCURVE",
"413 71 OFFCURVE",
"311 71 CURVE SMOOTH"
);
}
);
width = 596.1875;
}
);
leftKerningGroup = h;
rightKerningGroup = b;
unicode = 00FE;
userData = {
com.typemytype.robofont.guides = (
{
angle = 0;
isGlobal = 0;
magnetic = 5;
x = 0;
y = 710;
}
);
};
},
{
color = 5;
glyphname = q;
layers = (
{
anchors = (
{
name = bottom;
position = "{299, 0}";
},
{
name = top;
position = "{299, 520}";
}
);
hints = (
{
horizontal = 1;
place = "{0, 0}";
type = Tag;
},
{
horizontal = 1;
place = "{0, 0}";
type = Tag;
}
);
layerId = "FF2DC345-5101-49B6-97F3-57A040F7C387";
paths = (
{
closed = 1;
nodes = (
"498 -190 LINE SMOOTH",
"511 -190 OFFCURVE",
"521 -180 OFFCURVE",
"521 -167 CURVE SMOOTH",
"521 497 LINE SMOOTH",
"521 510 OFFCURVE",
"511 520 OFFCURVE",
"498 520 CURVE SMOOTH",
"452 520 LINE SMOOTH",
"439 520 OFFCURVE",
"429 510 OFFCURVE",
"429 497 CURVE SMOOTH",
"429 453 LINE",
"397 497 OFFCURVE",
"346 530 OFFCURVE",
"265 530 CURVE SMOOTH",
"117 530 OFFCURVE",
"56 421 OFFCURVE",
"52 294 CURVE SMOOTH",
"51 272 OFFCURVE",
"51 248 OFFCURVE",
"52 226 CURVE SMOOTH",
"56 101 OFFCURVE",
"117 -10 OFFCURVE",
"265 -10 CURVE SMOOTH",
"343 -10 OFFCURVE",
"394 22 OFFCURVE",
"427 65 CURVE",
"427 -167 LINE SMOOTH",
"427 -180 OFFCURVE",
"436 -190 OFFCURVE",
"450 -190 CURVE SMOOTH"
);
},
{
closed = 1;
nodes = (
"184 71 OFFCURVE",
"151 146 OFFCURVE",
"147 231 CURVE SMOOTH",
"146 251 OFFCURVE",
"146 269 OFFCURVE",
"147 289 CURVE SMOOTH",
"151 374 OFFCURVE",
"184 449 OFFCURVE",
"286 449 CURVE SMOOTH",
"385 449 OFFCURVE",
"424 369 OFFCURVE",
"427 295 CURVE SMOOTH",
"428 274 OFFCURVE",
"428 240 OFFCURVE",
"427 218 CURVE SMOOTH",
"425 147 OFFCURVE",
"382 71 OFFCURVE",
"286 71 CURVE SMOOTH"
);
}
);
width = 596;
}
);
leftKerningGroup = d;
rightKerningGroup = u;
unicode = 0071;
userData = {
com.typemytype.robofont.guides = (
{
angle = 0;
isGlobal = 0;
magnetic = 5;
x = 0;
y = 530;
},
{
angle = 0;
isGlobal = 0;
magnetic = 5;
x = 0;
y = "-10";
},
{
angle = 0;
isGlobal = 0;
magnetic = 5;
x = 0;
y = "-190";
}
);
};
},
{
color = 5;
glyphname = r;
layers = (
{
anchors = (
{
name = bottom;
position = "{122, 0}";
},
{
name = top;
position = "{207, 520}";
}
);
hints = (
{
horizontal = 1;
place = "{0, 0}";
type = Tag;
}
);
layerId = "FF2DC345-5101-49B6-97F3-57A040F7C387";
paths = (
{
closed = 1;
nodes = (
"146 0 LINE SMOOTH",
"159 0 OFFCURVE",
"170 10 OFFCURVE",
"170 23 CURVE SMOOTH",
"170 317 LINE SMOOTH",
"170 389 OFFCURVE",
"214 434 OFFCURVE",
"286 434 CURVE SMOOTH",
"346 434 LINE SMOOTH",
"359 434 OFFCURVE",
"369 443 OFFCURVE",
"369 456 CURVE SMOOTH",
"369 497 LINE SMOOTH",
"369 510 OFFCURVE",
"359 520 OFFCURVE",
"346 520 CURVE SMOOTH",
"307 520 LINE SMOOTH",
"241 520 OFFCURVE",
"194 497 OFFCURVE",
"167 452 CURVE",
"167 496 LINE SMOOTH",
"167 510 OFFCURVE",
"156 520 OFFCURVE",
"143 520 CURVE SMOOTH",
"97 520 LINE SMOOTH",
"84 520 OFFCURVE",
"74 510 OFFCURVE",
"74 496 CURVE SMOOTH",
"74 23 LINE SMOOTH",
"74 10 OFFCURVE",
"84 0 OFFCURVE",
"97 0 CURVE SMOOTH"
);
}
);
width = 379.875;
}
);
leftKerningGroup = n;
rightKerningGroup = r;
unicode = 0072;
userData = {
com.typemytype.robofont.guides = (
{
angle = 0;
isGlobal = 0;
magnetic = 5;
x = 0;
y = 462;
}
);
};
},
{
color = 5;
glyphname = s;
layers = (
{
anchors = (
{
name = bottom;
position = "{255, 0}";
},
{
name = top;
position = "{253, 520}";
}
);
hints = (
{
horizontal = 1;
place = "{0, 0}";
type = Tag;
},
{
horizontal = 1;
place = "{0, 0}";
type = Tag;
}
);
layerId = "FF2DC345-5101-49B6-97F3-57A040F7C387";
paths = (
{
closed = 1;
nodes = (
"393 -10 OFFCURVE",
"468 58 OFFCURVE",
"468 143 CURVE SMOOTH",
"468 217 OFFCURVE",
"425 268 OFFCURVE",
"294 296 CURVE SMOOTH",
"172 322 OFFCURVE",
"149 343 OFFCURVE",
"149 383 CURVE SMOOTH",
"149 425 OFFCURVE",
"182 457 OFFCURVE",
"249 457 CURVE SMOOTH",
"320 457 OFFCURVE",
"342 427 OFFCURVE",
"364 401 CURVE SMOOTH",
"369 395 OFFCURVE",
"375 391 OFFCURVE",
"384 391 CURVE SMOOTH",
"426 391 LINE SMOOTH",
"438 391 OFFCURVE",
"449 400 OFFCURVE",
"448 414 CURVE SMOOTH",
"446 448 OFFCURVE",
"386 530 OFFCURVE",
"249 530 CURVE SMOOTH",
"121 530 OFFCURVE",
"56 453 OFFCURVE",
"56 380 CURVE SMOOTH",
"56 308 OFFCURVE",
"95 259 OFFCURVE",
"216 232 CURVE SMOOTH",
"337 205 OFFCURVE",
"372 188 OFFCURVE",
"372 140 CURVE SMOOTH",
"372 90 OFFCURVE",
"322 63 OFFCURVE",
"255 63 CURVE SMOOTH",
"185 63 OFFCURVE",
"153 94 OFFCURVE",
"128 123 CURVE SMOOTH",
"121 132 OFFCURVE",
"116 133 OFFCURVE",
"110 133 CURVE SMOOTH",
"65 133 LINE SMOOTH",
"55 133 OFFCURVE",
"41 125 OFFCURVE",
"42 110 CURVE SMOOTH",
"45 78 OFFCURVE",
"104 -10 OFFCURVE",
"254 -10 CURVE SMOOTH"
);
}
);
width = 510.375;
}
);
leftKerningGroup = s;
rightKerningGroup = s;
unicode = 0073;
userData = {
com.typemytype.robofont.guides = (
{
angle = 0;
isGlobal = 0;
magnetic = 5;
x = 0;
y = 265;
},
{
angle = 0;
isGlobal = 0;
magnetic = 5;
x = 0;
y = 139;
},
{
angle = 90;
isGlobal = 0;
magnetic = 5;
x = 250;
y = 0;
}
);
};
},
{
color = 5;
glyphname = germandbls;
layers = (
{
anchors = (
{
name = bottom;
position = "{295, 0}";
},
{
name = top;
position = "{295, 520}";
}
);
hints = (
{
horizontal = 1;
place = "{0, 0}";
type = Tag;
}
);
layerId = "FF2DC345-5101-49B6-97F3-57A040F7C387";
paths = (
{
closed = 1;
nodes = (
"145 0 LINE SMOOTH",
"159 0 OFFCURVE",
"168 10 OFFCURVE",
"168 23 CURVE SMOOTH",
"168 490 LINE SMOOTH",
"168 585 OFFCURVE",
"218 631 OFFCURVE",
"295 631 CURVE SMOOTH",
"371 631 OFFCURVE",
"422 585 OFFCURVE",
"422 521 CURVE SMOOTH",
"422 451 OFFCURVE",
"378 412 OFFCURVE",
"291 411 CURVE SMOOTH",
"246 411 LINE SMOOTH",
"231 411 OFFCURVE",
"223 402 OFFCURVE",
"223 388 CURVE SMOOTH",
"223 359 LINE SMOOTH",
"223 345 OFFCURVE",
"231 336 OFFCURVE",
"246 336 CURVE SMOOTH",
"299 336 LINE SMOOTH",
"396 336 OFFCURVE",
"446 279 OFFCURVE",
"446 207 CURVE SMOOTH",
"446 135 OFFCURVE",
"395 79 OFFCURVE",
"300 79 CURVE",
"247 79 LINE SMOOTH",
"232 79 OFFCURVE",
"223 69 OFFCURVE",
"223 56 CURVE SMOOTH",
"223 23 LINE SMOOTH",
"223 10 OFFCURVE",
"232 0 OFFCURVE",
"247 0 CURVE SMOOTH",
"314 0 LINE SMOOTH",
"477 0 OFFCURVE",
"542 113 OFFCURVE",
"542 205 CURVE SMOOTH",
"542 278 OFFCURVE",
"516 347 OFFCURVE",
"429 377 CURVE",
"469 397 OFFCURVE",
"513 443 OFFCURVE",
"513 523 CURVE SMOOTH",
"513 612 OFFCURVE",
"451 710 OFFCURVE",
"295 710 CURVE SMOOTH",
"138 710 OFFCURVE",
"75 609 OFFCURVE",
"75 493 CURVE SMOOTH",
"75 23 LINE SMOOTH",
"75 10 OFFCURVE",
"85 0 OFFCURVE",
"98 0 CURVE SMOOTH"
);
}
);
width = 589.375;
}
);
leftKerningGroup = h;
unicode = 00DF;
userData = {
com.typemytype.robofont.guides = (
{
angle = 0;
isGlobal = 0;
magnetic = 5;
x = 0;
y = 527;
},
{
angle = 0;
isGlobal = 0;
magnetic = 5;
x = 0;
y = 601;
},
{
angle = 90;
isGlobal = 0;
magnetic = 5;
x = 267;
y = 0;
},
{
angle = 90;
isGlobal = 0;
magnetic = 5;
x = 499;
y = 0;
}
);
};
},
{
color = 5;
glyphname = t;
layers = (
{
anchors = (
{
name = bottom;
position = "{245, 0}";
},
{
name = center;
position = "{192, 260}";
},
{
name = top;
position = "{196, 520}";
},
{
name = topright;
position = "{319, 778}";
}
);
hints = (
{
horizontal = 1;
place = "{0, 0}";
type = Tag;
}
);
layerId = "FF2DC345-5101-49B6-97F3-57A040F7C387";
paths = (
{
closed = 1;
nodes = (
"346 0 LINE SMOOTH",
"359 0 OFFCURVE",
"369 10 OFFCURVE",
"369 23 CURVE SMOOTH",
"369 59 LINE SMOOTH",
"369 72 OFFCURVE",
"359 82 OFFCURVE",
"346 82 CURVE SMOOTH",
"285 82 LINE SMOOTH",
"231 82 OFFCURVE",
"212 120 OFFCURVE",
"212 183 CURVE SMOOTH",
"212 440 LINE",
"336 440 LINE SMOOTH",
"350 440 OFFCURVE",
"359 450 OFFCURVE",
"359 463 CURVE SMOOTH",
"359 497 LINE SMOOTH",
"359 510 OFFCURVE",
"350 520 OFFCURVE",
"336 520 CURVE SMOOTH",
"212 520 LINE",
"212 687 LINE SMOOTH",
"212 700 OFFCURVE",
"202 710 OFFCURVE",
"189 710 CURVE SMOOTH",
"142 710 LINE SMOOTH",
"129 710 OFFCURVE",
"119 700 OFFCURVE",
"119 687 CURVE SMOOTH",
"119 520 LINE",
"41 520 LINE SMOOTH",
"28 520 OFFCURVE",
"18 510 OFFCURVE",
"18 497 CURVE SMOOTH",
"18 463 LINE SMOOTH",
"18 450 OFFCURVE",
"28 440 OFFCURVE",
"41 440 CURVE SMOOTH",
"119 440 LINE",
"119 176 LINE SMOOTH",
"119 69 OFFCURVE",
"164 0 OFFCURVE",
"277 0 CURVE SMOOTH"
);
}
);
width = 391.4375;
}
);
leftKerningGroup = t;
rightKerningGroup = t;
unicode = 0074;
userData = {
com.typemytype.robofont.guides = (
{
angle = 0;
isGlobal = 0;
magnetic = 5;
x = 0;
y = 175;
},
{
angle = 90;
isGlobal = 0;
magnetic = 5;
x = 342;
y = 0;
},
{
angle = 90;
isGlobal = 0;
magnetic = 5;
x = 35;
y = 0;
}
);
};
},
{
color = 5;
glyphname = u;
layers = (
{
anchors = (
{
name = bottom;
position = "{301, 0}";
},
{
name = ogonek;
position = "{523, 48}";
},
{
name = top;
position = "{298, 520}";
},
{
name = topright;
position = "{582, 520}";
}
);
hints = (
{
horizontal = 1;
origin = "{0, 6}";
type = Tag;
},
{
horizontal = 1;
origin = "{0, 22}";
type = Tag;
}
);
layerId = "FF2DC345-5101-49B6-97F3-57A040F7C387";
paths = (
{
closed = 1;
nodes = (
"351 -10 OFFCURVE",
"400 20 OFFCURVE",
"435 67 CURVE",
"435 23 LINE SMOOTH",
"435 10 OFFCURVE",
"445 0 OFFCURVE",
"458 0 CURVE SMOOTH",
"505 0 LINE SMOOTH",
"518 0 OFFCURVE",
"527 10 OFFCURVE",
"527 23 CURVE SMOOTH",
"527 497 LINE SMOOTH",
"527 510 OFFCURVE",
"518 520 OFFCURVE",
"505 520 CURVE SMOOTH",
"455 520 LINE SMOOTH",
"442 520 OFFCURVE",
"432 510 OFFCURVE",
"432 497 CURVE SMOOTH",
"432 220 LINE SMOOTH",
"432 126 OFFCURVE",
"378 71 OFFCURVE",
"295 71 CURVE SMOOTH",
"208 71 OFFCURVE",
"165 121 OFFCURVE",
"165 220 CURVE SMOOTH",
"165 497 LINE SMOOTH",
"165 510 OFFCURVE",
"155 520 OFFCURVE",
"142 520 CURVE SMOOTH",
"92 520 LINE SMOOTH",
"79 520 OFFCURVE",
"69 510 OFFCURVE",
"69 497 CURVE SMOOTH",
"69 215 LINE SMOOTH",
"69 82 OFFCURVE",
"139 -10 OFFCURVE",
"268 -10 CURVE SMOOTH"
);
}
);
width = 601.6875;
}
);
leftKerningGroup = u;
rightKerningGroup = u;
unicode = 0075;
userData = {
com.typemytype.robofont.guides = (
{
angle = 0;
isGlobal = 0;
magnetic = 5;
x = 0;
y = "-10";
},
{
angle = 90;
isGlobal = 0;
magnetic = 5;
x = 432;
y = 0;
},
{
angle = 90;
isGlobal = 0;
magnetic = 5;
x = 126;
y = 0;
},
{
angle = 90;
isGlobal = 0;
magnetic = 5;
x = 65;
y = 0;
}
);
};
},
{
color = 5;
glyphname = v;
layers = (
{
anchors = (
{
name = bottom;
position = "{277, 0}";
},
{
name = top;
position = "{277, 520}";
}
);
hints = (
{
horizontal = 1;
origin = "{0, 30}";
type = Tag;
}
);
layerId = "FF2DC345-5101-49B6-97F3-57A040F7C387";
paths = (
{
closed = 1;
nodes = (
"298 0 LINE SMOOTH",
"319 0 OFFCURVE",
"329 11 OFFCURVE",
"335 25 CURVE SMOOTH",
"521 489 LINE SMOOTH",
"522 492 OFFCURVE",
"523 497 OFFCURVE",
"523 499 CURVE SMOOTH",
"523 511 OFFCURVE",
"513 520 OFFCURVE",
"502 520 CURVE SMOOTH",
"453 520 LINE SMOOTH",
"439 520 OFFCURVE",
"432 509 OFFCURVE",
"429 503 CURVE SMOOTH",
"277 109 LINE",
"125 503 LINE SMOOTH",
"122 509 OFFCURVE",
"115 520 OFFCURVE",
"100 520 CURVE SMOOTH",
"52 520 LINE SMOOTH",
"40 520 OFFCURVE",
"31 511 OFFCURVE",
"31 499 CURVE SMOOTH",
"31 497 OFFCURVE",
"32 492 OFFCURVE",
"33 489 CURVE SMOOTH",
"218 25 LINE SMOOTH",
"224 11 OFFCURVE",
"235 0 OFFCURVE",
"255 0 CURVE"
);
}
);
width = 553.625;
}
);
unicode = 0076;
userData = {
com.typemytype.robofont.guides = (
{
angle = 90;
isGlobal = 0;
magnetic = 5;
x = 267;
y = 0;
}
);
};
},
{
color = 5;
glyphname = w;
layers = (
{
anchors = (
{
name = bottom;
position = "{401, 0}";
},
{
name = top;
position = "{401, 520}";
}
);
hints = (
{
horizontal = 1;
origin = "{0, 25}";
type = Tag;
}
);
layerId = "FF2DC345-5101-49B6-97F3-57A040F7C387";
paths = (
{
closed = 1;
nodes = (
"251 0 LINE",
"270 0 OFFCURVE",
"280 9 OFFCURVE",
"285 25 CURVE",
"401 383 LINE",
"517 25 LINE",
"521 9 OFFCURVE",
"532 0 OFFCURVE",
"550 0 CURVE",
"589 0 LINE",
"608 0 OFFCURVE",
"616 9 OFFCURVE",
"622 25 CURVE",
"763 489 LINE",
"764 492 OFFCURVE",
"765 497 OFFCURVE",
"765 499 CURVE SMOOTH",
"765 511 OFFCURVE",
"756 520 OFFCURVE",
"745 520 CURVE",
"700 520 LINE",
"686 520 OFFCURVE",
"677 509 OFFCURVE",
"676 503 CURVE",
"565 126 LINE",
"446 499 LINE",
"444 508 OFFCURVE",
"435 520 OFFCURVE",
"418 520 CURVE",
"384 520 LINE",
"366 520 OFFCURVE",
"358 508 OFFCURVE",
"356 499 CURVE",
"237 126 LINE",
"126 503 LINE",
"124 509 OFFCURVE",
"116 520 OFFCURVE",
"101 520 CURVE",
"57 520 LINE",
"46 520 OFFCURVE",
"36 511 OFFCURVE",
"36 499 CURVE SMOOTH",
"36 497 OFFCURVE",
"37 492 OFFCURVE",
"38 489 CURVE",
"180 25 LINE",
"186 9 OFFCURVE",
"194 0 OFFCURVE",
"212 0 CURVE"
);
}
);
width = 801.5625;
}
);
leftKerningGroup = w;
rightKerningGroup = w;
unicode = 0077;
userData = {
com.typemytype.robofont.guides = (
{
angle = 90;
isGlobal = 0;
magnetic = 5;
x = 45;
y = 0;
},
{
angle = 90;
isGlobal = 0;
magnetic = 5;
x = 737;
y = 0;
}
);
};
},
{
color = 5;
glyphname = x;
layers = (
{
anchors = (
{
name = bottom;
position = "{270, 0}";
},
{
name = top;
position = "{270, 520}";
}
);
hints = (
{
horizontal = 1;
origin = "{0, 5}";
type = Tag;
}
);
layerId = "FF2DC345-5101-49B6-97F3-57A040F7C387";
paths = (
{
closed = 1;
nodes = (
"101 0 LINE SMOOTH",
"115 0 OFFCURVE",
"122 9 OFFCURVE",
"127 15 CURVE SMOOTH",
"269 198 LINE",
"409 15 LINE SMOOTH",
"414 8 OFFCURVE",
"421 0 OFFCURVE",
"435 0 CURVE SMOOTH",
"488 0 LINE SMOOTH",
"500 0 OFFCURVE",
"509 9 OFFCURVE",
"509 21 CURVE SMOOTH",
"509 26 OFFCURVE",
"508 31 OFFCURVE",
"502 39 CURVE SMOOTH",
"328 264 LINE",
"493 481 LINE SMOOTH",
"499 488 OFFCURVE",
"500 494 OFFCURVE",
"500 499 CURVE SMOOTH",
"500 511 OFFCURVE",
"491 520 OFFCURVE",
"479 520 CURVE SMOOTH",
"430 520 LINE SMOOTH",
"416 520 OFFCURVE",
"409 510 OFFCURVE",
"404 503 CURVE SMOOTH",
"271 331 LINE",
"138 504 LINE SMOOTH",
"133 511 OFFCURVE",
"126 520 OFFCURVE",
"112 520 CURVE SMOOTH",
"61 520 LINE SMOOTH",
"49 520 OFFCURVE",
"40 511 OFFCURVE",
"40 499 CURVE SMOOTH",
"40 494 OFFCURVE",
"41 488 OFFCURVE",
"47 481 CURVE SMOOTH",
"210 266 LINE",
"36 39 LINE SMOOTH",
"30 31 OFFCURVE",
"29 25 OFFCURVE",
"29 21 CURVE SMOOTH",
"29 9 OFFCURVE",
"39 0 OFFCURVE",
"50 0 CURVE SMOOTH"
);
}
);
width = 539;
}
);
unicode = 0078;
userData = {
com.typemytype.robofont.guides = (
{
angle = 90;
isGlobal = 0;
magnetic = 5;
x = 255;
y = 0;
}
);
};
},
{
color = 5;
glyphname = y;
layers = (
{
anchors = (
{
name = bottom;
position = "{276, 0}";
},
{
name = top;
position = "{273, 520}";
}
);
hints = (
{
horizontal = 1;
origin = "{0, 3}";
type = Tag;
}
);
layerId = "FF2DC345-5101-49B6-97F3-57A040F7C387";
paths = (
{
closed = 1;
nodes = (
"212 -190 LINE SMOOTH",
"226 -190 OFFCURVE",
"233 -182 OFFCURVE",
"237 -173 CURVE SMOOTH",
"521 482 LINE SMOOTH",
"524 491 OFFCURVE",
"526 495 OFFCURVE",
"526 500 CURVE SMOOTH",
"526 511 OFFCURVE",
"517 520 OFFCURVE",
"505 520 CURVE SMOOTH",
"458 520 LINE SMOOTH",
"444 520 OFFCURVE",
"437 512 OFFCURVE",
"433 503 CURVE SMOOTH",
"277 139 LINE",
"125 503 LINE SMOOTH",
"122 512 OFFCURVE",
"115 520 OFFCURVE",
"101 520 CURVE SMOOTH",
"52 520 LINE SMOOTH",
"40 520 OFFCURVE",
"31 511 OFFCURVE",
"31 499 CURVE SMOOTH",
"31 495 OFFCURVE",
"33 490 OFFCURVE",
"36 482 CURVE SMOOTH",
"227 31 LINE",
"150 -152 LINE SMOOTH",
"146 -161 OFFCURVE",
"145 -165 OFFCURVE",
"145 -170 CURVE SMOOTH",
"145 -181 OFFCURVE",
"154 -190 OFFCURVE",
"165 -190 CURVE SMOOTH"
);
}
);
width = 551.5;
}
);
leftKerningGroup = y;
rightKerningGroup = y;
unicode = 0079;
},
{
color = 5;
glyphname = z;
layers = (
{
anchors = (
{
name = bottom;
position = "{254, 0}";
},
{
name = center;
position = "{254, 260}";
},
{
name = top;
position = "{255, 520}";
}
);
hints = (
{
horizontal = 1;
origin = "{0, 8}";
type = Tag;
}
);
layerId = "FF2DC345-5101-49B6-97F3-57A040F7C387";
paths = (
{
closed = 1;
nodes = (
"449 0 LINE SMOOTH",
"463 0 OFFCURVE",
"472 10 OFFCURVE",
"472 23 CURVE SMOOTH",
"472 56 LINE SMOOTH",
"472 70 OFFCURVE",
"463 79 OFFCURVE",
"449 79 CURVE SMOOTH",
"165 79 LINE",
"438 429 LINE SMOOTH",
"445 439 OFFCURVE",
"452 448 OFFCURVE",
"452 460 CURVE SMOOTH",
"452 497 LINE SMOOTH",
"452 510 OFFCURVE",
"443 520 OFFCURVE",
"429 520 CURVE SMOOTH",
"73 520 LINE SMOOTH",
"60 520 OFFCURVE",
"50 510 OFFCURVE",
"50 497 CURVE SMOOTH",
"50 464 LINE SMOOTH",
"50 450 OFFCURVE",
"60 441 OFFCURVE",
"73 441 CURVE SMOOTH",
"331 441 LINE",
"55 90 LINE SMOOTH",
"48 80 OFFCURVE",
"41 70 OFFCURVE",
"41 58 CURVE SMOOTH",
"41 23 LINE SMOOTH",
"41 10 OFFCURVE",
"50 0 OFFCURVE",
"64 0 CURVE SMOOTH"
);
}
);
width = 508.75;
}
);
leftKerningGroup = z;
rightKerningGroup = z;
unicode = 007A;
userData = {
com.typemytype.robofont.guides = (
{
angle = 0;
isGlobal = 0;
magnetic = 5;
x = 0;
y = 36;
},
{
angle = 90;
isGlobal = 0;
magnetic = 5;
x = 480;
y = 0;
},
{
angle = 90;
isGlobal = 0;
magnetic = 5;
x = 70;
y = 0;
}
);
};
},
{
color = 5;
glyphname = ordfeminine;
layers = (
{
hints = (
{
horizontal = 1;
origin = "{0, 24}";
type = Tag;
}
);
layerId = "FF2DC345-5101-49B6-97F3-57A040F7C387";
paths = (
{
closed = 1;
nodes = (
"181 429 OFFCURVE",
"215 443 OFFCURVE",
"227 463 CURVE",
"227 455 LINE SMOOTH",
"227 443 OFFCURVE",
"235 434 OFFCURVE",
"247 434 CURVE",
"278 434 LINE SMOOTH",
"290 434 OFFCURVE",
"298 443 OFFCURVE",
"298 455 CURVE SMOOTH",
"298 597 LINE SMOOTH",
"298 662 OFFCURVE",
"256 705 OFFCURVE",
"185 705 CURVE SMOOTH",
"114 705 OFFCURVE",
"71 662 OFFCURVE",
"69 641 CURVE SMOOTH",
"68 629 OFFCURVE",
"77 625 OFFCURVE",
"88 625 CURVE SMOOTH",
"119 625 LINE SMOOTH",
"140 625 OFFCURVE",
"143 644 OFFCURVE",
"182 644 CURVE SMOOTH",
"224 644 OFFCURVE",
"226 619 OFFCURVE",
"226 610 CURVE",
"164 601 LINE",
"95 591 OFFCURVE",
"51 558 OFFCURVE",
"51 506 CURVE SMOOTH",
"51 463 OFFCURVE",
"87 429 OFFCURVE",
"146 429 CURVE SMOOTH"
);
},
{
closed = 1;
nodes = (
"139 487 OFFCURVE",
"123 495 OFFCURVE",
"123 509 CURVE SMOOTH",
"123 527 OFFCURVE",
"133 542 OFFCURVE",
"182 549 CURVE SMOOTH",
"226 556 LINE",
"226 518 OFFCURVE",
"207 487 OFFCURVE",
"159 487 CURVE SMOOTH"
);
}
);
width = 364;
}
);
unicode = 00AA;
},
{
color = 5;
glyphname = ordmasculine;
layers = (
{
hints = (
{
horizontal = 1;
origin = "{0, 11}";
type = Tag;
}
);
layerId = "FF2DC345-5101-49B6-97F3-57A040F7C387";
paths = (
{
closed = 1;
nodes = (
"255 429 OFFCURVE",
"301 466 OFFCURVE",
"305 540 CURVE SMOOTH",
"306 550 OFFCURVE",
"306 584 OFFCURVE",
"305 594 CURVE SMOOTH",
"301 668 OFFCURVE",
"249 705 OFFCURVE",
"180 705 CURVE SMOOTH",
"111 705 OFFCURVE",
"58 668 OFFCURVE",
"54 594 CURVE SMOOTH",
"53 584 OFFCURVE",
"53 550 OFFCURVE",
"54 540 CURVE SMOOTH",
"58 466 OFFCURVE",
"105 429 OFFCURVE",
"180 429 CURVE SMOOTH"
);
},
{
closed = 1;
nodes = (
"147 492 OFFCURVE",
"130 509 OFFCURVE",
"128 545 CURVE SMOOTH",
"127 555 OFFCURVE",
"127 579 OFFCURVE",
"128 589 CURVE SMOOTH",
"129 622 OFFCURVE",
"147 643 OFFCURVE",
"180 643 CURVE SMOOTH",
"213 643 OFFCURVE",
"230 622 OFFCURVE",
"232 589 CURVE SMOOTH",
"233 579 OFFCURVE",
"233 555 OFFCURVE",
"232 545 CURVE SMOOTH",
"230 509 OFFCURVE",
"213 492 OFFCURVE",
"180 492 CURVE SMOOTH"
);
}
);
width = 358.9375;
}
);
unicode = 00BA;
userData = {
com.typemytype.robofont.guides = (
{
angle = 0;
isGlobal = 0;
magnetic = 5;
x = 0;
y = 589;
},
{
angle = 0;
isGlobal = 0;
magnetic = 5;
x = 0;
y = 545;
},
{
angle = 0;
isGlobal = 0;
magnetic = 5;
x = 0;
y = 429;
},
{
angle = 0;
isGlobal = 0;
magnetic = 5;
x = 0;
y = 705;
},
{
angle = 90;
isGlobal = 0;
magnetic = 5;
x = 134;
y = 0;
}
);
};
},
{
color = 5;
glyphname = "alef-hb";
layers = (
{
anchors = (
{
name = bottom;
position = "{85, 0}";
},
{
name = bottomleft;
position = "{25, 0}";
},
{
name = center;
position = "{176, 120}";
},
{
name = top;
position = "{293, 520}";
},
{
name = topleft;
position = "{85, 520}";
}
);
layerId = "FF2DC345-5101-49B6-97F3-57A040F7C387";
paths = (
{
closed = 1;
nodes = (
"-75 -1 OFFCURVE",
"-82 7 OFFCURVE",
"-82 17 CURVE SMOOTH",
"-82 27 OFFCURVE",
"-72 39 OFFCURVE",
"-61 41 CURVE SMOOTH",
"46 60 OFFCURVE",
"164 700 OFFCURVE",
"304 700 CURVE SMOOTH",
"338 700 OFFCURVE",
"351 681 OFFCURVE",
"351 655 CURVE SMOOTH",
"351 620 OFFCURVE",
"333 580 OFFCURVE",
"298 580 CURVE SMOOTH",
"291 580 OFFCURVE",
"285 582 OFFCURVE",
"277 582 CURVE SMOOTH",
"266 582 OFFCURVE",
"255 577 OFFCURVE",
"248 562 CURVE SMOOTH",
"202 461 OFFCURVE",
"110 -1 OFFCURVE",
"-55 -1 CURVE SMOOTH"
);
}
);
width = 156;
},
{
anchors = (
{
name = bottom;
position = "{85, 0}";
},
{
name = bottomleft;
position = "{25, 0}";
},
{
name = center;
position = "{176, 120}";
},
{
name = top;
position = "{293, 520}";
},
{
name = topleft;
position = "{85, 520}";
}
);
associatedMasterId = "FF2DC345-5101-49B6-97F3-57A040F7C387";
layerId = "5CF4FD32-8DD9-4A99-A5D3-1AF5D90F9257";
name = "Mar 9, 22, 23:11";
paths = (
{
closed = 1;
nodes = (
"202 461 OFFCURVE",
"110 -1 OFFCURVE",
"-55 -1 CURVE SMOOTH",
"-75 -1 OFFCURVE",
"-82 7 OFFCURVE",
"-82 17 CURVE SMOOTH",
"-82 27 OFFCURVE",
"-72 39 OFFCURVE",
"-61 41 CURVE SMOOTH",
"46 60 OFFCURVE",
"164 700 OFFCURVE",
"304 700 CURVE SMOOTH",
"338 700 OFFCURVE",
"351 681 OFFCURVE",
"351 655 CURVE SMOOTH",
"351 620 OFFCURVE",
"333 580 OFFCURVE",
"298 580 CURVE SMOOTH",
"295 580 OFFCURVE",
"291 580 OFFCURVE",
"287 581 CURVE SMOOTH",
"284 582 OFFCURVE",
"280 582 OFFCURVE",
"277 582 CURVE SMOOTH",
"265 582 OFFCURVE",
"255 577 OFFCURVE",
"248 562 CURVE SMOOTH"
);
}
);
visible = 1;
width = 156;
}
);
unicode = 05D0;
userData = {
com.typemytype.robofont.guides = (
{
angle = 0;
isGlobal = 0;
magnetic = 5;
x = 0;
y = 571;
},
{
angle = 90;
isGlobal = 0;
magnetic = 5;
x = 50;
y = 0;
},
{
angle = 90;
isGlobal = 0;
magnetic = 5;
x = 478;
y = 0;
}
);
};
},
{
color = 5;
glyphname = "bet-hb";
layers = (
{
anchors = (
{
name = bottom;
position = "{153, 0}";
},
{
name = bottomleft;
position = "{20, 0}";
},
{
name = center;
position = "{93, 111}";
},
{
name = top;
position = "{166, 319}";
},
{
name = topleft;
position = "{45, 223}";
}
);
layerId = "FF2DC345-5101-49B6-97F3-57A040F7C387";
paths = (
{
closed = 1;
nodes = (
"-32 0 OFFCURVE",
"-78 52 OFFCURVE",
"-78 76 CURVE SMOOTH",
"-78 83 OFFCURVE",
"-74 87 OFFCURVE",
"-66 87 CURVE SMOOTH",
"-42 87 OFFCURVE",
"-12 51 OFFCURVE",
"55 51 CURVE SMOOTH",
"126 51 OFFCURVE",
"185 102 OFFCURVE",
"185 172 CURVE SMOOTH",
"185 214 OFFCURVE",
"154 232 OFFCURVE",
"118 232 CURVE SMOOTH",
"66 232 OFFCURVE",
"51 200 OFFCURVE",
"26 200 CURVE SMOOTH",
"17 200 OFFCURVE",
"9 205 OFFCURVE",
"9 214 CURVE SMOOTH",
"9 236 OFFCURVE",
"72 279 OFFCURVE",
"136 279 CURVE SMOOTH",
"199 279 OFFCURVE",
"271 249 OFFCURVE",
"271 177 CURVE SMOOTH",
"271 78 OFFCURVE",
"182 0 OFFCURVE",
"66 0 CURVE SMOOTH"
);
}
);
userData = {
com.schriftgestaltung.hints = (
{
horizontal = 1;
options = 0;
origin = (
0,
16
);
stem = -2;
type = Tag;
}
);
};
width = 305;
},
{
anchors = (
{
name = bottom;
position = "{153, 0}";
},
{
name = bottomleft;
position = "{20, 0}";
},
{
name = center;
position = "{93, 111}";
},
{
name = top;
position = "{272, 220}";
},
{
name = topleft;
position = "{20, 220}";
}
);
associatedMasterId = "FF2DC345-5101-49B6-97F3-57A040F7C387";
layerId = "CA4CA57D-EA13-4938-A2EA-9FC29D217E6A";
name = "Mar 10, 22, 08:52";
paths = (
{
closed = 1;
nodes = (
"-32 0 OFFCURVE",
"-78 52 OFFCURVE",
"-78 76 CURVE SMOOTH",
"-78 83 OFFCURVE",
"-74 87 OFFCURVE",
"-66 87 CURVE SMOOTH",
"-63 87 OFFCURVE",
"-60 87 OFFCURVE",
"-57 86 CURVE SMOOTH",
"-42 81 OFFCURVE",
"-2 51 OFFCURVE",
"55 51 CURVE SMOOTH",
"59 51 OFFCURVE",
"63 51 OFFCURVE",
"67 51 CURVE SMOOTH",
"128 56 OFFCURVE",
"185 104 OFFCURVE",
"185 164 CURVE SMOOTH",
"185 209 OFFCURVE",
"163 232 OFFCURVE",
"118 232 CURVE SMOOTH",
"79 232 OFFCURVE",
"62 216 OFFCURVE",
"45 206 CURVE SMOOTH",
"37 202 OFFCURVE",
"31 200 OFFCURVE",
"26 200 CURVE SMOOTH",
"18 200 OFFCURVE",
"12 204 OFFCURVE",
"10 209 CURVE SMOOTH",
"9 211 OFFCURVE",
"9 212 OFFCURVE",
"9 214 CURVE SMOOTH",
"9 236 OFFCURVE",
"72 279 OFFCURVE",
"136 279 CURVE SMOOTH",
"199 279 OFFCURVE",
"271 249 OFFCURVE",
"271 177 CURVE SMOOTH",
"271 78 OFFCURVE",
"182 0 OFFCURVE",
"66 0 CURVE SMOOTH"
);
}
);
userData = {
com.schriftgestaltung.hints = (
{
horizontal = 1;
options = 0;
origin = (
0,
16
);
stem = -2;
type = Tag;
}
);
};
visible = 1;
width = 305;
}
);
leftKerningGroup = bethebrew;
rightKerningGroup = bethebrew;
unicode = 05D1;
userData = {
com.typemytype.robofont.guides = (
{
angle = 0;
isGlobal = 0;
magnetic = 5;
x = 0;
y = 571;
},
{
angle = 90;
isGlobal = 0;
magnetic = 5;
x = 40;
y = 0;
},
{
angle = 90;
isGlobal = 0;
magnetic = 5;
x = 516;
y = 0;
}
);
};
},
{
color = 5;
glyphname = "gimel-hb";
layers = (
{
anchors = (
{
name = bottom;
position = "{315, 0}";
},
{
name = bottomleft;
position = "{104, 0}";
},
{
name = center;
position = "{313, 111}";
},
{
name = top;
position = "{541, 296}";
},
{
name = topleft;
position = "{147, 138}";
}
);
layerId = "FF2DC345-5101-49B6-97F3-57A040F7C387";
paths = (
{
closed = 1;
nodes = (
"-49 -38 OFFCURVE",
"-126 14 OFFCURVE",
"-126 38 CURVE SMOOTH",
"-126 45 OFFCURVE",
"-124 48 OFFCURVE",
"-115 48 CURVE SMOOTH",
"-76 48 OFFCURVE",
"-50 18 OFFCURVE",
"6 18 CURVE SMOOTH",
"73 18 OFFCURVE",
"118 53 OFFCURVE",
"168 53 CURVE SMOOTH",
"221 53 OFFCURVE",
"287 11 OFFCURVE",
"332 11 CURVE SMOOTH",
"415 11 OFFCURVE",
"451 111 OFFCURVE",
"451 198 CURVE SMOOTH",
"451 234 OFFCURVE",
"490 244 OFFCURVE",
"530 244 CURVE SMOOTH",
"541 244 OFFCURVE",
"552 237 OFFCURVE",
"552 223 CURVE SMOOTH",
"552 102 OFFCURVE",
"441 -41 OFFCURVE",
"325 -41 CURVE SMOOTH",
"285 -41 OFFCURVE",
"227 -6 OFFCURVE",
"187 -6 CURVE SMOOTH",
"155 -6 OFFCURVE",
"92 -38 OFFCURVE",
"51 -38 CURVE SMOOTH"
);
}
);
userData = {
com.schriftgestaltung.hints = (
{
horizontal = 1;
options = 0;
place = (
15,
0
);
stem = -2;
type = Tag;
}
);
};
width = 585;
},
{
anchors = (
{
name = bottom;
position = "{315, 0}";
},
{
name = bottomleft;
position = "{104, 0}";
},
{
name = center;
position = "{313, 111}";
},
{
name = top;
position = "{541, 296}";
},
{
name = topleft;
position = "{147, 138}";
}
);
associatedMasterId = "FF2DC345-5101-49B6-97F3-57A040F7C387";
layerId = "D2446033-459D-40D6-AEA3-5F38DD58BE67";
name = "Mar 10, 22, 18:55";
paths = (
{
closed = 1;
nodes = (
"-49 -38 OFFCURVE",
"-126 14 OFFCURVE",
"-126 38 CURVE SMOOTH",
"-126 45 OFFCURVE",
"-124 48 OFFCURVE",
"-115 48 CURVE SMOOTH",
"-76 48 OFFCURVE",
"-50 18 OFFCURVE",
"6 18 CURVE SMOOTH",
"73 18 OFFCURVE",
"118 53 OFFCURVE",
"168 53 CURVE SMOOTH",
"221 53 OFFCURVE",
"287 11 OFFCURVE",
"332 11 CURVE SMOOTH",
"415 11 OFFCURVE",
"451 111 OFFCURVE",
"451 198 CURVE SMOOTH",
"451 234 OFFCURVE",
"490 244 OFFCURVE",
"530 244 CURVE SMOOTH",
"541 244 OFFCURVE",
"552 237 OFFCURVE",
"552 223 CURVE SMOOTH",
"552 102 OFFCURVE",
"441 -41 OFFCURVE",
"325 -41 CURVE SMOOTH",
"285 -41 OFFCURVE",
"227 -6 OFFCURVE",
"187 -6 CURVE SMOOTH",
"155 -6 OFFCURVE",
"92 -38 OFFCURVE",
"51 -38 CURVE SMOOTH"
);
}
);
userData = {
com.schriftgestaltung.hints = (
{
horizontal = 1;
options = 0;
place = (
15,
0
);
stem = -2;
type = Tag;
}
);
};
visible = 1;
width = 585;
}
);
leftKerningGroup = gimelhebrew;
rightKerningGroup = gimelhebrew;
unicode = 05D2;
userData = {
com.typemytype.robofont.guides = (
{
angle = 90;
isGlobal = 0;
magnetic = 5;
x = 55;
y = 0;
}
);
};
},
{
color = 5;
glyphname = "dalet-hb";
layers = (
{
anchors = (
{
name = bottom;
position = "{110, 0}";
},
{
name = bottomleft;
position = "{44, 0}";
},
{
name = center;
position = "{0, 150}";
},
{
name = top;
position = "{185, 365}";
},
{
name = topleft;
position = "{24, 303}";
}
);
layerId = "FF2DC345-5101-49B6-97F3-57A040F7C387";
paths = (
{
closed = 1;
nodes = (
"8 0 OFFCURVE",
"0 8 OFFCURVE",
"0 18 CURVE SMOOTH",
"0 28 OFFCURVE",
"10 40 OFFCURVE",
"21 42 CURVE SMOOTH",
"79 52 OFFCURVE",
"105 124 OFFCURVE",
"105 187 CURVE SMOOTH",
"105 282 OFFCURVE",
"49 292 OFFCURVE",
"-45 308 CURVE SMOOTH",
"-161 328 OFFCURVE",
"-198 365 OFFCURVE",
"-198 385 CURVE SMOOTH",
"-198 392 OFFCURVE",
"-194 396 OFFCURVE",
"-185 396 CURVE SMOOTH",
"-164 396 OFFCURVE",
"-100 355 OFFCURVE",
"-20 349 CURVE SMOOTH",
"55 344 OFFCURVE",
"195 314 OFFCURVE",
"195 197 CURVE SMOOTH",
"195 116 OFFCURVE",
"136 0 OFFCURVE",
"28 0 CURVE SMOOTH"
);
}
);
userData = {
com.schriftgestaltung.hints = (
{
horizontal = 1;
options = 0;
place = (
513,
0
);
stem = -2;
type = Tag;
}
);
};
width = 227;
},
{
anchors = (
{
name = bottom;
position = "{110, 0}";
},
{
name = bottomleft;
position = "{44, 0}";
},
{
name = center;
position = "{185, 260}";
},
{
name = top;
position = "{159, 417}";
},
{
name = topleft;
position = "{24, 330}";
}
);
associatedMasterId = "FF2DC345-5101-49B6-97F3-57A040F7C387";
layerId = "3E73F148-554D-4CAB-B0AD-3DCAA1113238";
name = "Mar 10, 22, 19:16";
paths = (
{
closed = 1;
nodes = (
"55 344 OFFCURVE",
"195 314 OFFCURVE",
"195 197 CURVE SMOOTH",
"195 116 OFFCURVE",
"136 0 OFFCURVE",
"28 0 CURVE SMOOTH",
"8 0 OFFCURVE",
"0 8 OFFCURVE",
"0 18 CURVE SMOOTH",
"0 28 OFFCURVE",
"10 40 OFFCURVE",
"21 42 CURVE SMOOTH",
"79 52 OFFCURVE",
"97 115 OFFCURVE",
"105 187 CURVE SMOOTH",
"105 192 OFFCURVE",
"105 198 OFFCURVE",
"105 202 CURVE SMOOTH",
"105 285 OFFCURVE",
"27 296 OFFCURVE",
"-45 308 CURVE SMOOTH",
"-161 328 OFFCURVE",
"-198 365 OFFCURVE",
"-198 385 CURVE SMOOTH",
"-198 392 OFFCURVE",
"-193 396 OFFCURVE",
"-185 396 CURVE SMOOTH",
"-184 396 OFFCURVE",
"-183 396 OFFCURVE",
"-183 396 CURVE SMOOTH",
"-162 394 OFFCURVE",
"-100 355 OFFCURVE",
"-20 349 CURVE SMOOTH"
);
}
);
userData = {
com.schriftgestaltung.hints = (
{
horizontal = 1;
options = 0;
place = (
513,
0
);
stem = -2;
type = Tag;
}
);
};
visible = 1;
width = 227;
}
);
leftKerningGroup = dalethebrew;
rightKerningGroup = dalethebrew;
unicode = 05D3;
userData = {
com.typemytype.robofont.guides = (
{
angle = 0;
isGlobal = 0;
magnetic = 5;
x = 0;
y = 571;
},
{
angle = 90;
isGlobal = 0;
magnetic = 5;
x = 30;
y = 0;
},
{
angle = 90;
isGlobal = 0;
magnetic = 5;
x = 496;
y = 0;
}
);
};
},
{
color = 5;
glyphname = "he-hb";
layers = (
{
anchors = (
{
name = bottom;
position = "{230, 0}";
},
{
name = bottomleft;
position = "{30, 0}";
},
{
name = center;
position = "{221, 145}";
},
{
name = top;
position = "{378, 251}";
},
{
name = topleft;
position = "{107, 79}";
}
);
layerId = "FF2DC345-5101-49B6-97F3-57A040F7C387";
paths = (
{
closed = 1;
nodes = (
"10 -66 OFFCURVE",
"-8 -19 OFFCURVE",
"-8 18 CURVE SMOOTH",
"-8 54 OFFCURVE",
"2 89 OFFCURVE",
"70 89 CURVE SMOOTH",
"123 89 OFFCURVE",
"190 58 OFFCURVE",
"246 58 CURVE SMOOTH",
"309 58 OFFCURVE",
"334 106 OFFCURVE",
"334 177 CURVE SMOOTH",
"334 213 OFFCURVE",
"372 223 OFFCURVE",
"412 223 CURVE SMOOTH",
"423 223 OFFCURVE",
"435 216 OFFCURVE",
"435 201 CURVE SMOOTH",
"435 94 OFFCURVE",
"354 14 OFFCURVE",
"255 14 CURVE SMOOTH",
"201 14 OFFCURVE",
"161 38 OFFCURVE",
"116 38 CURVE SMOOTH",
"78 38 OFFCURVE",
"70 19 OFFCURVE",
"70 -2 CURVE SMOOTH",
"70 -18 OFFCURVE",
"75 -36 OFFCURVE",
"75 -47 CURVE SMOOTH",
"75 -59 OFFCURVE",
"75 -66 OFFCURVE",
"53 -66 CURVE SMOOTH"
);
}
);
userData = {
com.schriftgestaltung.Glyphs.glyph.rightMetricsKey = "het-hb";
com.schriftgestaltung.hints = (
{
horizontal = 1;
options = 0;
origin = (
0,
11
);
stem = -2;
type = Tag;
}
);
};
width = 467;
},
{
anchors = (
{
name = bottom;
position = "{230, 0}";
},
{
name = bottomleft;
position = "{30, 0}";
},
{
name = center;
position = "{228, 145}";
},
{
name = top;
position = "{378, 251}";
},
{
name = topleft;
position = "{107, 79}";
}
);
associatedMasterId = "FF2DC345-5101-49B6-97F3-57A040F7C387";
layerId = "F2D27739-EAA6-4AFF-B28E-06E1E8522342";
name = "Mar 10, 22, 20:30";
paths = (
{
closed = 1;
nodes = (
"123 89 OFFCURVE",
"190 58 OFFCURVE",
"246 58 CURVE SMOOTH",
"259 58 OFFCURVE",
"273 60 OFFCURVE",
"285 65 CURVE SMOOTH",
"306 73 OFFCURVE",
"334 112 OFFCURVE",
"334 177 CURVE SMOOTH",
"334 213 OFFCURVE",
"372 223 OFFCURVE",
"412 223 CURVE SMOOTH",
"423 223 OFFCURVE",
"435 216 OFFCURVE",
"435 201 CURVE SMOOTH",
"435 106 OFFCURVE",
"372 36 OFFCURVE",
"297 19 CURVE SMOOTH",
"282 15 OFFCURVE",
"268 14 OFFCURVE",
"255 14 CURVE SMOOTH",
"201 14 OFFCURVE",
"161 38 OFFCURVE",
"116 38 CURVE SMOOTH",
"78 38 OFFCURVE",
"70 19 OFFCURVE",
"70 -2 CURVE SMOOTH",
"70 -18 OFFCURVE",
"75 -36 OFFCURVE",
"75 -47 CURVE SMOOTH",
"75 -59 OFFCURVE",
"75 -66 OFFCURVE",
"53 -66 CURVE SMOOTH",
"16 -66 OFFCURVE",
"-6 -27 OFFCURVE",
"-8 8 CURVE SMOOTH",
"-8 11 OFFCURVE",
"-8 15 OFFCURVE",
"-8 18 CURVE SMOOTH",
"-8 54 OFFCURVE",
"2 89 OFFCURVE",
"70 89 CURVE SMOOTH"
);
}
);
userData = {
com.schriftgestaltung.Glyphs.glyph.rightMetricsKey = "het-hb";
com.schriftgestaltung.hints = (
{
horizontal = 1;
options = 0;
origin = (
0,
11
);
stem = -2;
type = Tag;
}
);
};
visible = 1;
width = 467;
}
);
leftKerningGroup = hethebrew;
rightKerningGroup = vavhebrew;
unicode = 05D4;
userData = {
com.typemytype.robofont.guides = (
{
angle = 90;
isGlobal = 0;
magnetic = 5;
x = 70;
y = 0;
}
);
};
},
{
color = 5;
glyphname = "vav-hb";
layers = (
{
anchors = (
{
name = bottom;
position = "{-17, 0}";
},
{
name = bottomleft;
position = "{-43, 0}";
},
{
name = center;
position = "{-37, 157}";
},
{
name = top;
position = "{124, 210}";
},
{
name = topleft;
position = "{175, 210}";
}
);
layerId = "FF2DC345-5101-49B6-97F3-57A040F7C387";
paths = (
{
closed = 1;
nodes = (
"-39 0 OFFCURVE",
"-41 7 OFFCURVE",
"-41 16 CURVE SMOOTH",
"-41 35 OFFCURVE",
"17 157 OFFCURVE",
"43 255 CURVE SMOOTH",
"50 279 OFFCURVE",
"74 279 OFFCURVE",
"96 279 CURVE SMOOTH",
"118 279 OFFCURVE",
"134 279 OFFCURVE",
"134 256 CURVE SMOOTH",
"134 213 OFFCURVE",
"20 0 OFFCURVE",
"-23 0 CURVE SMOOTH"
);
}
);
userData = {
com.schriftgestaltung.hints = (
{
horizontal = 1;
options = 0;
origin = (
0,
4
);
stem = -2;
type = Tag;
}
);
};
width = 167;
},
{
anchors = (
{
name = bottom;
position = "{123, 0}";
},
{
name = bottomleft;
position = "{20, 0}";
},
{
name = center;
position = "{4, 260}";
},
{
name = top;
position = "{124, 520}";
},
{
name = topleft;
position = "{175, 520}";
}
);
associatedMasterId = "FF2DC345-5101-49B6-97F3-57A040F7C387";
layerId = "6035867B-48BD-40D2-9757-7A3CBB4BE75A";
name = "Mar 16, 22, 20:54";
paths = (
{
closed = 1;
nodes = (
"134 229 OFFCURVE",
"91 140 OFFCURVE",
"49 75 CURVE SMOOTH",
"22 32 OFFCURVE",
"-4 0 OFFCURVE",
"-20 0 CURVE SMOOTH",
"-41 0 OFFCURVE",
"-41 7 OFFCURVE",
"-41 19 CURVE SMOOTH",
"-41 33 OFFCURVE",
"17 157 OFFCURVE",
"43 255 CURVE SMOOTH",
"50 278 OFFCURVE",
"71 279 OFFCURVE",
"93 279 CURVE SMOOTH",
"95 279 OFFCURVE",
"95 279 OFFCURVE",
"96 279 CURVE SMOOTH",
"118 279 OFFCURVE",
"134 279 OFFCURVE",
"134 256 CURVE SMOOTH"
);
}
);
userData = {
com.schriftgestaltung.hints = (
{
horizontal = 1;
options = 0;
origin = (
0,
4
);
stem = -2;
type = Tag;
}
);
};
visible = 1;
width = 167;
}
);
leftKerningGroup = vavhebrew;
rightKerningGroup = vavhebrew;
unicode = 05D5;
userData = {
com.typemytype.robofont.guides = (
{
angle = 0;
isGlobal = 0;
magnetic = 5;
x = 0;
y = 571;
}
);
};
},
{
color = 5;
glyphname = "zayin-hb";
layers = (
{
anchors = (
{
name = bottom;
position = "{-22, 0}";
},
{
name = bottomleft;
position = "{-89, 0}";
},
{
name = center;
position = "{-37, 165}";
},
{
name = top;
position = "{207, 336}";
},
{
name = topleft;
position = "{61, 336}";
}
);
layerId = "FF2DC345-5101-49B6-97F3-57A040F7C387";
paths = (
{
closed = 1;
nodes = (
"-39 -1 OFFCURVE",
"-51 6 OFFCURVE",
"-51 20 CURVE SMOOTH",
"-51 31 OFFCURVE",
"51 305 OFFCURVE",
"162 305 CURVE SMOOTH",
"184 305 OFFCURVE",
"199 286 OFFCURVE",
"199 265 CURVE SMOOTH",
"199 224 OFFCURVE",
"169 185 OFFCURVE",
"142 185 CURVE SMOOTH",
"126 185 OFFCURVE",
"105 185 OFFCURVE",
"95 169 CURVE SMOOTH",
"19 55 OFFCURVE",
"0 -1 OFFCURVE",
"-28 -1 CURVE SMOOTH"
);
}
);
userData = {
com.schriftgestaltung.hints = (
{
horizontal = 1;
options = 0;
place = (
22,
0
);
stem = -2;
type = Tag;
}
);
};
width = 200;
},
{
anchors = (
{
name = bottom;
position = "{-22, 0}";
},
{
name = bottomleft;
position = "{-89, 0}";
},
{
name = center;
position = "{-26, 175}";
},
{
name = top;
position = "{207, 336}";
},
{
name = topleft;
position = "{61, 336}";
}
);
associatedMasterId = "FF2DC345-5101-49B6-97F3-57A040F7C387";
layerId = "E8637BC1-6591-4DB7-9F96-0BA611BCFE2B";
name = "Mar 16, 22, 21:19";
paths = (
{
closed = 1;
nodes = (
"-39 -1 OFFCURVE",
"-51 6 OFFCURVE",
"-51 20 CURVE SMOOTH",
"-51 31 OFFCURVE",
"51 305 OFFCURVE",
"162 305 CURVE SMOOTH",
"184 305 OFFCURVE",
"199 286 OFFCURVE",
"199 265 CURVE SMOOTH",
"199 224 OFFCURVE",
"169 185 OFFCURVE",
"142 185 CURVE SMOOTH",
"126 185 OFFCURVE",
"105 185 OFFCURVE",
"95 169 CURVE SMOOTH",
"19 55 OFFCURVE",
"0 -1 OFFCURVE",
"-28 -1 CURVE SMOOTH"
);
}
);
userData = {
com.schriftgestaltung.hints = (
{
horizontal = 1;
options = 0;
place = (
22,
0
);
stem = -2;
type = Tag;
}
);
};
width = 200;
}
);
leftKerningGroup = zayinhebrew;
rightKerningGroup = zayinhebrew;
unicode = 05D6;
userData = {
com.typemytype.robofont.guides = (
{
angle = 0;
isGlobal = 0;
magnetic = 5;
x = 0;
y = 983;
},
{
angle = 0;
isGlobal = 0;
magnetic = 5;
x = 0;
y = 983;
},
{
angle = 0;
isGlobal = 0;
magnetic = 5;
x = 0;
y = 571;
}
);
};
},
{
color = 5;
glyphname = "het-hb";
layers = (
{
anchors = (
{
name = bottom;
position = "{119, 0}";
},
{
name = bottomleft;
position = "{-80, 0}";
},
{
name = center;
position = "{311, 150}";
},
{
name = top;
position = "{311, 230}";
},
{
name = topleft;
position = "{20, 230}";
}
);
layerId = "FF2DC345-5101-49B6-97F3-57A040F7C387";
paths = (
{
closed = 1;
nodes = (
"-63 0 OFFCURVE",
"-71 8 OFFCURVE",
"-71 18 CURVE SMOOTH",
"-71 28 OFFCURVE",
"-61 40 OFFCURVE",
"-50 42 CURVE SMOOTH",
"0 51 OFFCURVE",
"50 176 OFFCURVE",
"72 256 CURVE SMOOTH",
"79 281 OFFCURVE",
"94 279 OFFCURVE",
"116 279 CURVE SMOOTH",
"136 279 OFFCURVE",
"151 279 OFFCURVE",
"153 260 CURVE",
"174 271 OFFCURVE",
"205 280 OFFCURVE",
"249 280 CURVE SMOOTH",
"304 280 OFFCURVE",
"358 265 OFFCURVE",
"358 203 CURVE SMOOTH",
"358 111 OFFCURVE",
"287 0 OFFCURVE",
"201 0 CURVE SMOOTH",
"190 0 OFFCURVE",
"184 6 OFFCURVE",
"184 14 CURVE SMOOTH",
"184 22 OFFCURVE",
"190 32 OFFCURVE",
"201 38 CURVE SMOOTH",
"247 62 OFFCURVE",
"265 151 OFFCURVE",
"265 193 CURVE SMOOTH",
"265 228 OFFCURVE",
"243 237 OFFCURVE",
"212 237 CURVE SMOOTH",
"190 237 OFFCURVE",
"167 227 OFFCURVE",
"148 217 CURVE",
"126 129 OFFCURVE",
"42 0 OFFCURVE",
"-43 0 CURVE SMOOTH"
);
}
);
userData = {
com.schriftgestaltung.hints = (
{
horizontal = 1;
options = 0;
origin = (
0,
24
);
stem = -2;
type = Tag;
}
);
};
width = 392;
},
{
anchors = (
{
name = bottom;
position = "{119, 0}";
},
{
name = bottomleft;
position = "{-80, 0}";
},
{
name = center;
position = "{311, 150}";
},
{
name = top;
position = "{311, 230}";
},
{
name = topleft;
position = "{20, 230}";
}
);
associatedMasterId = "FF2DC345-5101-49B6-97F3-57A040F7C387";
layerId = "3B666811-0A51-499E-99B8-03DC2181B4A8";
name = "Mar 16, 22, 21:34";
paths = (
{
closed = 1;
nodes = (
"-63 0 OFFCURVE",
"-71 8 OFFCURVE",
"-71 18 CURVE SMOOTH",
"-71 28 OFFCURVE",
"-61 40 OFFCURVE",
"-50 42 CURVE SMOOTH",
"0 51 OFFCURVE",
"50 176 OFFCURVE",
"72 256 CURVE SMOOTH",
"79 279 OFFCURVE",
"91 279 OFFCURVE",
"114 279 CURVE SMOOTH",
"115 279 OFFCURVE",
"115 279 OFFCURVE",
"116 279 CURVE SMOOTH",
"136 279 OFFCURVE",
"151 279 OFFCURVE",
"153 260 CURVE",
"174 271 OFFCURVE",
"205 280 OFFCURVE",
"249 280 CURVE SMOOTH",
"256 280 OFFCURVE",
"263 280 OFFCURVE",
"270 279 CURVE SMOOTH",
"316 276 OFFCURVE",
"358 256 OFFCURVE",
"358 203 CURVE SMOOTH",
"358 111 OFFCURVE",
"287 0 OFFCURVE",
"201 0 CURVE SMOOTH",
"190 0 OFFCURVE",
"184 6 OFFCURVE",
"184 14 CURVE SMOOTH",
"184 22 OFFCURVE",
"190 32 OFFCURVE",
"201 38 CURVE SMOOTH",
"228 52 OFFCURVE",
"256 96 OFFCURVE",
"265 183 CURVE SMOOTH",
"265 186 OFFCURVE",
"265 190 OFFCURVE",
"265 193 CURVE SMOOTH",
"265 232 OFFCURVE",
"238 236 OFFCURVE",
"216 237 CURVE SMOOTH",
"214 237 OFFCURVE",
"213 237 OFFCURVE",
"212 237 CURVE SMOOTH",
"190 237 OFFCURVE",
"167 227 OFFCURVE",
"148 217 CURVE",
"126 129 OFFCURVE",
"42 0 OFFCURVE",
"-43 0 CURVE SMOOTH"
);
}
);
userData = {
com.schriftgestaltung.hints = (
{
horizontal = 1;
options = 0;
origin = (
0,
24
);
stem = -2;
type = Tag;
}
);
};
visible = 1;
width = 392;
}
);
leftKerningGroup = hethebrew;
rightKerningGroup = vavhebrew;
unicode = 05D7;
userData = {
com.typemytype.robofont.guides = (
{
angle = 0;
isGlobal = 0;
magnetic = 5;
x = 0;
y = 571;
},
{
angle = 90;
isGlobal = 0;
magnetic = 5;
x = 70;
y = 0;
},
{
angle = 90;
isGlobal = 0;
magnetic = 5;
x = 517;
y = 0;
}
);
};
},
{
color = 5;
glyphname = "tet-hb";
layers = (
{
anchors = (
{
name = bottom;
position = "{134, 0}";
},
{
name = bottomleft;
position = "{-60, 0}";
},
{
name = center;
position = "{182, 130}";
},
{
name = top;
position = "{324, 180}";
},
{
name = topleft;
position = "{20, 180}";
}
);
layerId = "FF2DC345-5101-49B6-97F3-57A040F7C387";
paths = (
{
closed = 1;
nodes = (
"-41 0 OFFCURVE",
"-41 7 OFFCURVE",
"-41 19 CURVE SMOOTH",
"-41 33 OFFCURVE",
"14 149 OFFCURVE",
"41 247 CURVE SMOOTH",
"48 271 OFFCURVE",
"72 272 OFFCURVE",
"93 272 CURVE SMOOTH",
"116 272 OFFCURVE",
"131 272 OFFCURVE",
"131 248 CURVE SMOOTH",
"131 238 OFFCURVE",
"116 197 OFFCURVE",
"99 156 CURVE SMOOTH",
"96 149 OFFCURVE",
"95 141 OFFCURVE",
"95 134 CURVE SMOOTH",
"95 101 OFFCURVE",
"118 66 OFFCURVE",
"149 66 CURVE SMOOTH",
"233 66 OFFCURVE",
"269 152 OFFCURVE",
"269 239 CURVE SMOOTH",
"269 275 OFFCURVE",
"308 285 OFFCURVE",
"348 285 CURVE SMOOTH",
"359 285 OFFCURVE",
"371 278 OFFCURVE",
"371 264 CURVE SMOOTH",
"371 144 OFFCURVE",
"263 20 OFFCURVE",
"147 20 CURVE SMOOTH",
"98 20 OFFCURVE",
"67 42 OFFCURVE",
"51 73 CURVE",
"29 39 OFFCURVE",
"-2 0 OFFCURVE",
"-20 0 CURVE SMOOTH"
);
}
);
userData = {
com.schriftgestaltung.Glyphs.glyph.rightMetricsKey = "kaf-hb";
com.schriftgestaltung.hints = (
{
horizontal = 1;
options = 0;
origin = (
0,
8
);
stem = -2;
type = Tag;
}
);
};
width = 395;
}
);
leftKerningGroup = tethebrew;
rightKerningGroup = tethebrew;
unicode = 05D8;
userData = {
com.typemytype.robofont.guides = (
{
angle = 0;
isGlobal = 0;
magnetic = 5;
x = 0;
y = 571;
},
{
angle = 0;
isGlobal = 0;
magnetic = 5;
x = 0;
y = 581;
},
{
angle = 90;
isGlobal = 0;
magnetic = 5;
x = 196;
y = 0;
},
{
angle = 90;
isGlobal = 0;
magnetic = 5;
x = 65;
y = 0;
}
);
};
},
{
color = 5;
glyphname = "yod-hb";
layers = (
{
anchors = (
{
name = bottom;
position = "{36, 0}";
},
{
name = bottomleft;
position = "{-60, 0}";
},
{
name = center;
position = "{-37, 138}";
},
{
name = top;
position = "{117, 180}";
},
{
name = topleft;
position = "{20, 180}";
}
);
layerId = "FF2DC345-5101-49B6-97F3-57A040F7C387";
paths = (
{
closed = 1;
nodes = (
"2 85 OFFCURVE",
"0 90 OFFCURVE",
"0 102 CURVE SMOOTH",
"0 117 OFFCURVE",
"6 127 OFFCURVE",
"27 201 CURVE SMOOTH",
"34 226 OFFCURVE",
"58 227 OFFCURVE",
"80 227 CURVE SMOOTH",
"102 227 OFFCURVE",
"117 227 OFFCURVE",
"117 204 CURVE SMOOTH",
"117 159 OFFCURVE",
"59 85 OFFCURVE",
"22 85 CURVE SMOOTH"
);
}
);
userData = {
com.schriftgestaltung.hints = (
{
horizontal = 1;
options = 0;
origin = (
0,
4
);
stem = -2;
type = Tag;
}
);
};
width = 150;
},
{
anchors = (
{
name = bottom;
position = "{36, 0}";
},
{
name = bottomleft;
position = "{-60, 0}";
},
{
name = center;
position = "{-37, 138}";
},
{
name = top;
position = "{117, 180}";
},
{
name = topleft;
position = "{20, 180}";
}
);
associatedMasterId = "FF2DC345-5101-49B6-97F3-57A040F7C387";
layerId = "EE1C8EE7-7C03-45D7-9516-9C316EC94C1E";
name = "Mar 16, 22, 22:31";
paths = (
{
closed = 1;
nodes = (
"2 85 OFFCURVE",
"0 90 OFFCURVE",
"0 102 CURVE SMOOTH",
"0 117 OFFCURVE",
"0 105 OFFCURVE",
"27 201 CURVE SMOOTH",
"33 226 OFFCURVE",
"58 227 OFFCURVE",
"80 227 CURVE SMOOTH",
"102 227 OFFCURVE",
"117 227 OFFCURVE",
"117 204 CURVE SMOOTH",
"117 159 OFFCURVE",
"59 85 OFFCURVE",
"22 85 CURVE SMOOTH"
);
}
);
userData = {
com.schriftgestaltung.hints = (
{
horizontal = 1;
options = 0;
origin = (
0,
4
);
stem = -2;
type = Tag;
}
);
};
visible = 1;
width = 150;
}
);
leftKerningGroup = yodhebrew;
rightKerningGroup = yodhebrew;
unicode = 05D9;
userData = {
com.typemytype.robofont.guides = (
{
angle = 0;
isGlobal = 0;
magnetic = 5;
x = 0;
y = 240;
}
);
};
},
{
color = 5;
glyphname = "finalkaf-hb";
layers = (
{
anchors = (
{
name = bottom;
position = "{321, -29}";
},
{
name = bottomleft;
position = "{0, 0}";
},
{
name = center;
position = "{43, 84}";
},
{
name = top;
position = "{303, 310}";
},
{
name = topleft;
position = "{70, 310}";
}
);
layerId = "FF2DC345-5101-49B6-97F3-57A040F7C387";
paths = (
{
closed = 1;
nodes = (
"-8 -413 OFFCURVE",
"-16 -406 OFFCURVE",
"-16 -396 CURVE SMOOTH",
"-16 -390 OFFCURVE",
"-12 -383 OFFCURVE",
"-5 -375 CURVE SMOOTH",
"84 -286 OFFCURVE",
"59 -112 OFFCURVE",
"177 159 CURVE SMOOTH",
"183 173 OFFCURVE",
"185 184 OFFCURVE",
"185 193 CURVE SMOOTH",
"185 222 OFFCURVE",
"157 231 OFFCURVE",
"125 231 CURVE SMOOTH",
"71 231 OFFCURVE",
"60 217 OFFCURVE",
"12 217 CURVE SMOOTH",
"-36 217 OFFCURVE",
"-53 236 OFFCURVE",
"-53 256 CURVE SMOOTH",
"-53 282 OFFCURVE",
"-27 298 OFFCURVE",
"-5 298 CURVE SMOOTH",
"19 298 OFFCURVE",
"45 273 OFFCURVE",
"69 273 CURVE SMOOTH",
"100 273 OFFCURVE",
"147 283 OFFCURVE",
"187 283 CURVE SMOOTH",
"232 283 OFFCURVE",
"269 271 OFFCURVE",
"269 223 CURVE SMOOTH",
"269 206 OFFCURVE",
"264 184 OFFCURVE",
"253 156 CURVE SMOOTH",
"137 -136 OFFCURVE",
"185 -261 OFFCURVE",
"29 -402 CURVE SMOOTH",
"20 -410 OFFCURVE",
"11 -413 OFFCURVE",
"4 -413 CURVE SMOOTH"
);
}
);
userData = {
com.schriftgestaltung.Glyphs.glyph.rightMetricsKey = "het-hb";
com.schriftgestaltung.hints = (
{
horizontal = 1;
options = 0;
place = (
549,
0
);
stem = -2;
type = Tag;
}
);
};
width = 304;
},
{
anchors = (
{
name = bottom;
position = "{321, -29}";
},
{
name = bottomleft;
position = "{0, 0}";
},
{
name = center;
position = "{43, 84}";
},
{
name = top;
position = "{303, 310}";
},
{
name = topleft;
position = "{70, 310}";
}
);
associatedMasterId = "FF2DC345-5101-49B6-97F3-57A040F7C387";
layerId = "C7828AF6-116C-4B5B-A360-A86E5537C4C4";
name = "Mar 16, 22, 23:11";
paths = (
{
closed = 1;
nodes = (
"137 -136 OFFCURVE",
"185 -261 OFFCURVE",
"29 -402 CURVE SMOOTH",
"20 -410 OFFCURVE",
"11 -413 OFFCURVE",
"4 -413 CURVE SMOOTH",
"-8 -413 OFFCURVE",
"-16 -406 OFFCURVE",
"-16 -396 CURVE SMOOTH",
"-16 -390 OFFCURVE",
"-12 -383 OFFCURVE",
"-5 -375 CURVE SMOOTH",
"84 -286 OFFCURVE",
"59 -112 OFFCURVE",
"177 159 CURVE SMOOTH",
"183 173 OFFCURVE",
"185 184 OFFCURVE",
"185 193 CURVE SMOOTH",
"185 222 OFFCURVE",
"157 231 OFFCURVE",
"125 231 CURVE SMOOTH",
"87 231 OFFCURVE",
"43 219 OFFCURVE",
"35 218 CURVE SMOOTH",
"26 217 OFFCURVE",
"19 217 OFFCURVE",
"12 217 CURVE SMOOTH",
"-36 217 OFFCURVE",
"-53 236 OFFCURVE",
"-53 256 CURVE SMOOTH",
"-53 273 OFFCURVE",
"-40 290 OFFCURVE",
"-22 295 CURVE SMOOTH",
"-16 297 OFFCURVE",
"-10 298 OFFCURVE",
"-5 298 CURVE SMOOTH",
"21 298 OFFCURVE",
"20 273 OFFCURVE",
"67 273 CURVE SMOOTH",
"68 273 OFFCURVE",
"68 273 OFFCURVE",
"69 273 CURVE SMOOTH",
"100 273 OFFCURVE",
"147 283 OFFCURVE",
"187 283 CURVE SMOOTH",
"232 283 OFFCURVE",
"269 271 OFFCURVE",
"269 223 CURVE SMOOTH",
"269 206 OFFCURVE",
"264 184 OFFCURVE",
"253 156 CURVE SMOOTH"
);
}
);
userData = {
com.schriftgestaltung.Glyphs.glyph.rightMetricsKey = "het-hb";
com.schriftgestaltung.hints = (
{
horizontal = 1;
options = 0;
place = (
549,
0
);
stem = -2;
type = Tag;
}
);
};
width = 304;
}
);
leftKerningGroup = dalethebrew;
rightKerningGroup = dalethebrew;
unicode = 05DA;
userData = {
com.typemytype.robofont.guides = (
{
angle = 0;
isGlobal = 0;
magnetic = 5;
x = 0;
y = 61;
}
);
};
},
{
color = 6;
glyphname = "kaf-hb";
layers = (
{
anchors = (
{
name = bottom;
position = "{260, 0}";
},
{
name = bottomleft;
position = "{52, 0}";
},
{
name = center;
position = "{241, 260}";
},
{
name = top;
position = "{259, 520}";
},
{
name = topleft;
position = "{52, 520}";
}
);
layerId = "FF2DC345-5101-49B6-97F3-57A040F7C387";
paths = (
{
closed = 1;
nodes = (
"248 0 LINE SMOOTH",
"424 0 OFFCURVE",
"498 93 OFFCURVE",
"503 248 CURVE SMOOTH",
"504 276 OFFCURVE",
"504 295 OFFCURVE",
"503 323 CURVE SMOOTH",
"498 478 OFFCURVE",
"424 571 OFFCURVE",
"248 571 CURVE SMOOTH",
"100 571 LINE SMOOTH",
"86 571 OFFCURVE",
"77 561 OFFCURVE",
"77 548 CURVE SMOOTH",
"77 512 LINE SMOOTH",
"77 499 OFFCURVE",
"86 489 OFFCURVE",
"100 489 CURVE SMOOTH",
"243 489 LINE SMOOTH",
"362 489 OFFCURVE",
"410 427 OFFCURVE",
"414 320 CURVE SMOOTH",
"415 292 OFFCURVE",
"415 279 OFFCURVE",
"414 251 CURVE",
"409 144 OFFCURVE",
"362 82 OFFCURVE",
"243 82 CURVE SMOOTH",
"100 82 LINE SMOOTH",
"86 82 OFFCURVE",
"77 72 OFFCURVE",
"77 59 CURVE SMOOTH",
"77 23 LINE SMOOTH",
"77 10 OFFCURVE",
"86 0 OFFCURVE",
"100 0 CURVE SMOOTH"
);
}
);
userData = {
com.schriftgestaltung.hints = (
{
horizontal = 1;
options = 0;
origin = (
0,
6
);
stem = -2;
type = Tag;
}
);
};
width = 558.125;
}
);
leftKerningGroup = kafhebrew;
rightKerningGroup = kafhebrew;
unicode = 05DB;
userData = {
com.typemytype.robofont.guides = (
{
angle = 0;
isGlobal = 0;
magnetic = 5;
x = 0;
y = 590;
},
{
angle = 90;
isGlobal = 0;
magnetic = 5;
x = 40;
y = 0;
}
);
};
},
{
color = 6;
glyphname = "lamed-hb";
layers = (
{
anchors = (
{
name = bottom;
position = "{254, 0}";
},
{
name = bottomleft;
position = "{63, 0}";
},
{
name = center;
position = "{211, 260}";
},
{
name = top;
position = "{234, 520}";
},
{
name = topleft;
position = "{18, 520}";
}
);
layerId = "FF2DC345-5101-49B6-97F3-57A040F7C387";
paths = (
{
closed = 1;
nodes = (
"241 5 LINE SMOOTH",
"359 43 OFFCURVE",
"470 125 OFFCURVE",
"470 311 CURVE",
"470 497 OFFCURVE",
"406 571 OFFCURVE",
"224 571 CURVE",
"180 571 LINE",
"167 571 OFFCURVE",
"157 561 OFFCURVE",
"157 548 CURVE SMOOTH",
"157 512 LINE",
"157 499 OFFCURVE",
"166 489 OFFCURVE",
"180 489 CURVE",
"210 489 LINE",
"335 489 OFFCURVE",
"377 444 OFFCURVE",
"377 314 CURVE",
"377 178 OFFCURVE",
"315 129 OFFCURVE",
"236 97 CURVE SMOOTH",
"197 82 LINE SMOOTH",
"182 76 OFFCURVE",
"175 66 OFFCURVE",
"175 55 CURVE SMOOTH",
"175 9 LINE SMOOTH",
"175 -5 OFFCURVE",
"187 -13 OFFCURVE",
"200 -9 CURVE SMOOTH"
);
},
{
closed = 1;
nodes = (
"204 571 LINE",
"148 571 LINE",
"148 687 LINE",
"148 700 OFFCURVE",
"139 710 OFFCURVE",
"125 710 CURVE SMOOTH",
"83 710 LINE SMOOTH",
"69 710 OFFCURVE",
"60 700 OFFCURVE",
"60 687 CURVE SMOOTH",
"60 512 LINE SMOOTH",
"60 499 OFFCURVE",
"69 490 OFFCURVE",
"83 490 CURVE",
"202 489 LINE"
);
}
);
userData = {
com.schriftgestaltung.Glyphs.glyph.rightMetricsKey = "kaf-hb";
};
width = 523.875;
}
);
leftKerningGroup = lamedhebrew;
rightKerningGroup = lamedhebrew;
unicode = 05DC;
userData = {
com.typemytype.robofont.guides = (
{
angle = 0;
isGlobal = 0;
magnetic = 5;
x = 0;
y = 710;
},
{
angle = 90;
isGlobal = 0;
magnetic = 5;
x = 464;
y = 0;
}
);
};
},
{
color = 6;
glyphname = "finalmem-hb";
layers = (
{
anchors = (
{
name = bottom;
position = "{308, 0}";
},
{
name = bottomleft;
position = "{20, 0}";
},
{
name = center;
position = "{308, 260}";
},
{
name = top;
position = "{308, 520}";
},
{
name = topleft;
position = "{20, 520}";
}
);
layerId = "FF2DC345-5101-49B6-97F3-57A040F7C387";
paths = (
{
closed = 1;
nodes = (
"521 0 LINE SMOOTH",
"535 0 OFFCURVE",
"544 10 OFFCURVE",
"544 23 CURVE SMOOTH",
"544 327 LINE SMOOTH",
"544 488 OFFCURVE",
"463 571 OFFCURVE",
"291 571 CURVE SMOOTH",
"100 571 LINE SMOOTH",
"87 571 OFFCURVE",
"77 561 OFFCURVE",
"77 548 CURVE",
"77 23 LINE SMOOTH",
"77 10 OFFCURVE",
"87 0 OFFCURVE",
"100 0 CURVE SMOOTH"
);
},
{
closed = 1;
nodes = (
"163 491 LINE",
"286 491 LINE SMOOTH",
"405 491 OFFCURVE",
"455 429 OFFCURVE",
"455 322 CURVE SMOOTH",
"455 80 LINE",
"163 80 LINE"
);
}
);
userData = {
com.schriftgestaltung.Glyphs.glyph.rightMetricsKey = "het-hb";
com.schriftgestaltung.hints = (
{
horizontal = 1;
options = 0;
origin = (
0,
11
);
stem = -2;
type = Tag;
}
);
};
width = 615.5;
}
);
leftKerningGroup = hethebrew;
rightKerningGroup = vavhebrew;
unicode = 05DD;
userData = {
com.typemytype.robofont.guides = (
{
angle = 0;
isGlobal = 0;
magnetic = 5;
x = 0;
y = 853;
},
{
angle = 0;
isGlobal = 0;
magnetic = 5;
x = 0;
y = 58;
}
);
};
},
{
color = 6;
glyphname = "mem-hb";
layers = (
{
anchors = (
{
name = bottom;
position = "{319, 0}";
},
{
name = bottomleft;
position = "{9, 0}";
},
{
name = center;
position = "{311, 254}";
},
{
name = top;
position = "{306, 520}";
},
{
name = topleft;
position = "{9, 520}";
}
);
layerId = "FF2DC345-5101-49B6-97F3-57A040F7C387";
paths = (
{
closed = 1;
nodes = (
"403 489 OFFCURVE",
"461 422 OFFCURVE",
"461 321 CURVE SMOOTH",
"461 80 LINE",
"271 80 LINE SMOOTH",
"258 80 OFFCURVE",
"248 70 OFFCURVE",
"248 57 CURVE SMOOTH",
"248 23 LINE SMOOTH",
"248 10 OFFCURVE",
"258 0 OFFCURVE",
"271 0 CURVE SMOOTH",
"529 0 LINE SMOOTH",
"543 0 OFFCURVE",
"552 10 OFFCURVE",
"552 23 CURVE SMOOTH",
"552 327 LINE SMOOTH",
"552 481 OFFCURVE",
"462 571 OFFCURVE",
"338 571 CURVE",
"84 571 LINE SMOOTH",
"70 571 OFFCURVE",
"61 561 OFFCURVE",
"61 548 CURVE SMOOTH",
"61 512 LINE SMOOTH",
"61 499 OFFCURVE",
"70 489 OFFCURVE",
"84 489 CURVE SMOOTH",
"327 489 LINE"
);
},
{
closed = 1;
nodes = (
"119 0 LINE SMOOTH",
"132 0 OFFCURVE",
"143 10 OFFCURVE",
"145 24 CURVE SMOOTH",
"225 505 LINE",
"228 518 OFFCURVE",
"218 530 OFFCURVE",
"205 531 CURVE SMOOTH",
"165 533 LINE SMOOTH",
"152 535 OFFCURVE",
"142 527 OFFCURVE",
"139 514 CURVE SMOOTH",
"54 24 LINE SMOOTH",
"52 10 OFFCURVE",
"62 0 OFFCURVE",
"74 0 CURVE SMOOTH"
);
}
);
userData = {
com.schriftgestaltung.Glyphs.glyph.rightMetricsKey = "het-hb";
com.schriftgestaltung.hints = (
{
horizontal = 1;
options = 0;
place = (
15,
0
);
stem = -2;
type = Tag;
}
);
};
width = 623.3125;
}
);
leftKerningGroup = hethebrew;
rightKerningGroup = memhebrew;
unicode = 05DE;
userData = {
com.typemytype.robofont.guides = (
{
angle = 90;
isGlobal = 0;
magnetic = 5;
x = 50;
y = 0;
},
{
angle = 90;
isGlobal = 0;
magnetic = 5;
x = 576;
y = 0;
}
);
};
},
{
color = 6;
glyphname = "finalnun-hb";
layers = (
{
anchors = (
{
name = bottom;
position = "{123, 0}";
},
{
name = bottomleft;
position = "{20, 0}";
},
{
name = center;
position = "{123, 260}";
},
{
name = top;
position = "{123, 520}";
},
{
name = topleft;
position = "{20, 520}";
}
);
layerId = "FF2DC345-5101-49B6-97F3-57A040F7C387";
paths = (
{
closed = 1;
nodes = (
"146 -124 LINE SMOOTH",
"159 -124 OFFCURVE",
"168 -114 OFFCURVE",
"168 -101 CURVE",
"168 548 LINE SMOOTH",
"168 561 OFFCURVE",
"159 571 OFFCURVE",
"146 571 CURVE SMOOTH",
"100 571 LINE SMOOTH",
"87 571 OFFCURVE",
"77 561 OFFCURVE",
"77 548 CURVE SMOOTH",
"77 -101 LINE SMOOTH",
"77 -114 OFFCURVE",
"87 -124 OFFCURVE",
"100 -124 CURVE SMOOTH"
);
}
);
userData = {
com.schriftgestaltung.hints = (
{
horizontal = 1;
options = 0;
origin = (
0,
3
);
stem = -2;
type = Tag;
}
);
};
width = 245.5;
}
);
leftKerningGroup = vavhebrew;
rightKerningGroup = vavhebrew;
unicode = 05DF;
},
{
color = 6;
glyphname = "nun-hb";
layers = (
{
anchors = (
{
name = bottom;
position = "{204, 0}";
},
{
name = bottomleft;
position = "{20, 0}";
},
{
name = center;
position = "{167, 260}";
},
{
name = top;
position = "{203, 520}";
},
{
name = topleft;
position = "{20, 520}";
}
);
layerId = "FF2DC345-5101-49B6-97F3-57A040F7C387";
paths = (
{
closed = 1;
nodes = (
"327 0 LINE SMOOTH",
"340 0 OFFCURVE",
"350 6 OFFCURVE",
"350 19 CURVE SMOOTH",
"350 80 LINE",
"68 80 LINE SMOOTH",
"55 80 OFFCURVE",
"45 70 OFFCURVE",
"45 57 CURVE SMOOTH",
"45 23 LINE SMOOTH",
"45 10 OFFCURVE",
"55 0 OFFCURVE",
"68 0 CURVE SMOOTH"
);
},
{
closed = 1;
nodes = (
"337 0 LINE SMOOTH",
"350 0 OFFCURVE",
"361 10 OFFCURVE",
"360 23 CURVE",
"341 335 LINE SMOOTH",
"332 479 OFFCURVE",
"306 573 OFFCURVE",
"155 573 CURVE SMOOTH",
"113 573 LINE SMOOTH",
"100 573 OFFCURVE",
"90 563 OFFCURVE",
"90 550 CURVE SMOOTH",
"90 516 LINE SMOOTH",
"90 503 OFFCURVE",
"100 493 OFFCURVE",
"113 493 CURVE SMOOTH",
"154 493 LINE SMOOTH",
"239 493 OFFCURVE",
"241 430 OFFCURVE",
"247 332 CURVE SMOOTH",
"266 23 LINE",
"269 10 OFFCURVE",
"276 0 OFFCURVE",
"289 0 CURVE SMOOTH"
);
}
);
userData = {
com.schriftgestaltung.hints = (
{
horizontal = 1;
options = 0;
place = (
559,
0
);
stem = -2;
type = Tag;
}
);
};
width = 407.25;
}
);
leftKerningGroup = hethebrew;
rightKerningGroup = nunhebrew;
unicode = 05E0;
userData = {
com.typemytype.robofont.guides = (
{
angle = 90;
isGlobal = 0;
magnetic = 5;
x = 361;
y = 0;
},
{
angle = 90;
isGlobal = 0;
magnetic = 5;
x = 45;
y = 0;
}
);
};
},
{
color = 6;
glyphname = "samekh-hb";
layers = (
{
anchors = (
{
name = bottom;
position = "{315, 0}";
},
{
name = bottomleft;
position = "{20, 0}";
},
{
name = center;
position = "{317, 260}";
},
{
name = top;
position = "{315, 520}";
},
{
name = topleft;
position = "{20, 520}";
}
);
layerId = "FF2DC345-5101-49B6-97F3-57A040F7C387";
paths = (
{
closed = 1;
nodes = (
"505 -10 OFFCURVE",
"578 73 OFFCURVE",
"582 227 CURVE",
"583 247 OFFCURVE",
"583 315 OFFCURVE",
"582 335 CURVE SMOOTH",
"576 488 OFFCURVE",
"513 571 OFFCURVE",
"335 571 CURVE",
"94 571 LINE SMOOTH",
"81 571 OFFCURVE",
"71 561 OFFCURVE",
"71 548 CURVE SMOOTH",
"71 240 LINE SMOOTH",
"71 81 OFFCURVE",
"151 -10 OFFCURVE",
"318 -10 CURVE SMOOTH"
);
},
{
closed = 1;
nodes = (
"211 72 OFFCURVE",
"159 133 OFFCURVE",
"159 240 CURVE SMOOTH",
"159 491 LINE",
"330 491 LINE SMOOTH",
"428 491 OFFCURVE",
"490 437 OFFCURVE",
"493 330 CURVE",
"494 310 OFFCURVE",
"494 252 OFFCURVE",
"493 232 CURVE",
"490 124 OFFCURVE",
"444 72 OFFCURVE",
"318 72 CURVE SMOOTH"
);
}
);
userData = {
com.schriftgestaltung.Glyphs.glyph.rightMetricsKey = "kaf-hb";
com.schriftgestaltung.hints = (
{
horizontal = 1;
options = 0;
origin = (
0,
8
);
stem = -2;
type = Tag;
}
);
};
width = 637.3125;
}
);
leftKerningGroup = tethebrew;
rightKerningGroup = tethebrew;
unicode = 05E1;
userData = {
com.typemytype.robofont.guides = (
{
angle = 90;
isGlobal = 0;
magnetic = 5;
x = 65;
y = 0;
},
{
angle = 90;
isGlobal = 0;
magnetic = 5;
x = 509;
y = 0;
}
);
};
},
{
color = 6;
glyphname = "ayin-hb";
layers = (
{
anchors = (
{
name = bottom;
position = "{309, 0}";
},
{
name = bottomleft;
position = "{20, 0}";
},
{
name = center;
position = "{351, 260}";
},
{
name = top;
position = "{351, 520}";
},
{
name = topleft;
position = "{20, 520}";
}
);
layerId = "FF2DC345-5101-49B6-97F3-57A040F7C387";
paths = (
{
closed = 1;
nodes = (
"292 13 LINE SMOOTH",
"424 52 OFFCURVE",
"507 154 OFFCURVE",
"507 271 CURVE SMOOTH",
"507 548 LINE SMOOTH",
"507 561 OFFCURVE",
"498 571 OFFCURVE",
"484 571 CURVE SMOOTH",
"439 571 LINE SMOOTH",
"425 571 OFFCURVE",
"416 562 OFFCURVE",
"416 548 CURVE SMOOTH",
"416 299 LINE SMOOTH",
"416 204 OFFCURVE",
"386 131 OFFCURVE",
"272 93 CURVE SMOOTH",
"61 24 LINE SMOOTH",
"49 20 OFFCURVE",
"44 8 OFFCURVE",
"44 -4 CURVE SMOOTH",
"44 -38 LINE SMOOTH",
"44 -51 OFFCURVE",
"59 -60 OFFCURVE",
"72 -55 CURVE SMOOTH"
);
},
{
closed = 1;
nodes = (
"288 47 LINE",
"149 556 LINE SMOOTH",
"147 564 OFFCURVE",
"139 571 OFFCURVE",
"126 571 CURVE SMOOTH",
"77 571 LINE SMOOTH",
"66 571 OFFCURVE",
"57 562 OFFCURVE",
"57 551 CURVE SMOOTH",
"57 546 OFFCURVE",
"59 541 OFFCURVE",
"62 531 CURVE SMOOTH",
"203 24 LINE"
);
}
);
userData = {
com.schriftgestaltung.hints = (
{
horizontal = 1;
options = 0;
place = (
556,
0
);
stem = -2;
type = Tag;
}
);
};
width = 578.3125;
}
);
unicode = 05E2;
userData = {
com.typemytype.robofont.guides = (
{
angle = 0;
isGlobal = 0;
magnetic = 5;
x = 0;
y = 571;
},
{
angle = 90;
isGlobal = 0;
magnetic = 5;
x = 40;
y = 0;
}
);
};
},
{
color = 6;
glyphname = "finalpe-hb";
layers = (
{
anchors = (
{
name = bottom;
position = "{285, 0}";
},
{
name = bottomleft;
position = "{20, 0}";
},
{
name = center;
position = "{325, 249}";
},
{
name = top;
position = "{285, 520}";
},
{
name = topleft;
position = "{20, 520}";
}
);
layerId = "FF2DC345-5101-49B6-97F3-57A040F7C387";
paths = (
{
closed = 1;
nodes = (
"243 490 LINE",
"362 490 OFFCURVE",
"412 427 OFFCURVE",
"413 320 CURVE SMOOTH",
"413 -101 LINE SMOOTH",
"413 -114 OFFCURVE",
"423 -124 OFFCURVE",
"436 -124 CURVE SMOOTH",
"480 -124 LINE SMOOTH",
"493 -124 OFFCURVE",
"503 -114 OFFCURVE",
"503 -101 CURVE SMOOTH",
"503 323 LINE SMOOTH",
"501 478 OFFCURVE",
"424 571 OFFCURVE",
"251 571 CURVE",
"93 571 LINE",
"79 571 OFFCURVE",
"70 562 OFFCURVE",
"70 548 CURVE SMOOTH",
"70 394 LINE",
"70 290 OFFCURVE",
"106 234 OFFCURVE",
"171 220 CURVE SMOOTH",
"213 212 LINE SMOOTH",
"227 209 OFFCURVE",
"245 215 OFFCURVE",
"245 229 CURVE SMOOTH",
"245 256 LINE SMOOTH",
"245 272 OFFCURVE",
"239 284 OFFCURVE",
"228 287 CURVE SMOOTH",
"191 297 LINE SMOOTH",
"160 305 OFFCURVE",
"151 340 OFFCURVE",
"151 391 CURVE",
"151 489 LINE"
);
}
);
userData = {
com.schriftgestaltung.Glyphs.glyph.rightMetricsKey = "het-hb";
};
width = 573.75;
}
);
leftKerningGroup = hethebrew;
unicode = 05E3;
userData = {
com.typemytype.robofont.guides = (
{
angle = 0;
isGlobal = 0;
magnetic = 5;
x = 0;
y = 571;
},
{
angle = 90;
isGlobal = 0;
magnetic = 5;
x = 1818;
y = 0;
}
);
};
},
{
color = 6;
glyphname = "finalpedagesh-hb";
layers = (
{
anchors = (
{
name = bottom;
position = "{285, 0}";
},
{
name = bottomleft;
position = "{20, 0}";
},
{
name = center;
position = "{325, 249}";
},
{
name = top;
position = "{285, 520}";
},
{
name = topleft;
position = "{20, 520}";
}
);
layerId = "FF2DC345-5101-49B6-97F3-57A040F7C387";
paths = (
{
closed = 1;
nodes = (
"340 241 LINE SMOOTH",
"353 241 OFFCURVE",
"362 250 OFFCURVE",
"362 263 CURVE SMOOTH",
"362 294 LINE SMOOTH",
"362 307 OFFCURVE",
"353 316 OFFCURVE",
"340 316 CURVE SMOOTH",
"309 316 LINE SMOOTH",
"296 316 OFFCURVE",
"287 307 OFFCURVE",
"287 294 CURVE SMOOTH",
"287 263 LINE SMOOTH",
"287 250 OFFCURVE",
"296 241 OFFCURVE",
"309 241 CURVE SMOOTH"
);
},
{
closed = 1;
nodes = (
"243 490 LINE",
"362 490 OFFCURVE",
"412 427 OFFCURVE",
"413 320 CURVE SMOOTH",
"413 -101 LINE SMOOTH",
"413 -114 OFFCURVE",
"423 -124 OFFCURVE",
"436 -124 CURVE SMOOTH",
"480 -124 LINE SMOOTH",
"493 -124 OFFCURVE",
"503 -114 OFFCURVE",
"503 -101 CURVE SMOOTH",
"503 323 LINE SMOOTH",
"501 478 OFFCURVE",
"424 571 OFFCURVE",
"251 571 CURVE",
"93 571 LINE",
"79 571 OFFCURVE",
"70 562 OFFCURVE",
"70 548 CURVE SMOOTH",
"70 394 LINE",
"70 290 OFFCURVE",
"106 234 OFFCURVE",
"171 220 CURVE SMOOTH",
"213 212 LINE SMOOTH",
"227 209 OFFCURVE",
"245 215 OFFCURVE",
"245 229 CURVE SMOOTH",
"245 256 LINE SMOOTH",
"245 272 OFFCURVE",
"239 284 OFFCURVE",
"228 287 CURVE SMOOTH",
"191 297 LINE SMOOTH",
"160 305 OFFCURVE",
"151 340 OFFCURVE",
"151 391 CURVE",
"151 489 LINE"
);
}
);
width = 574.7;
}
);
unicode = FB43;
},
{
color = 6;
glyphname = "pe-hb";
layers = (
{
anchors = (
{
name = bottom;
position = "{277, 0}";
},
{
name = bottomleft;
position = "{21, 0}";
},
{
name = center;
position = "{333, 244}";
},
{
name = top;
position = "{277, 520}";
},
{
name = topleft;
position = "{21, 520}";
}
);
layerId = "FF2DC345-5101-49B6-97F3-57A040F7C387";
paths = (
{
closed = 1;
nodes = (
"280 489 LINE",
"373 489 OFFCURVE",
"425 427 OFFCURVE",
"428 320 CURVE SMOOTH",
"429 300 OFFCURVE",
"429 271 OFFCURVE",
"428 251 CURVE SMOOTH",
"423 144 OFFCURVE",
"373 82 OFFCURVE",
"280 82 CURVE",
"112 82 LINE",
"99 82 OFFCURVE",
"89 72 OFFCURVE",
"89 59 CURVE",
"89 23 LINE",
"89 10 OFFCURVE",
"99 0 OFFCURVE",
"112 0 CURVE",
"285 0 LINE",
"436 0 OFFCURVE",
"510 93 OFFCURVE",
"514 248 CURVE SMOOTH",
"515 268 OFFCURVE",
"515 303 OFFCURVE",
"514 323 CURVE SMOOTH",
"510 478 OFFCURVE",
"436 571 OFFCURVE",
"285 571 CURVE",
"100 571 LINE",
"86 571 OFFCURVE",
"77 561 OFFCURVE",
"77 548 CURVE SMOOTH",
"77 414 LINE",
"77 314 OFFCURVE",
"113 258 OFFCURVE",
"178 244 CURVE SMOOTH",
"217 236 LINE SMOOTH",
"234 233 OFFCURVE",
"252 240 OFFCURVE",
"252 255 CURVE SMOOTH",
"252 280 LINE SMOOTH",
"252 296 OFFCURVE",
"246 308 OFFCURVE",
"235 311 CURVE SMOOTH",
"198 321 LINE SMOOTH",
"168 329 OFFCURVE",
"159 362 OFFCURVE",
"158 411 CURVE",
"158 489 LINE"
);
}
);
userData = {
com.schriftgestaltung.Glyphs.glyph.rightMetricsKey = "kaf-hb";
com.schriftgestaltung.hints = (
{
horizontal = 1;
options = 0;
origin = (
0,
24
);
stem = -2;
type = Tag;
}
);
};
width = 569.375;
}
);
leftKerningGroup = tethebrew;
rightKerningGroup = pehebrew;
unicode = 05E4;
userData = {
com.typemytype.robofont.guides = (
{
angle = 90;
isGlobal = 0;
magnetic = 5;
x = 70;
y = 0;
}
);
};
},
{
color = 6;
glyphname = "pedagesh-hb";
layers = (
{
anchors = (
{
name = bottom;
position = "{277, 0}";
},
{
name = bottomleft;
position = "{21, 0}";
},
{
name = center;
position = "{333, 244}";
},
{
name = top;
position = "{277, 520}";
},
{
name = topleft;
position = "{21, 520}";
}
);
layerId = "FF2DC345-5101-49B6-97F3-57A040F7C387";
paths = (
{
closed = 1;
nodes = (
"348 236 LINE SMOOTH",
"361 236 OFFCURVE",
"370 245 OFFCURVE",
"370 258 CURVE SMOOTH",
"370 289 LINE SMOOTH",
"370 302 OFFCURVE",
"361 311 OFFCURVE",
"348 311 CURVE SMOOTH",
"318 311 LINE SMOOTH",
"305 311 OFFCURVE",
"296 302 OFFCURVE",
"296 289 CURVE SMOOTH",
"296 258 LINE SMOOTH",
"296 245 OFFCURVE",
"305 236 OFFCURVE",
"318 236 CURVE SMOOTH"
);
},
{
closed = 1;
nodes = (
"280 489 LINE",
"373 489 OFFCURVE",
"425 427 OFFCURVE",
"428 320 CURVE SMOOTH",
"429 300 OFFCURVE",
"429 271 OFFCURVE",
"428 251 CURVE SMOOTH",
"423 144 OFFCURVE",
"373 82 OFFCURVE",
"280 82 CURVE",
"112 82 LINE",
"99 82 OFFCURVE",
"89 72 OFFCURVE",
"89 59 CURVE",
"89 23 LINE",
"89 10 OFFCURVE",
"99 0 OFFCURVE",
"112 0 CURVE",
"285 0 LINE",
"436 0 OFFCURVE",
"510 93 OFFCURVE",
"514 248 CURVE SMOOTH",
"515 268 OFFCURVE",
"515 303 OFFCURVE",
"514 323 CURVE SMOOTH",
"510 478 OFFCURVE",
"436 571 OFFCURVE",
"285 571 CURVE",
"100 571 LINE",
"86 571 OFFCURVE",
"77 561 OFFCURVE",
"77 548 CURVE SMOOTH",
"77 414 LINE",
"77 314 OFFCURVE",
"113 258 OFFCURVE",
"178 244 CURVE SMOOTH",
"217 236 LINE SMOOTH",
"234 233 OFFCURVE",
"252 240 OFFCURVE",
"252 255 CURVE SMOOTH",
"252 280 LINE SMOOTH",
"252 296 OFFCURVE",
"246 308 OFFCURVE",
"235 311 CURVE SMOOTH",
"198 321 LINE SMOOTH",
"168 329 OFFCURVE",
"159 362 OFFCURVE",
"158 411 CURVE",
"158 489 LINE"
);
}
);
width = 569.3;
}
);
leftKerningGroup = tethebrew;
rightKerningGroup = pehebrew;
unicode = FB44;
},
{
color = 6;
glyphname = "finaltsadi-hb";
layers = (
{
anchors = (
{
name = bottom;
position = "{250, 0}";
},
{
name = bottomleft;
position = "{20, 0}";
},
{
name = center;
position = "{250, 260}";
},
{
name = top;
position = "{250, 520}";
},
{
name = topleft;
position = "{20, 520}";
}
);
layerId = "FF2DC345-5101-49B6-97F3-57A040F7C387";
paths = (
{
closed = 1;
nodes = (
"360 -124 LINE SMOOTH",
"371 -124 OFFCURVE",
"380 -115 OFFCURVE",
"380 -104 CURVE SMOOTH",
"380 -99 OFFCURVE",
"379 -95 OFFCURVE",
"375 -85 CURVE SMOOTH",
"264 196 LINE",
"386 219 OFFCURVE",
"460 304 OFFCURVE",
"460 442 CURVE SMOOTH",
"460 548 LINE SMOOTH",
"460 561 OFFCURVE",
"450 571 OFFCURVE",
"437 571 CURVE SMOOTH",
"395 571 LINE SMOOTH",
"382 571 OFFCURVE",
"372 561 OFFCURVE",
"372 548 CURVE SMOOTH",
"372 448 LINE SMOOTH",
"372 349 OFFCURVE",
"328 287 OFFCURVE",
"232 276 CURVE",
"125 547 LINE SMOOTH",
"118 563 OFFCURVE",
"111 571 OFFCURVE",
"97 571 CURVE SMOOTH",
"50 571 LINE SMOOTH",
"39 571 OFFCURVE",
"29 562 OFFCURVE",
"29 551 CURVE SMOOTH",
"29 546 OFFCURVE",
"31 542 OFFCURVE",
"35 533 CURVE SMOOTH",
"286 -107 LINE",
"290 -116 OFFCURVE",
"297 -124 OFFCURVE",
"311 -124 CURVE SMOOTH"
);
}
);
userData = {
com.schriftgestaltung.hints = (
{
horizontal = 1;
options = 0;
origin = (
0,
34
);
stem = -2;
type = Tag;
}
);
};
width = 498.1875;
}
);
unicode = 05E5;
userData = {
com.typemytype.robofont.guides = (
{
angle = 0;
isGlobal = 0;
magnetic = 5;
x = 0;
y = 571;
},
{
angle = 0;
isGlobal = 0;
magnetic = 5;
x = 0;
y = "-124";
},
{
angle = 90;
isGlobal = 0;
magnetic = 5;
x = 28;
y = 0;
},
{
angle = 90;
isGlobal = 0;
magnetic = 5;
x = 431;
y = 0;
}
);
};
},
{
color = 6;
glyphname = "tsadi-hb";
layers = (
{
anchors = (
{
name = bottom;
position = "{265, 0}";
},
{
name = bottomleft;
position = "{20, 0}";
},
{
name = center;
position = "{138, 210}";
},
{
name = top;
position = "{265, 520}";
},
{
name = topleft;
position = "{20, 520}";
}
);
layerId = "FF2DC345-5101-49B6-97F3-57A040F7C387";
paths = (
{
closed = 1;
nodes = (
"441 0 LINE SMOOTH",
"455 0 OFFCURVE",
"464 10 OFFCURVE",
"464 23 CURVE SMOOTH",
"464 56 LINE SMOOTH",
"464 68 OFFCURVE",
"459 77 OFFCURVE",
"452 87 CURVE",
"126 554 LINE",
"121 562 OFFCURVE",
"113 571 OFFCURVE",
"99 571 CURVE",
"51 571 LINE SMOOTH",
"40 571 OFFCURVE",
"30 562 OFFCURVE",
"30 551 CURVE SMOOTH",
"30 546 OFFCURVE",
"32 540 OFFCURVE",
"37 532 CURVE SMOOTH",
"350 81 LINE",
"79 81 LINE SMOOTH",
"66 81 OFFCURVE",
"56 71 OFFCURVE",
"56 58 CURVE SMOOTH",
"56 23 LINE SMOOTH",
"56 10 OFFCURVE",
"66 0 OFFCURVE",
"79 0 CURVE SMOOTH"
);
},
{
closed = 1;
nodes = (
"426 264 OFFCURVE",
"474 341 OFFCURVE",
"474 450 CURVE SMOOTH",
"474 548 LINE SMOOTH",
"474 561 OFFCURVE",
"465 571 OFFCURVE",
"452 571 CURVE SMOOTH",
"410 571 LINE SMOOTH",
"396 571 OFFCURVE",
"387 561 OFFCURVE",
"387 548 CURVE SMOOTH",
"387 462 LINE SMOOTH",
"387 378 OFFCURVE",
"358 317 OFFCURVE",
"288 293 CURVE",
"332 228 LINE"
);
}
);
userData = {
com.schriftgestaltung.hints = (
{
horizontal = 1;
options = 0;
origin = (
0,
11
);
stem = -2;
type = Tag;
}
);
};
width = 533.125;
}
);
leftKerningGroup = tsadihebrew;
rightKerningGroup = tsadihebrew;
unicode = 05E6;
userData = {
com.typemytype.robofont.guides = (
{
angle = 90;
isGlobal = 0;
magnetic = 5;
x = 27;
y = 0;
}
);
};
},
{
color = 6;
glyphname = "qof-hb";
layers = (
{
anchors = (
{
name = bottom;
position = "{376, 0}";
},
{
name = bottomleft;
position = "{20, 0}";
},
{
name = center;
position = "{289, 260}";
},
{
name = top;
position = "{289, 520}";
},
{
name = topleft;
position = "{20, 520}";
}
);
layerId = "FF2DC345-5101-49B6-97F3-57A040F7C387";
paths = (
{
closed = 1;
nodes = (
"144 -191 LINE SMOOTH",
"158 -191 OFFCURVE",
"167 -181 OFFCURVE",
"167 -168 CURVE",
"167 357 LINE SMOOTH",
"167 371 OFFCURVE",
"158 380 OFFCURVE",
"144 380 CURVE SMOOTH",
"100 380 LINE SMOOTH",
"87 380 OFFCURVE",
"77 371 OFFCURVE",
"77 357 CURVE SMOOTH",
"77 -168 LINE SMOOTH",
"77 -181 OFFCURVE",
"87 -191 OFFCURVE",
"100 -191 CURVE SMOOTH"
);
},
{
closed = 1;
nodes = (
"334 5 LINE SMOOTH",
"451 43 OFFCURVE",
"562 125 OFFCURVE",
"562 311 CURVE",
"562 497 OFFCURVE",
"498 571 OFFCURVE",
"316 571 CURVE",
"100 571 LINE",
"87 571 OFFCURVE",
"77 561 OFFCURVE",
"77 548 CURVE SMOOTH",
"77 512 LINE",
"77 499 OFFCURVE",
"87 489 OFFCURVE",
"100 489 CURVE",
"303 489 LINE",
"428 489 OFFCURVE",
"470 444 OFFCURVE",
"470 314 CURVE",
"470 178 OFFCURVE",
"408 129 OFFCURVE",
"328 97 CURVE SMOOTH",
"290 82 LINE SMOOTH",
"275 76 OFFCURVE",
"268 66 OFFCURVE",
"268 55 CURVE SMOOTH",
"268 9 LINE SMOOTH",
"268 -5 OFFCURVE",
"280 -13 OFFCURVE",
"292 -9 CURVE SMOOTH"
);
}
);
userData = {
com.schriftgestaltung.hints = (
{
horizontal = 1;
options = 0;
place = (
513,
0
);
stem = -2;
type = Tag;
}
);
};
width = 626.125;
}
);
leftKerningGroup = lamedhebrew;
rightKerningGroup = vavhebrew;
unicode = 05E7;
userData = {
com.typemytype.robofont.guides = (
{
angle = 0;
isGlobal = 0;
magnetic = 5;
x = 0;
y = "-191";
},
{
angle = 90;
isGlobal = 0;
magnetic = 5;
x = 70;
y = 0;
},
{
angle = 90;
isGlobal = 0;
magnetic = 5;
x = 516;
y = 0;
},
{
angle = 90;
isGlobal = 0;
magnetic = 5;
x = 70;
y = 0;
}
);
};
},
{
color = 6;
glyphname = "resh-hb";
layers = (
{
anchors = (
{
name = bottom;
position = "{420, 0}";
},
{
name = bottomleft;
position = "{61, 0}";
},
{
name = center;
position = "{235, 260}";
},
{
name = top;
position = "{291, 520}";
},
{
name = topleft;
position = "{61, 520}";
}
);
layerId = "FF2DC345-5101-49B6-97F3-57A040F7C387";
paths = (
{
closed = 1;
nodes = (
"445 0 LINE SMOOTH",
"459 0 OFFCURVE",
"468 10 OFFCURVE",
"468 23 CURVE SMOOTH",
"468 327 LINE SMOOTH",
"468 488 OFFCURVE",
"386 571 OFFCURVE",
"213 571 CURVE SMOOTH",
"77 571 LINE SMOOTH",
"64 571 OFFCURVE",
"54 561 OFFCURVE",
"54 548 CURVE SMOOTH",
"54 514 LINE SMOOTH",
"54 501 OFFCURVE",
"64 491 OFFCURVE",
"77 491 CURVE SMOOTH",
"208 491 LINE SMOOTH",
"327 491 OFFCURVE",
"377 429 OFFCURVE",
"377 322 CURVE SMOOTH",
"377 23 LINE SMOOTH",
"377 9 OFFCURVE",
"386 0 OFFCURVE",
"400 0 CURVE SMOOTH"
);
}
);
userData = {
com.schriftgestaltung.Glyphs.glyph.rightMetricsKey = "het-hb";
com.schriftgestaltung.hints = (
{
horizontal = 1;
options = 0;
origin = (
0,
12
);
stem = -2;
type = Tag;
}
);
};
width = 539.25;
}
);
leftKerningGroup = hethebrew;
unicode = 05E8;
userData = {
com.typemytype.robofont.guides = (
{
angle = 0;
isGlobal = 0;
magnetic = 5;
x = 0;
y = 571;
},
{
angle = 90;
isGlobal = 0;
magnetic = 5;
x = 40;
y = 0;
},
{
angle = 90;
isGlobal = 0;
magnetic = 5;
x = 436;
y = 0;
}
);
};
},
{
color = 6;
glyphname = "shin-hb";
layers = (
{
anchors = (
{
name = bottom;
position = "{359, 0}";
},
{
name = bottomleft;
position = "{16, 0}";
},
{
name = center;
position = "{472, 260}";
},
{
name = top;
position = "{367, 520}";
},
{
name = topleft;
position = "{8, 520}";
},
{
name = topright;
position = "{693, 520}";
}
);
layerId = "FF2DC345-5101-49B6-97F3-57A040F7C387";
paths = (
{
closed = 1;
nodes = (
"330 75 LINE SMOOTH",
"231 75 OFFCURVE",
"160 138 OFFCURVE",
"160 253 CURVE",
"157 548 LINE",
"157 562 OFFCURVE",
"147 571 OFFCURVE",
"134 571 CURVE SMOOTH",
"92 571 LINE SMOOTH",
"79 571 OFFCURVE",
"69 561 OFFCURVE",
"69 548 CURVE SMOOTH",
"69 233 LINE SMOOTH",
"69 90 OFFCURVE",
"167 -6 OFFCURVE",
"298 -6 CURVE SMOOTH",
"373 -6 LINE",
"536 -10 OFFCURVE",
"649 100 OFFCURVE",
"649 270 CURVE SMOOTH",
"649 548 LINE",
"649 561 OFFCURVE",
"640 571 OFFCURVE",
"627 571 CURVE SMOOTH",
"585 571 LINE SMOOTH",
"571 571 OFFCURVE",
"562 562 OFFCURVE",
"562 548 CURVE",
"562 277 LINE SMOOTH",
"562 156 OFFCURVE",
"490 72 OFFCURVE",
"361 75 CURVE"
);
},
{
closed = 1;
nodes = (
"320 190 OFFCURVE",
"407 290 OFFCURVE",
"407 420 CURVE SMOOTH",
"407 548 LINE SMOOTH",
"407 561 OFFCURVE",
"398 571 OFFCURVE",
"384 571 CURVE SMOOTH",
"343 571 LINE SMOOTH",
"329 571 OFFCURVE",
"320 561 OFFCURVE",
"320 548 CURVE SMOOTH",
"320 424 LINE SMOOTH",
"320 338 OFFCURVE",
"283 267 OFFCURVE",
"137 265 CURVE",
"139 192 LINE"
);
}
);
userData = {
com.schriftgestaltung.Glyphs.glyph.leftMetricsKey = "het-hb";
com.schriftgestaltung.Glyphs.glyph.rightMetricsKey = "het-hb";
com.schriftgestaltung.hints = (
{
horizontal = 1;
options = 0;
origin = (
0,
4
);
stem = -2;
type = Tag;
}
);
};
width = 712.375;
}
);
leftKerningGroup = lamedhebrew;
rightKerningGroup = shinhebrew;
unicode = 05E9;
userData = {
com.typemytype.robofont.guides = (
{
angle = 0;
isGlobal = 0;
magnetic = 5;
x = 0;
y = 952;
},
{
angle = 0;
isGlobal = 0;
magnetic = 5;
x = 0;
y = 571;
}
);
};
},
{
color = 6;
glyphname = "tav-hb";
layers = (
{
anchors = (
{
name = bottom;
position = "{370, 0}";
},
{
name = bottomleft;
position = "{20, 0}";
},
{
name = center;
position = "{369, 260}";
},
{
name = top;
position = "{362, 520}";
},
{
name = topleft;
position = "{20, 520}";
}
);
layerId = "FF2DC345-5101-49B6-97F3-57A040F7C387";
paths = (
{
closed = 1;
nodes = (
"329 491 LINE",
"447 491 OFFCURVE",
"498 429 OFFCURVE",
"498 322 CURVE SMOOTH",
"498 23 LINE SMOOTH",
"498 9 OFFCURVE",
"507 0 OFFCURVE",
"521 0 CURVE SMOOTH",
"566 0 LINE SMOOTH",
"579 0 OFFCURVE",
"589 10 OFFCURVE",
"589 23 CURVE SMOOTH",
"589 327 LINE SMOOTH",
"589 486 OFFCURVE",
"507 571 OFFCURVE",
"334 571 CURVE SMOOTH",
"117 571 LINE SMOOTH",
"104 571 OFFCURVE",
"94 561 OFFCURVE",
"94 548 CURVE SMOOTH",
"94 514 LINE SMOOTH",
"94 501 OFFCURVE",
"104 491 OFFCURVE",
"117 491 CURVE"
);
},
{
closed = 1;
nodes = (
"187 540 OFFCURVE",
"181 529 OFFCURVE",
"176 515 CURVE SMOOTH",
"154 427 OFFCURVE",
"152 373 OFFCURVE",
"153 291 CURVE",
"153 79 LINE",
"76 80 LINE SMOOTH",
"62 80 OFFCURVE",
"53 70 OFFCURVE",
"53 57 CURVE SMOOTH",
"53 25 LINE SMOOTH",
"53 11 OFFCURVE",
"62 2 OFFCURVE",
"76 2 CURVE SMOOTH",
"218 0 LINE SMOOTH",
"231 0 OFFCURVE",
"241 10 OFFCURVE",
"241 23 CURVE SMOOTH",
"238 295 LINE",
"237 378 OFFCURVE",
"245 430 OFFCURVE",
"261 514 CURVE",
"262 528 OFFCURVE",
"252 540 OFFCURVE",
"232 540 CURVE SMOOTH",
"207 540 LINE SMOOTH"
);
}
);
userData = {
com.schriftgestaltung.Glyphs.glyph.rightMetricsKey = "het-hb";
com.schriftgestaltung.hints = (
{
horizontal = 1;
options = 0;
place = (
513,
0
);
stem = -2;
type = Tag;
}
);
};
width = 660;
}
);
leftKerningGroup = hethebrew;
rightKerningGroup = tavhebrew;
unicode = 05EA;
userData = {
com.typemytype.robofont.guides = (
{
angle = 0;
isGlobal = 0;
magnetic = 5;
x = 0;
y = 571;
},
{
angle = 90;
isGlobal = 0;
magnetic = 5;
x = 576;
y = 0;
},
{
angle = 90;
isGlobal = 0;
magnetic = 5;
x = 50;
y = 0;
}
);
};
},
{
color = 5;
glyphname = zero;
layers = (
{
hints = (
{
horizontal = 1;
origin = "{0, 11}";
type = Tag;
}
);
layerId = "FF2DC345-5101-49B6-97F3-57A040F7C387";
paths = (
{
closed = 1;
nodes = (
"502 -10 OFFCURVE",
"566 115 OFFCURVE",
"571 262 CURVE SMOOTH",
"573 316 OFFCURVE",
"573 382 OFFCURVE",
"571 439 CURVE SMOOTH",
"567 585 OFFCURVE",
"500 710 OFFCURVE",
"317 710 CURVE SMOOTH",
"135 710 OFFCURVE",
"68 585 OFFCURVE",
"64 439 CURVE SMOOTH",
"62 382 OFFCURVE",
"62 316 OFFCURVE",
"64 262 CURVE SMOOTH",
"69 115 OFFCURVE",
"133 -10 OFFCURVE",
"317 -10 CURVE SMOOTH"
);
},
{
closed = 1;
nodes = (
"214 76 OFFCURVE",
"166 149 OFFCURVE",
"163 267 CURVE SMOOTH",
"162 324 OFFCURVE",
"162 378 OFFCURVE",
"163 433 CURVE SMOOTH",
"166 549 OFFCURVE",
"214 625 OFFCURVE",
"317 625 CURVE SMOOTH",
"421 625 OFFCURVE",
"469 549 OFFCURVE",
"471 433 CURVE SMOOTH",
"473 378 OFFCURVE",
"473 324 OFFCURVE",
"471 267 CURVE SMOOTH",
"469 149 OFFCURVE",
"420 76 OFFCURVE",
"317 76 CURVE SMOOTH"
);
}
);
width = 635.125;
}
);
unicode = 0030;
},
{
color = 5;
glyphname = one;
layers = (
{
hints = (
{
horizontal = 1;
origin = "{0, 4}";
type = Tag;
}
);
layerId = "FF2DC345-5101-49B6-97F3-57A040F7C387";
paths = (
{
closed = 1;
nodes = (
"329 0 LINE SMOOTH",
"342 0 OFFCURVE",
"352 10 OFFCURVE",
"352 23 CURVE SMOOTH",
"352 677 LINE SMOOTH",
"352 690 OFFCURVE",
"342 700 OFFCURVE",
"329 700 CURVE SMOOTH",
"278 700 LINE SMOOTH",
"269 700 OFFCURVE",
"261 699 OFFCURVE",
"252 693 CURVE",
"34 525 LINE SMOOTH",
"23 517 OFFCURVE",
"21 503 OFFCURVE",
"29 492 CURVE SMOOTH",
"55 459 LINE SMOOTH",
"63 448 OFFCURVE",
"76 446 OFFCURVE",
"87 455 CURVE SMOOTH",
"253 583 LINE",
"253 23 LINE SMOOTH",
"253 10 OFFCURVE",
"263 0 OFFCURVE",
"276 0 CURVE SMOOTH"
);
}
);
width = 427.8125;
}
);
unicode = 0031;
},
{
color = 5;
glyphname = two;
layers = (
{
hints = (
{
horizontal = 1;
origin = "{0, 21}";
type = Tag;
}
);
layerId = "FF2DC345-5101-49B6-97F3-57A040F7C387";
paths = (
{
closed = 1;
nodes = (
"513 0 LINE SMOOTH",
"527 0 OFFCURVE",
"537 10 OFFCURVE",
"537 23 CURVE SMOOTH",
"537 64 LINE SMOOTH",
"537 78 OFFCURVE",
"527 87 OFFCURVE",
"513 87 CURVE SMOOTH",
"201 87 LINE",
"393 282 LINE SMOOTH",
"476 354 OFFCURVE",
"522 416 OFFCURVE",
"522 504 CURVE SMOOTH",
"522 616 OFFCURVE",
"452 711 OFFCURVE",
"294 711 CURVE SMOOTH",
"138 711 OFFCURVE",
"62 597 OFFCURVE",
"59 495 CURVE SMOOTH",
"59 484 OFFCURVE",
"68 476 OFFCURVE",
"80 476 CURVE",
"132 476 LINE SMOOTH",
"142 476 OFFCURVE",
"155 482 OFFCURVE",
"158 499 CURVE SMOOTH",
"168 571 OFFCURVE",
"213 625 OFFCURVE",
"294 625 CURVE SMOOTH",
"378 625 OFFCURVE",
"421 577 OFFCURVE",
"421 501 CURVE SMOOTH",
"421 440 OFFCURVE",
"386 395 OFFCURVE",
"286 311 CURVE SMOOTH",
"74 99 LINE SMOOTH",
"54 82 OFFCURVE",
"49 67 OFFCURVE",
"49 55 CURVE SMOOTH",
"49 23 LINE SMOOTH",
"49 10 OFFCURVE",
"58 0 OFFCURVE",
"72 0 CURVE SMOOTH"
);
}
);
width = 587;
}
);
unicode = 0032;
userData = {
com.typemytype.robofont.guides = (
{
angle = 90;
isGlobal = 0;
magnetic = 5;
x = 535;
y = 0;
},
{
angle = 90;
isGlobal = 0;
magnetic = 5;
x = 70;
y = 0;
},
{
angle = 90;
isGlobal = 0;
magnetic = 5;
x = 510;
y = 0;
}
);
};
},
{
color = 5;
glyphname = three;
layers = (
{
hints = (
{
horizontal = 1;
origin = "{0, 15}";
type = Tag;
}
);
layerId = "FF2DC345-5101-49B6-97F3-57A040F7C387";
paths = (
{
closed = 1;
nodes = (
"444 -10 OFFCURVE",
"553 69 OFFCURVE",
"553 202 CURVE SMOOTH",
"553 334 OFFCURVE",
"463 397 OFFCURVE",
"333 401 CURVE SMOOTH",
"317 402 LINE",
"510 617 LINE SMOOTH",
"516 623 OFFCURVE",
"521 630 OFFCURVE",
"521 640 CURVE SMOOTH",
"521 676 LINE SMOOTH",
"521 690 OFFCURVE",
"511 700 OFFCURVE",
"497 700 CURVE SMOOTH",
"98 700 LINE SMOOTH",
"85 700 OFFCURVE",
"75 690 OFFCURVE",
"75 676 CURVE SMOOTH",
"75 638 LINE SMOOTH",
"75 624 OFFCURVE",
"85 615 OFFCURVE",
"98 615 CURVE SMOOTH",
"393 615 LINE",
"199 403 LINE",
"193 396 OFFCURVE",
"188 388 OFFCURVE",
"188 376 CURVE SMOOTH",
"188 349 LINE SMOOTH",
"188 335 OFFCURVE",
"198 326 OFFCURVE",
"211 326 CURVE SMOOTH",
"306 326 LINE SMOOTH",
"398 326 OFFCURVE",
"453 291 OFFCURVE",
"453 205 CURVE SMOOTH",
"453 119 OFFCURVE",
"390 75 OFFCURVE",
"298 75 CURVE SMOOTH",
"232 75 OFFCURVE",
"160 93 OFFCURVE",
"141 166 CURVE SMOOTH",
"135 184 OFFCURVE",
"125 188 OFFCURVE",
"113 188 CURVE SMOOTH",
"64 188 LINE SMOOTH",
"52 188 OFFCURVE",
"43 180 OFFCURVE",
"43 168 CURVE SMOOTH",
"46 82 OFFCURVE",
"131 -10 OFFCURVE",
"298 -10 CURVE SMOOTH"
);
}
);
width = 600.9375;
}
);
unicode = 0033;
},
{
color = 5;
glyphname = four;
layers = (
{
hints = (
{
horizontal = 1;
origin = "{0, 26}";
type = Tag;
}
);
layerId = "FF2DC345-5101-49B6-97F3-57A040F7C387";
paths = (
{
closed = 1;
nodes = (
"451 0 LINE SMOOTH",
"465 0 OFFCURVE",
"474 10 OFFCURVE",
"474 23 CURVE SMOOTH",
"474 167 LINE",
"565 167 LINE SMOOTH",
"578 167 OFFCURVE",
"588 177 OFFCURVE",
"588 190 CURVE SMOOTH",
"588 231 LINE SMOOTH",
"588 244 OFFCURVE",
"578 254 OFFCURVE",
"564 254 CURVE SMOOTH",
"474 254 LINE",
"474 677 LINE SMOOTH",
"474 690 OFFCURVE",
"465 700 OFFCURVE",
"451 700 CURVE SMOOTH",
"379 700 LINE SMOOTH",
"363 700 OFFCURVE",
"349 693 OFFCURVE",
"342 683 CURVE SMOOTH",
"42 260 LINE SMOOTH",
"33 248 OFFCURVE",
"31 235 OFFCURVE",
"31 230 CURVE SMOOTH",
"31 190 LINE",
"31 177 OFFCURVE",
"40 167 OFFCURVE",
"54 167 CURVE SMOOTH",
"378 167 LINE",
"378 23 LINE SMOOTH",
"378 10 OFFCURVE",
"388 0 OFFCURVE",
"401 0 CURVE SMOOTH"
);
},
{
closed = 1;
nodes = (
"379 595 LINE",
"379 252 LINE",
"138 252 LINE"
);
}
);
width = 621.25;
}
);
unicode = 0034;
},
{
color = 5;
glyphname = five;
layers = (
{
hints = (
{
horizontal = 1;
origin = "{0, 29}";
type = Tag;
}
);
layerId = "FF2DC345-5101-49B6-97F3-57A040F7C387";
paths = (
{
closed = 1;
nodes = (
"440 -10 OFFCURVE",
"548 75 OFFCURVE",
"548 227 CURVE SMOOTH",
"548 370 OFFCURVE",
"437 452 OFFCURVE",
"306 452 CURVE SMOOTH",
"233 452 OFFCURVE",
"195 430 OFFCURVE",
"176 418 CURVE",
"195 615 LINE",
"483 615 LINE SMOOTH",
"496 615 OFFCURVE",
"506 624 OFFCURVE",
"506 638 CURVE SMOOTH",
"506 677 LINE SMOOTH",
"506 690 OFFCURVE",
"496 700 OFFCURVE",
"483 700 CURVE SMOOTH",
"134 700 LINE SMOOTH",
"120 700 OFFCURVE",
"110 691 OFFCURVE",
"109 675 CURVE SMOOTH",
"77 341 LINE",
"76 329 OFFCURVE",
"87 319 OFFCURVE",
"99 319 CURVE SMOOTH",
"151 319 LINE SMOOTH",
"188 319 OFFCURVE",
"203 373 OFFCURVE",
"292 373 CURVE SMOOTH",
"379 373 OFFCURVE",
"448 317 OFFCURVE",
"448 228 CURVE SMOOTH",
"448 128 OFFCURVE",
"378 75 OFFCURVE",
"292 75 CURVE SMOOTH",
"228 75 OFFCURVE",
"166 105 OFFCURVE",
"146 180 CURVE SMOOTH",
"141 197 OFFCURVE",
"132 202 OFFCURVE",
"119 202 CURVE SMOOTH",
"65 202 LINE SMOOTH",
"53 202 OFFCURVE",
"44 194 OFFCURVE",
"45 182 CURVE SMOOTH",
"49 85 OFFCURVE",
"134 -10 OFFCURVE",
"292 -10 CURVE SMOOTH"
);
}
);
width = 594.125;
}
);
unicode = 0035;
},
{
color = 5;
glyphname = six;
layers = (
{
hints = (
{
horizontal = 1;
origin = "{0, 23}";
type = Tag;
}
);
layerId = "FF2DC345-5101-49B6-97F3-57A040F7C387";
paths = (
{
closed = 1;
nodes = (
"473 -10 OFFCURVE",
"565 105 OFFCURVE",
"565 231 CURVE SMOOTH",
"565 359 OFFCURVE",
"469 466 OFFCURVE",
"321 468 CURVE SMOOTH",
"302 468 OFFCURVE",
"280 466 OFFCURVE",
"264 461 CURVE",
"410 665 LINE SMOOTH",
"412 668 OFFCURVE",
"414 672 OFFCURVE",
"414 678 CURVE SMOOTH",
"414 690 OFFCURVE",
"406 700 OFFCURVE",
"394 700 CURVE SMOOTH",
"341 700 LINE SMOOTH",
"322 700 OFFCURVE",
"314 687 OFFCURVE",
"308 680 CURVE",
"118 415 LINE SMOOTH",
"94 382 OFFCURVE",
"48 310 OFFCURVE",
"48 230 CURVE SMOOTH",
"48 101 OFFCURVE",
"143 -10 OFFCURVE",
"308 -10 CURVE SMOOTH"
);
},
{
closed = 1;
nodes = (
"224 75 OFFCURVE",
"148 129 OFFCURVE",
"148 231 CURVE SMOOTH",
"148 331 OFFCURVE",
"224 385 OFFCURVE",
"307 385 CURVE SMOOTH",
"391 385 OFFCURVE",
"466 331 OFFCURVE",
"466 231 CURVE SMOOTH",
"466 129 OFFCURVE",
"391 75 OFFCURVE",
"307 75 CURVE SMOOTH"
);
}
);
width = 602.625;
}
);
unicode = 0036;
},
{
color = 5;
glyphname = seven;
layers = (
{
hints = (
{
horizontal = 1;
origin = "{0, 12}";
type = Tag;
}
);
layerId = "FF2DC345-5101-49B6-97F3-57A040F7C387";
paths = (
{
closed = 1;
nodes = (
"203 0 LINE SMOOTH",
"220 0 OFFCURVE",
"227 14 OFFCURVE",
"232 25 CURVE SMOOTH",
"478 600 LINE SMOOTH",
"483 613 OFFCURVE",
"486 622 OFFCURVE",
"486 639 CURVE SMOOTH",
"486 676 LINE SMOOTH",
"486 690 OFFCURVE",
"477 700 OFFCURVE",
"462 700 CURVE SMOOTH",
"52 700 LINE",
"38 700 OFFCURVE",
"29 690 OFFCURVE",
"29 676 CURVE SMOOTH",
"29 636 LINE SMOOTH",
"29 622 OFFCURVE",
"38 613 OFFCURVE",
"52 613 CURVE SMOOTH",
"380 613 LINE",
"131 31 LINE SMOOTH",
"130 28 OFFCURVE",
"129 24 OFFCURVE",
"129 22 CURVE SMOOTH",
"129 10 OFFCURVE",
"137 0 OFFCURVE",
"149 0 CURVE SMOOTH"
);
}
);
width = 512.875;
}
);
unicode = 0037;
},
{
color = 5;
glyphname = eight;
layers = (
{
hints = (
{
horizontal = 1;
origin = "{0, 8}";
type = Tag;
},
{
horizontal = 1;
origin = "{2, 2}";
type = Tag;
}
);
layerId = "FF2DC345-5101-49B6-97F3-57A040F7C387";
paths = (
{
closed = 1;
nodes = (
"473 -10 OFFCURVE",
"580 71 OFFCURVE",
"580 201 CURVE SMOOTH",
"580 282 OFFCURVE",
"537 342 OFFCURVE",
"472 373 CURVE",
"522 404 OFFCURVE",
"554 454 OFFCURVE",
"554 522 CURVE SMOOTH",
"554 640 OFFCURVE",
"459 710 OFFCURVE",
"318 710 CURVE SMOOTH",
"176 710 OFFCURVE",
"81 639 OFFCURVE",
"81 521 CURVE SMOOTH",
"81 453 OFFCURVE",
"112 403 OFFCURVE",
"164 373 CURVE",
"99 342 OFFCURVE",
"56 282 OFFCURVE",
"56 201 CURVE SMOOTH",
"56 71 OFFCURVE",
"162 -10 OFFCURVE",
"318 -10 CURVE SMOOTH"
);
},
{
closed = 1;
nodes = (
"226 70 OFFCURVE",
"153 120 OFFCURVE",
"153 201 CURVE SMOOTH",
"153 282 OFFCURVE",
"226 330 OFFCURVE",
"318 330 CURVE SMOOTH",
"409 330 OFFCURVE",
"482 282 OFFCURVE",
"482 201 CURVE SMOOTH",
"482 120 OFFCURVE",
"409 70 OFFCURVE",
"318 70 CURVE SMOOTH"
);
},
{
closed = 1;
nodes = (
"238 409 OFFCURVE",
"175 450 OFFCURVE",
"175 519 CURVE SMOOTH",
"175 588 OFFCURVE",
"238 630 OFFCURVE",
"318 630 CURVE SMOOTH",
"397 630 OFFCURVE",
"460 588 OFFCURVE",
"460 519 CURVE SMOOTH",
"460 451 OFFCURVE",
"395 410 OFFCURVE",
"318 409 CURVE"
);
}
);
width = 635.625;
}
);
unicode = 0038;
},
{
color = 5;
glyphname = nine;
layers = (
{
hints = (
{
horizontal = 1;
origin = "{0, 7}";
type = Tag;
}
);
layerId = "FF2DC345-5101-49B6-97F3-57A040F7C387";
paths = (
{
closed = 1;
nodes = (
"247 0 LINE SMOOTH",
"266 0 OFFCURVE",
"274 13 OFFCURVE",
"279 20 CURVE",
"472 289 LINE SMOOTH",
"502 333 OFFCURVE",
"544 393 OFFCURVE",
"544 475 CURVE SMOOTH",
"544 593 OFFCURVE",
"459 710 OFFCURVE",
"290 710 CURVE SMOOTH",
"121 710 OFFCURVE",
"38 589 OFFCURVE",
"38 473 CURVE SMOOTH",
"38 354 OFFCURVE",
"128 244 OFFCURVE",
"276 242 CURVE SMOOTH",
"294 242 OFFCURVE",
"314 244 OFFCURVE",
"330 248 CURVE",
"177 35 LINE SMOOTH",
"175 32 OFFCURVE",
"173 28 OFFCURVE",
"173 22 CURVE SMOOTH",
"173 10 OFFCURVE",
"181 0 OFFCURVE",
"193 0 CURVE SMOOTH"
);
},
{
closed = 1;
nodes = (
"207 323 OFFCURVE",
"137 381 OFFCURVE",
"137 474 CURVE SMOOTH",
"137 567 OFFCURVE",
"207 625 OFFCURVE",
"290 625 CURVE SMOOTH",
"374 625 OFFCURVE",
"445 567 OFFCURVE",
"445 474 CURVE SMOOTH",
"445 381 OFFCURVE",
"374 323 OFFCURVE",
"290 323 CURVE SMOOTH"
);
}
);
width = 592.8125;
}
);
unicode = 0039;
},
{
color = 6;
glyphname = zero.tf;
layers = (
{
hints = (
{
horizontal = 1;
origin = "{0, 11}";
type = Tag;
}
);
layerId = "FF2DC345-5101-49B6-97F3-57A040F7C387";
paths = (
{
closed = 1;
nodes = (
"494 -10 OFFCURVE",
"558 115 OFFCURVE",
"563 262 CURVE SMOOTH",
"565 316 OFFCURVE",
"565 382 OFFCURVE",
"563 439 CURVE SMOOTH",
"559 585 OFFCURVE",
"492 710 OFFCURVE",
"309 710 CURVE SMOOTH",
"126 710 OFFCURVE",
"60 585 OFFCURVE",
"55 439 CURVE SMOOTH",
"54 382 OFFCURVE",
"54 316 OFFCURVE",
"55 262 CURVE SMOOTH",
"61 115 OFFCURVE",
"124 -10 OFFCURVE",
"309 -10 CURVE SMOOTH"
);
},
{
closed = 1;
nodes = (
"206 76 OFFCURVE",
"158 149 OFFCURVE",
"155 267 CURVE SMOOTH",
"154 324 OFFCURVE",
"154 378 OFFCURVE",
"155 433 CURVE SMOOTH",
"158 549 OFFCURVE",
"206 625 OFFCURVE",
"309 625 CURVE SMOOTH",
"413 625 OFFCURVE",
"460 549 OFFCURVE",
"463 433 CURVE SMOOTH",
"465 378 OFFCURVE",
"465 324 OFFCURVE",
"463 267 CURVE SMOOTH",
"460 149 OFFCURVE",
"412 76 OFFCURVE",
"309 76 CURVE SMOOTH"
);
}
);
width = 618.75;
}
);
},
{
color = 6;
glyphname = one.tf;
layers = (
{
hints = (
{
horizontal = 1;
origin = "{0, 0}";
type = Tag;
}
);
layerId = "FF2DC345-5101-49B6-97F3-57A040F7C387";
paths = (
{
closed = 1;
nodes = (
"535 0 LINE",
"549 0 OFFCURVE",
"559 10 OFFCURVE",
"559 23 CURVE",
"559 64 LINE",
"559 78 OFFCURVE",
"549 87 OFFCURVE",
"535 87 CURVE",
"381 87 LINE",
"381 677 LINE",
"381 690 OFFCURVE",
"371 700 OFFCURVE",
"358 700 CURVE",
"307 700 LINE",
"298 700 OFFCURVE",
"290 699 OFFCURVE",
"282 693 CURVE",
"96 550 LINE",
"84 542 OFFCURVE",
"83 528 OFFCURVE",
"91 517 CURVE",
"116 485 LINE",
"125 473 OFFCURVE",
"137 471 OFFCURVE",
"149 480 CURVE",
"283 583 LINE",
"283 87 LINE",
"113 87 LINE",
"99 87 OFFCURVE",
"89 78 OFFCURVE",
"89 64 CURVE",
"89 23 LINE",
"89 10 OFFCURVE",
"99 0 OFFCURVE",
"113 0 CURVE"
);
}
);
width = 618.75;
}
);
userData = {
com.typemytype.robofont.guides = (
{
angle = 90;
isGlobal = 0;
magnetic = 5;
x = 80;
y = 0;
}
);
};
},
{
color = 6;
glyphname = two.tf;
layers = (
{
hints = (
{
horizontal = 1;
origin = "{0, 21}";
type = Tag;
}
);
layerId = "FF2DC345-5101-49B6-97F3-57A040F7C387";
paths = (
{
closed = 1;
nodes = (
"529 0 LINE SMOOTH",
"543 0 OFFCURVE",
"553 10 OFFCURVE",
"553 23 CURVE SMOOTH",
"553 64 LINE SMOOTH",
"553 78 OFFCURVE",
"543 87 OFFCURVE",
"529 87 CURVE SMOOTH",
"217 87 LINE",
"409 282 LINE SMOOTH",
"492 354 OFFCURVE",
"538 416 OFFCURVE",
"538 504 CURVE SMOOTH",
"538 616 OFFCURVE",
"468 711 OFFCURVE",
"310 711 CURVE SMOOTH",
"154 711 OFFCURVE",
"78 597 OFFCURVE",
"75 495 CURVE SMOOTH",
"75 484 OFFCURVE",
"83 476 OFFCURVE",
"96 476 CURVE",
"148 476 LINE SMOOTH",
"158 476 OFFCURVE",
"171 482 OFFCURVE",
"174 499 CURVE SMOOTH",
"184 571 OFFCURVE",
"229 625 OFFCURVE",
"310 625 CURVE SMOOTH",
"394 625 OFFCURVE",
"437 577 OFFCURVE",
"437 501 CURVE SMOOTH",
"437 440 OFFCURVE",
"402 395 OFFCURVE",
"302 311 CURVE SMOOTH",
"90 99 LINE SMOOTH",
"70 82 OFFCURVE",
"65 67 OFFCURVE",
"65 55 CURVE SMOOTH",
"65 23 LINE SMOOTH",
"65 10 OFFCURVE",
"74 0 OFFCURVE",
"88 0 CURVE SMOOTH"
);
}
);
width = 618.75;
}
);
userData = {
com.typemytype.robofont.guides = (
{
angle = 90;
isGlobal = 0;
magnetic = 5;
x = 538;
y = 0;
},
{
angle = 90;
isGlobal = 0;
magnetic = 5;
x = 73;
y = 0;
},
{
angle = 90;
isGlobal = 0;
magnetic = 5;
x = 513;
y = 0;
}
);
};
},
{
color = 6;
glyphname = three.tf;
layers = (
{
hints = (
{
horizontal = 1;
origin = "{0, 15}";
type = Tag;
}
);
layerId = "FF2DC345-5101-49B6-97F3-57A040F7C387";
paths = (
{
closed = 1;
nodes = (
"453 -10 OFFCURVE",
"562 69 OFFCURVE",
"562 202 CURVE SMOOTH",
"562 334 OFFCURVE",
"472 397 OFFCURVE",
"342 402 CURVE SMOOTH",
"326 402 LINE",
"519 617 LINE SMOOTH",
"525 623 OFFCURVE",
"530 630 OFFCURVE",
"530 640 CURVE SMOOTH",
"530 676 LINE SMOOTH",
"530 690 OFFCURVE",
"520 700 OFFCURVE",
"506 700 CURVE SMOOTH",
"107 700 LINE SMOOTH",
"94 700 OFFCURVE",
"84 690 OFFCURVE",
"84 676 CURVE SMOOTH",
"84 638 LINE SMOOTH",
"84 624 OFFCURVE",
"94 615 OFFCURVE",
"107 615 CURVE SMOOTH",
"402 615 LINE",
"208 403 LINE",
"202 396 OFFCURVE",
"197 388 OFFCURVE",
"197 376 CURVE SMOOTH",
"197 349 LINE SMOOTH",
"197 335 OFFCURVE",
"207 326 OFFCURVE",
"220 326 CURVE SMOOTH",
"315 326 LINE SMOOTH",
"407 326 OFFCURVE",
"462 291 OFFCURVE",
"462 205 CURVE SMOOTH",
"462 119 OFFCURVE",
"399 75 OFFCURVE",
"307 75 CURVE SMOOTH",
"241 75 OFFCURVE",
"169 93 OFFCURVE",
"150 166 CURVE SMOOTH",
"144 184 OFFCURVE",
"134 188 OFFCURVE",
"122 188 CURVE SMOOTH",
"73 188 LINE SMOOTH",
"61 188 OFFCURVE",
"52 180 OFFCURVE",
"52 168 CURVE SMOOTH",
"55 82 OFFCURVE",
"140 -10 OFFCURVE",
"307 -10 CURVE SMOOTH"
);
}
);
width = 618.75;
}
);
},
{
color = 6;
glyphname = four.tf;
layers = (
{
hints = (
{
horizontal = 1;
origin = "{0, 26}";
type = Tag;
}
);
layerId = "FF2DC345-5101-49B6-97F3-57A040F7C387";
paths = (
{
closed = 1;
nodes = (
"451 0 LINE SMOOTH",
"464 0 OFFCURVE",
"473 10 OFFCURVE",
"473 23 CURVE SMOOTH",
"473 167 LINE",
"564 167 LINE SMOOTH",
"577 167 OFFCURVE",
"587 177 OFFCURVE",
"587 190 CURVE SMOOTH",
"587 231 LINE SMOOTH",
"587 244 OFFCURVE",
"577 254 OFFCURVE",
"564 254 CURVE SMOOTH",
"473 254 LINE",
"473 677 LINE SMOOTH",
"473 690 OFFCURVE",
"464 700 OFFCURVE",
"451 700 CURVE SMOOTH",
"378 700 LINE SMOOTH",
"362 700 OFFCURVE",
"348 693 OFFCURVE",
"341 683 CURVE SMOOTH",
"41 260 LINE SMOOTH",
"32 248 OFFCURVE",
"30 235 OFFCURVE",
"30 230 CURVE SMOOTH",
"30 190 LINE",
"30 177 OFFCURVE",
"40 167 OFFCURVE",
"53 167 CURVE SMOOTH",
"377 167 LINE",
"377 23 LINE SMOOTH",
"377 10 OFFCURVE",
"387 0 OFFCURVE",
"400 0 CURVE SMOOTH"
);
},
{
closed = 1;
nodes = (
"379 595 LINE",
"379 252 LINE",
"137 252 LINE"
);
}
);
width = 618.75;
}
);
},
{
color = 6;
glyphname = five.tf;
layers = (
{
layerId = "FF2DC345-5101-49B6-97F3-57A040F7C387";
paths = (
{
closed = 1;
nodes = (
"452 -10 OFFCURVE",
"560 75 OFFCURVE",
"560 227 CURVE SMOOTH",
"560 370 OFFCURVE",
"450 452 OFFCURVE",
"319 452 CURVE SMOOTH",
"245 452 OFFCURVE",
"207 430 OFFCURVE",
"189 418 CURVE",
"207 615 LINE",
"495 615 LINE SMOOTH",
"509 615 OFFCURVE",
"518 624 OFFCURVE",
"518 638 CURVE SMOOTH",
"518 677 LINE SMOOTH",
"518 690 OFFCURVE",
"509 700 OFFCURVE",
"495 700 CURVE SMOOTH",
"146 700 LINE SMOOTH",
"132 700 OFFCURVE",
"123 691 OFFCURVE",
"121 675 CURVE SMOOTH",
"89 342 LINE SMOOTH",
"88 330 OFFCURVE",
"99 319 OFFCURVE",
"111 319 CURVE SMOOTH",
"163 319 LINE SMOOTH",
"201 319 OFFCURVE",
"215 373 OFFCURVE",
"305 373 CURVE SMOOTH",
"391 373 OFFCURVE",
"461 317 OFFCURVE",
"461 228 CURVE SMOOTH",
"461 128 OFFCURVE",
"390 75 OFFCURVE",
"305 75 CURVE SMOOTH",
"240 75 OFFCURVE",
"178 105 OFFCURVE",
"158 180 CURVE SMOOTH",
"153 197 OFFCURVE",
"144 202 OFFCURVE",
"131 202 CURVE SMOOTH",
"78 202 LINE SMOOTH",
"66 202 OFFCURVE",
"56 194 OFFCURVE",
"57 182 CURVE SMOOTH",
"61 85 OFFCURVE",
"146 -10 OFFCURVE",
"304 -10 CURVE SMOOTH"
);
}
);
width = 618.75;
}
);
},
{
color = 6;
glyphname = six.tf;
layers = (
{
hints = (
{
horizontal = 1;
origin = "{0, 23}";
type = Tag;
}
);
layerId = "FF2DC345-5101-49B6-97F3-57A040F7C387";
paths = (
{
closed = 1;
nodes = (
"481 -10 OFFCURVE",
"573 105 OFFCURVE",
"573 231 CURVE SMOOTH",
"573 360 OFFCURVE",
"476 467 OFFCURVE",
"327 468 CURVE SMOOTH",
"310 469 OFFCURVE",
"289 467 OFFCURVE",
"274 463 CURVE",
"418 665 LINE SMOOTH",
"420 668 OFFCURVE",
"423 672 OFFCURVE",
"423 678 CURVE SMOOTH",
"423 690 OFFCURVE",
"414 700 OFFCURVE",
"402 700 CURVE SMOOTH",
"349 700 LINE SMOOTH",
"330 700 OFFCURVE",
"322 687 OFFCURVE",
"317 680 CURVE",
"126 415 LINE SMOOTH",
"102 382 OFFCURVE",
"57 310 OFFCURVE",
"57 230 CURVE SMOOTH",
"57 101 OFFCURVE",
"151 -10 OFFCURVE",
"316 -10 CURVE SMOOTH"
);
},
{
closed = 1;
nodes = (
"232 75 OFFCURVE",
"156 129 OFFCURVE",
"156 231 CURVE SMOOTH",
"156 331 OFFCURVE",
"232 385 OFFCURVE",
"315 385 CURVE SMOOTH",
"399 385 OFFCURVE",
"474 331 OFFCURVE",
"474 231 CURVE SMOOTH",
"474 129 OFFCURVE",
"399 75 OFFCURVE",
"315 75 CURVE SMOOTH"
);
}
);
width = 618.75;
}
);
},
{
color = 6;
glyphname = seven.tf;
layers = (
{
hints = (
{
horizontal = 1;
origin = "{0, 12}";
type = Tag;
}
);
layerId = "FF2DC345-5101-49B6-97F3-57A040F7C387";
paths = (
{
closed = 1;
nodes = (
"255 0 LINE SMOOTH",
"272 0 OFFCURVE",
"279 14 OFFCURVE",
"284 25 CURVE SMOOTH",
"530 600 LINE SMOOTH",
"536 613 OFFCURVE",
"539 622 OFFCURVE",
"539 639 CURVE SMOOTH",
"539 676 LINE SMOOTH",
"539 690 OFFCURVE",
"529 700 OFFCURVE",
"515 700 CURVE SMOOTH",
"104 700 LINE",
"91 700 OFFCURVE",
"81 690 OFFCURVE",
"81 676 CURVE SMOOTH",
"81 636 LINE SMOOTH",
"81 622 OFFCURVE",
"91 613 OFFCURVE",
"104 613 CURVE SMOOTH",
"433 613 LINE",
"184 31 LINE SMOOTH",
"183 28 OFFCURVE",
"182 24 OFFCURVE",
"182 22 CURVE SMOOTH",
"182 10 OFFCURVE",
"190 0 OFFCURVE",
"202 0 CURVE SMOOTH"
);
}
);
width = 618.75;
}
);
},
{
color = 6;
glyphname = eight.tf;
layers = (
{
hints = (
{
horizontal = 1;
origin = "{0, 8}";
type = Tag;
},
{
horizontal = 1;
origin = "{2, 2}";
type = Tag;
}
);
layerId = "FF2DC345-5101-49B6-97F3-57A040F7C387";
paths = (
{
closed = 1;
nodes = (
"464 -10 OFFCURVE",
"572 71 OFFCURVE",
"572 201 CURVE SMOOTH",
"572 282 OFFCURVE",
"529 342 OFFCURVE",
"463 373 CURVE",
"514 404 OFFCURVE",
"546 454 OFFCURVE",
"546 522 CURVE SMOOTH",
"546 640 OFFCURVE",
"451 710 OFFCURVE",
"309 710 CURVE SMOOTH",
"167 710 OFFCURVE",
"72 639 OFFCURVE",
"72 521 CURVE SMOOTH",
"72 453 OFFCURVE",
"104 403 OFFCURVE",
"155 373 CURVE",
"91 342 OFFCURVE",
"47 282 OFFCURVE",
"47 201 CURVE SMOOTH",
"47 71 OFFCURVE",
"154 -10 OFFCURVE",
"309 -10 CURVE SMOOTH"
);
},
{
closed = 1;
nodes = (
"218 70 OFFCURVE",
"145 120 OFFCURVE",
"145 201 CURVE SMOOTH",
"145 282 OFFCURVE",
"218 330 OFFCURVE",
"309 330 CURVE SMOOTH",
"400 330 OFFCURVE",
"473 282 OFFCURVE",
"473 201 CURVE SMOOTH",
"473 120 OFFCURVE",
"400 70 OFFCURVE",
"309 70 CURVE SMOOTH"
);
},
{
closed = 1;
nodes = (
"229 409 OFFCURVE",
"167 450 OFFCURVE",
"167 519 CURVE SMOOTH",
"167 588 OFFCURVE",
"229 630 OFFCURVE",
"309 630 CURVE SMOOTH",
"389 630 OFFCURVE",
"452 588 OFFCURVE",
"452 519 CURVE SMOOTH",
"452 451 OFFCURVE",
"387 410 OFFCURVE",
"309 409 CURVE"
);
}
);
width = 618.75;
}
);
},
{
color = 6;
glyphname = nine.tf;
layers = (
{
hints = (
{
horizontal = 1;
origin = "{0, 7}";
type = Tag;
}
);
layerId = "FF2DC345-5101-49B6-97F3-57A040F7C387";
paths = (
{
closed = 1;
nodes = (
"260 0 LINE SMOOTH",
"279 0 OFFCURVE",
"287 13 OFFCURVE",
"292 20 CURVE",
"485 289 LINE SMOOTH",
"515 333 OFFCURVE",
"557 393 OFFCURVE",
"557 475 CURVE SMOOTH",
"557 593 OFFCURVE",
"472 710 OFFCURVE",
"303 710 CURVE SMOOTH",
"134 710 OFFCURVE",
"51 589 OFFCURVE",
"51 473 CURVE SMOOTH",
"51 353 OFFCURVE",
"142 243 OFFCURVE",
"291 242 CURVE SMOOTH",
"308 241 OFFCURVE",
"327 244 OFFCURVE",
"343 247 CURVE",
"190 35 LINE SMOOTH",
"188 32 OFFCURVE",
"186 28 OFFCURVE",
"186 22 CURVE SMOOTH",
"186 10 OFFCURVE",
"194 0 OFFCURVE",
"206 0 CURVE SMOOTH"
);
},
{
closed = 1;
nodes = (
"220 323 OFFCURVE",
"150 381 OFFCURVE",
"150 474 CURVE SMOOTH",
"150 567 OFFCURVE",
"220 625 OFFCURVE",
"304 625 CURVE SMOOTH",
"387 625 OFFCURVE",
"458 567 OFFCURVE",
"458 474 CURVE SMOOTH",
"458 381 OFFCURVE",
"387 323 OFFCURVE",
"304 323 CURVE SMOOTH"
);
}
);
width = 618.75;
}
);
},
{
color = 5;
glyphname = fraction;
layers = (
{
layerId = "FF2DC345-5101-49B6-97F3-57A040F7C387";
paths = (
{
closed = 1;
nodes = (
"-146 0 LINE SMOOTH",
"-128 0 OFFCURVE",
"-122 7 OFFCURVE",
"-113 19 CURVE SMOOTH",
"381 669 LINE SMOOTH",
"384 673 OFFCURVE",
"385 678 OFFCURVE",
"385 680 CURVE SMOOTH",
"385 692 OFFCURVE",
"376 700 OFFCURVE",
"364 700 CURVE SMOOTH",
"336 700 LINE SMOOTH",
"318 700 OFFCURVE",
"312 693 OFFCURVE",
"303 681 CURVE SMOOTH",
"-191 31 LINE SMOOTH",
"-194 27 OFFCURVE",
"-195 22 OFFCURVE",
"-195 20 CURVE SMOOTH",
"-195 8 OFFCURVE",
"-186 0 OFFCURVE",
"-174 0 CURVE SMOOTH"
);
}
);
width = 175.3125;
}
);
unicode = 2044;
userData = {
com.typemytype.robofont.guides = (
{
angle = 90;
isGlobal = 0;
magnetic = 5;
x = 372;
y = 0;
}
);
};
},
{
color = 5;
glyphname = zeroinferior;
layers = (
{
hints = (
{
horizontal = 1;
origin = "{0, 5}";
type = Tag;
}
);
layerId = "FF2DC345-5101-49B6-97F3-57A040F7C387";
paths = (
{
closed = 1;
nodes = (
"271 -175 OFFCURVE",
"323 -121 OFFCURVE",
"327 -41 CURVE SMOOTH",
"329 -7 OFFCURVE",
"329 13 OFFCURVE",
"327 50 CURVE SMOOTH",
"323 130 OFFCURVE",
"276 185 OFFCURVE",
"183 185 CURVE SMOOTH",
"90 185 OFFCURVE",
"43 130 OFFCURVE",
"39 50 CURVE SMOOTH",
"37 13 OFFCURVE",
"37 -7 OFFCURVE",
"39 -41 CURVE SMOOTH",
"43 -121 OFFCURVE",
"95 -175 OFFCURVE",
"183 -175 CURVE SMOOTH"
);
},
{
closed = 1;
nodes = (
"131 -109 OFFCURVE",
"114 -71 OFFCURVE",
"112 -37 CURVE SMOOTH",
"110 -2 OFFCURVE",
"110 13 OFFCURVE",
"112 46 CURVE SMOOTH",
"113 82 OFFCURVE",
"132 119 OFFCURVE",
"183 119 CURVE SMOOTH",
"234 119 OFFCURVE",
"252 82 OFFCURVE",
"254 46 CURVE SMOOTH",
"256 13 OFFCURVE",
"256 -2 OFFCURVE",
"254 -37 CURVE SMOOTH",
"252 -71 OFFCURVE",
"235 -109 OFFCURVE",
"183 -109 CURVE SMOOTH"
);
}
);
width = 365.75;
}
);
unicode = 2080;
userData = {
com.typemytype.robofont.guides = (
{
angle = 0;
isGlobal = 0;
magnetic = 5;
x = 0;
y = "-170";
},
{
angle = 0;
isGlobal = 0;
magnetic = 5;
x = 0;
y = 180;
},
{
angle = 90;
isGlobal = 0;
magnetic = 5;
x = 172;
y = 0;
},
{
angle = 90;
isGlobal = 0;
magnetic = 5;
x = "-342";
y = 0;
}
);
};
},
{
color = 5;
glyphname = oneinferior;
layers = (
{
hints = (
{
horizontal = 1;
origin = "{0, 4}";
type = Tag;
}
);
layerId = "FF2DC345-5101-49B6-97F3-57A040F7C387";
paths = (
{
closed = 1;
nodes = (
"175 -170 LINE SMOOTH",
"188 -170 OFFCURVE",
"197 -161 OFFCURVE",
"197 -148 CURVE SMOOTH",
"197 158 LINE SMOOTH",
"197 171 OFFCURVE",
"188 180 OFFCURVE",
"175 180 CURVE SMOOTH",
"147 180 LINE SMOOTH",
"137 180 OFFCURVE",
"131 178 OFFCURVE",
"124 173 CURVE SMOOTH",
"25 99 LINE SMOOTH",
"15 91 OFFCURVE",
"13 78 OFFCURVE",
"21 68 CURVE SMOOTH",
"34 51 LINE SMOOTH",
"42 40 OFFCURVE",
"55 39 OFFCURVE",
"65 46 CURVE SMOOTH",
"124 90 LINE",
"124 -148 LINE SMOOTH",
"124 -161 OFFCURVE",
"133 -170 OFFCURVE",
"146 -170 CURVE SMOOTH"
);
}
);
width = 257.5625;
}
);
unicode = 2081;
userData = {
com.typemytype.robofont.guides = (
{
angle = 0;
isGlobal = 0;
magnetic = 5;
x = 0;
y = "-170";
},
{
angle = 0;
isGlobal = 0;
magnetic = 5;
x = 0;
y = 180;
},
{
angle = 90;
isGlobal = 0;
magnetic = 5;
x = 174;
y = 0;
},
{
angle = 90;
isGlobal = 0;
magnetic = 5;
x = 9;
y = 0;
}
);
};
},
{
color = 5;
glyphname = twoinferior;
layers = (
{
hints = (
{
horizontal = 1;
origin = "{0, 30}";
type = Tag;
}
);
layerId = "FF2DC345-5101-49B6-97F3-57A040F7C387";
paths = (
{
closed = 1;
nodes = (
"290 -170 LINE SMOOTH",
"303 -170 OFFCURVE",
"312 -161 OFFCURVE",
"312 -148 CURVE SMOOTH",
"312 -127 LINE SMOOTH",
"312 -114 OFFCURVE",
"303 -105 OFFCURVE",
"290 -105 CURVE SMOOTH",
"147 -105 LINE",
"251 -33 OFFCURVE",
"297 3 OFFCURVE",
"297 74 CURVE SMOOTH",
"297 134 OFFCURVE",
"248 185 OFFCURVE",
"169 185 CURVE SMOOTH",
"99 185 OFFCURVE",
"42 136 OFFCURVE",
"39 84 CURVE SMOOTH",
"38 72 OFFCURVE",
"45 65 OFFCURVE",
"57 65 CURVE SMOOTH",
"85 65 LINE SMOOTH",
"95 65 OFFCURVE",
"101 68 OFFCURVE",
"109 83 CURVE SMOOTH",
"115 94 OFFCURVE",
"122 122 OFFCURVE",
"169 122 CURVE SMOOTH",
"200 122 OFFCURVE",
"225 103 OFFCURVE",
"225 73 CURVE SMOOTH",
"225 22 OFFCURVE",
"177 -3 OFFCURVE",
"54 -93 CURVE SMOOTH",
"35 -107 OFFCURVE",
"30 -116 OFFCURVE",
"30 -126 CURVE SMOOTH",
"30 -148 LINE SMOOTH",
"30 -161 OFFCURVE",
"39 -170 OFFCURVE",
"52 -170 CURVE SMOOTH"
);
}
);
width = 341.375;
}
);
unicode = 2082;
userData = {
com.typemytype.robofont.guides = (
{
angle = 0;
isGlobal = 0;
magnetic = 5;
x = 0;
y = 180;
},
{
angle = 0;
isGlobal = 0;
magnetic = 5;
x = 0;
y = "-170";
},
{
angle = 90;
isGlobal = 0;
magnetic = 5;
x = 308;
y = 0;
},
{
angle = 90;
isGlobal = 0;
magnetic = 5;
x = 35;
y = 0;
},
{
angle = 90;
isGlobal = 0;
magnetic = 5;
x = 165;
y = 0;
}
);
};
},
{
color = 5;
glyphname = threeinferior;
layers = (
{
hints = (
{
horizontal = 1;
origin = "{0, 10}";
type = Tag;
}
);
layerId = "FF2DC345-5101-49B6-97F3-57A040F7C387";
paths = (
{
closed = 1;
nodes = (
"255 -175 OFFCURVE",
"307 -133 OFFCURVE",
"307 -67 CURVE SMOOTH",
"307 -10 OFFCURVE",
"276 32 OFFCURVE",
"205 38 CURVE",
"277 102 LINE SMOOTH",
"290 115 OFFCURVE",
"292 124 OFFCURVE",
"292 138 CURVE SMOOTH",
"292 158 LINE SMOOTH",
"292 171 OFFCURVE",
"283 180 OFFCURVE",
"270 180 CURVE SMOOTH",
"65 180 LINE SMOOTH",
"52 180 OFFCURVE",
"43 171 OFFCURVE",
"43 158 CURVE SMOOTH",
"43 136 LINE SMOOTH",
"43 123 OFFCURVE",
"52 114 OFFCURVE",
"65 114 CURVE SMOOTH",
"198 114 LINE",
"118 41 LINE SMOOTH",
"111 34 OFFCURVE",
"106 28 OFFCURVE",
"106 19 CURVE SMOOTH",
"106 -1 LINE SMOOTH",
"106 -13 OFFCURVE",
"115 -22 OFFCURVE",
"128 -22 CURVE SMOOTH",
"169 -22 LINE SMOOTH",
"208 -22 OFFCURVE",
"234 -33 OFFCURVE",
"234 -66 CURVE SMOOTH",
"234 -94 OFFCURVE",
"204 -111 OFFCURVE",
"165 -111 CURVE SMOOTH",
"113 -111 OFFCURVE",
"108 -96 OFFCURVE",
"95 -84 CURVE SMOOTH",
"89 -78 OFFCURVE",
"80 -73 OFFCURVE",
"70 -73 CURVE SMOOTH",
"44 -73 LINE SMOOTH",
"38 -73 OFFCURVE",
"26 -79 OFFCURVE",
"27 -92 CURVE SMOOTH",
"30 -132 OFFCURVE",
"71 -175 OFFCURVE",
"166 -175 CURVE SMOOTH"
);
}
);
width = 341.4375;
}
);
unicode = 2083;
userData = {
com.typemytype.robofont.guides = (
{
angle = 0;
isGlobal = 0;
magnetic = 5;
x = 0;
y = "-73";
},
{
angle = 0;
isGlobal = 0;
magnetic = 5;
x = 0;
y = "-170";
},
{
angle = 0;
isGlobal = 0;
magnetic = 5;
x = 0;
y = 180;
},
{
angle = 90;
isGlobal = 0;
magnetic = 5;
x = 21;
y = 0;
},
{
angle = 90;
isGlobal = 0;
magnetic = 5;
x = 311;
y = 0;
}
);
};
},
{
color = 5;
glyphname = fourinferior;
layers = (
{
hints = (
{
horizontal = 1;
origin = "{0, 22}";
type = Tag;
}
);
layerId = "FF2DC345-5101-49B6-97F3-57A040F7C387";
paths = (
{
closed = 1;
nodes = (
"241 -170 LINE SMOOTH",
"254 -170 OFFCURVE",
"263 -161 OFFCURVE",
"263 -148 CURVE SMOOTH",
"263 -100 LINE",
"298 -100 LINE SMOOTH",
"311 -100 OFFCURVE",
"320 -91 OFFCURVE",
"320 -78 CURVE SMOOTH",
"320 -56 LINE SMOOTH",
"320 -43 OFFCURVE",
"311 -34 OFFCURVE",
"298 -34 CURVE SMOOTH",
"263 -34 LINE",
"263 158 LINE SMOOTH",
"263 171 OFFCURVE",
"254 180 OFFCURVE",
"241 180 CURVE SMOOTH",
"199 180 LINE SMOOTH",
"190 180 OFFCURVE",
"179 176 OFFCURVE",
"169 162 CURVE SMOOTH",
"33 -25 LINE SMOOTH",
"21 -41 OFFCURVE",
"21 -52 OFFCURVE",
"21 -55 CURVE SMOOTH",
"21 -78 LINE SMOOTH",
"21 -91 OFFCURVE",
"30 -100 OFFCURVE",
"43 -100 CURVE SMOOTH",
"191 -100 LINE",
"191 -148 LINE SMOOTH",
"191 -161 OFFCURVE",
"200 -170 OFFCURVE",
"213 -170 CURVE SMOOTH"
);
},
{
closed = 1;
nodes = (
"192 88 LINE",
"192 -35 LINE",
"106 -35 LINE"
);
}
);
width = 342.9375;
}
);
unicode = 2084;
userData = {
com.typemytype.robofont.guides = (
{
angle = 0;
isGlobal = 0;
magnetic = 5;
x = 0;
y = 180;
},
{
angle = 0;
isGlobal = 0;
magnetic = 5;
x = 0;
y = "-170";
},
{
angle = 90;
isGlobal = 0;
magnetic = 5;
x = 304;
y = 0;
},
{
angle = 90;
isGlobal = 0;
magnetic = 5;
x = 21;
y = 0;
}
);
};
},
{
color = 5;
glyphname = fiveinferior;
layers = (
{
hints = (
{
horizontal = 1;
origin = "{0, 29}";
type = Tag;
}
);
layerId = "FF2DC345-5101-49B6-97F3-57A040F7C387";
paths = (
{
closed = 1;
nodes = (
"254 -175 OFFCURVE",
"301 -114 OFFCURVE",
"301 -55 CURVE SMOOTH",
"301 15 OFFCURVE",
"254 59 OFFCURVE",
"178 59 CURVE SMOOTH",
"142 59 OFFCURVE",
"126 51 OFFCURVE",
"117 46 CURVE",
"124 114 LINE",
"262 114 LINE SMOOTH",
"275 114 OFFCURVE",
"284 123 OFFCURVE",
"284 136 CURVE SMOOTH",
"284 158 LINE SMOOTH",
"284 171 OFFCURVE",
"275 180 OFFCURVE",
"262 180 CURVE SMOOTH",
"86 180 LINE",
"72 179 OFFCURVE",
"63 167 OFFCURVE",
"61 153 CURVE SMOOTH",
"46 6 LINE SMOOTH",
"44 -8 OFFCURVE",
"54 -20 OFFCURVE",
"68 -20 CURVE SMOOTH",
"107 -20 LINE SMOOTH",
"124 -20 OFFCURVE",
"122 0 OFFCURVE",
"170 0 CURVE SMOOTH",
"206 0 OFFCURVE",
"229 -21 OFFCURVE",
"229 -54 CURVE SMOOTH",
"229 -85 OFFCURVE",
"205 -110 OFFCURVE",
"166 -110 CURVE SMOOTH",
"119 -110 OFFCURVE",
"112 -95 OFFCURVE",
"98 -80 CURVE SMOOTH",
"93 -76 OFFCURVE",
"86 -71 OFFCURVE",
"77 -71 CURVE SMOOTH",
"47 -71 LINE SMOOTH",
"41 -71 OFFCURVE",
"29 -77 OFFCURVE",
"30 -90 CURVE SMOOTH",
"33 -130 OFFCURVE",
"79 -175 OFFCURVE",
"166 -175 CURVE SMOOTH"
);
}
);
width = 332.5;
}
);
unicode = 2085;
userData = {
com.typemytype.robofont.guides = (
{
angle = 0;
isGlobal = 0;
magnetic = 5;
x = 0;
y = "-170";
},
{
angle = 0;
isGlobal = 0;
magnetic = 5;
x = 0;
y = 180;
},
{
angle = 90;
isGlobal = 0;
magnetic = 5;
x = 306;
y = 0;
},
{
angle = 90;
isGlobal = 0;
magnetic = 5;
x = 26;
y = 0;
},
{
angle = 90;
isGlobal = 0;
magnetic = 5;
x = 164;
y = 0;
}
);
};
},
{
color = 5;
glyphname = sixinferior;
layers = (
{
hints = (
{
horizontal = 1;
origin = "{0, 20}";
type = Tag;
}
);
layerId = "FF2DC345-5101-49B6-97F3-57A040F7C387";
paths = (
{
closed = 1;
nodes = (
"252 -175 OFFCURVE",
"316 -129 OFFCURVE",
"316 -51 CURVE SMOOTH",
"316 31 OFFCURVE",
"248 73 OFFCURVE",
"178 71 CURVE",
"236 140 LINE SMOOTH",
"242 147 OFFCURVE",
"247 154 OFFCURVE",
"247 160 CURVE SMOOTH",
"247 171 OFFCURVE",
"238 180 OFFCURVE",
"227 180 CURVE SMOOTH",
"197 180 LINE SMOOTH",
"186 180 OFFCURVE",
"175 173 OFFCURVE",
"168 165 CURVE SMOOTH",
"81 59 LINE SMOOTH",
"60 34 OFFCURVE",
"33 2 OFFCURVE",
"33 -51 CURVE SMOOTH",
"33 -131 OFFCURVE",
"98 -175 OFFCURVE",
"175 -175 CURVE SMOOTH"
);
},
{
closed = 1;
nodes = (
"131 -111 OFFCURVE",
"105 -86 OFFCURVE",
"105 -51 CURVE SMOOTH",
"105 -17 OFFCURVE",
"131 9 OFFCURVE",
"175 9 CURVE SMOOTH",
"219 9 OFFCURVE",
"245 -17 OFFCURVE",
"245 -51 CURVE SMOOTH",
"245 -86 OFFCURVE",
"219 -111 OFFCURVE",
"175 -111 CURVE SMOOTH"
);
}
);
width = 340.875;
}
);
unicode = 2086;
userData = {
com.typemytype.robofont.guides = (
{
angle = 0;
isGlobal = 0;
magnetic = 5;
x = 0;
y = 180;
},
{
angle = 0;
isGlobal = 0;
magnetic = 5;
x = 0;
y = "-170";
},
{
angle = 0;
isGlobal = 0;
magnetic = 5;
x = 0;
y = "-55";
},
{
angle = 90;
isGlobal = 0;
magnetic = 5;
x = 25;
y = 0;
},
{
angle = 90;
isGlobal = 0;
magnetic = 5;
x = 309;
y = 0;
}
);
};
},
{
color = 5;
glyphname = seveninferior;
layers = (
{
hints = (
{
horizontal = 1;
origin = "{0, 8}";
type = Tag;
}
);
layerId = "FF2DC345-5101-49B6-97F3-57A040F7C387";
paths = (
{
closed = 1;
nodes = (
"129 -170 LINE SMOOTH",
"143 -170 OFFCURVE",
"150 -158 OFFCURVE",
"155 -146 CURVE SMOOTH",
"263 108 LINE SMOOTH",
"267 118 OFFCURVE",
"271 127 OFFCURVE",
"271 137 CURVE SMOOTH",
"271 158 LINE SMOOTH",
"271 171 OFFCURVE",
"262 180 OFFCURVE",
"249 180 CURVE SMOOTH",
"42 180 LINE SMOOTH",
"29 180 OFFCURVE",
"20 171 OFFCURVE",
"20 158 CURVE SMOOTH",
"20 135 LINE SMOOTH",
"20 122 OFFCURVE",
"29 113 OFFCURVE",
"42 113 CURVE SMOOTH",
"188 113 LINE",
"83 -134 LINE SMOOTH",
"81 -138 OFFCURVE",
"79 -146 OFFCURVE",
"79 -149 CURVE SMOOTH",
"79 -161 OFFCURVE",
"86 -170 OFFCURVE",
"99 -170 CURVE SMOOTH"
);
}
);
width = 292.4375;
}
);
unicode = 2087;
userData = {
com.typemytype.robofont.guides = (
{
angle = 0;
isGlobal = 0;
magnetic = 5;
x = 0;
y = 180;
},
{
angle = 0;
isGlobal = 0;
magnetic = 5;
x = 0;
y = "-170";
},
{
angle = 90;
isGlobal = 0;
magnetic = 5;
x = 20;
y = 0;
},
{
angle = 90;
isGlobal = 0;
magnetic = 5;
x = 260;
y = 0;
}
);
};
},
{
color = 5;
glyphname = eightinferior;
layers = (
{
hints = (
{
horizontal = 1;
origin = "{0, 2}";
type = Tag;
}
);
layerId = "FF2DC345-5101-49B6-97F3-57A040F7C387";
paths = (
{
closed = 1;
nodes = (
"259 -175 OFFCURVE",
"312 -128 OFFCURVE",
"312 -67 CURVE SMOOTH",
"312 -32 OFFCURVE",
"298 -5 OFFCURVE",
"268 13 CURVE",
"289 26 OFFCURVE",
"303 51 OFFCURVE",
"303 83 CURVE SMOOTH",
"303 136 OFFCURVE",
"260 185 OFFCURVE",
"173 185 CURVE SMOOTH",
"86 185 OFFCURVE",
"45 136 OFFCURVE",
"45 83 CURVE SMOOTH",
"45 51 OFFCURVE",
"61 25 OFFCURVE",
"82 13 CURVE",
"51 -7 OFFCURVE",
"35 -32 OFFCURVE",
"35 -66 CURVE SMOOTH",
"35 -128 OFFCURVE",
"86 -175 OFFCURVE",
"173 -175 CURVE SMOOTH"
);
},
{
closed = 1;
nodes = (
"141 -113 OFFCURVE",
"106 -98 OFFCURVE",
"106 -66 CURVE SMOOTH",
"106 -35 OFFCURVE",
"139 -20 OFFCURVE",
"173 -20 CURVE SMOOTH",
"207 -20 OFFCURVE",
"241 -34 OFFCURVE",
"241 -66 CURVE SMOOTH",
"241 -98 OFFCURVE",
"204 -113 OFFCURVE",
"173 -113 CURVE SMOOTH"
);
},
{
closed = 1;
nodes = (
"139 40 OFFCURVE",
"114 53 OFFCURVE",
"114 82 CURVE SMOOTH",
"114 109 OFFCURVE",
"141 123 OFFCURVE",
"173 123 CURVE SMOOTH",
"206 123 OFFCURVE",
"234 109 OFFCURVE",
"234 82 CURVE SMOOTH",
"234 54 OFFCURVE",
"207 40 OFFCURVE",
"173 40 CURVE SMOOTH"
);
}
);
width = 347.6875;
}
);
unicode = 2088;
userData = {
com.typemytype.robofont.guides = (
{
angle = 0;
isGlobal = 0;
magnetic = 5;
x = 0;
y = 710;
},
{
angle = 0;
isGlobal = 0;
magnetic = 5;
x = 0;
y = 88;
},
{
angle = 0;
isGlobal = 0;
magnetic = 5;
x = 0;
y = 180;
},
{
angle = 0;
isGlobal = 0;
magnetic = 5;
x = 0;
y = "-170";
},
{
angle = 90;
isGlobal = 0;
magnetic = 5;
x = 30;
y = 0;
},
{
angle = 90;
isGlobal = 0;
magnetic = 5;
x = 308;
y = 0;
}
);
};
},
{
color = 5;
glyphname = nineinferior;
layers = (
{
hints = (
{
horizontal = 1;
origin = "{0, 7}";
type = Tag;
}
);
layerId = "FF2DC345-5101-49B6-97F3-57A040F7C387";
paths = (
{
closed = 1;
nodes = (
"144 -170 LINE SMOOTH",
"155 -170 OFFCURVE",
"166 -163 OFFCURVE",
"173 -155 CURVE SMOOTH",
"257 -51 LINE",
"272 -34 OFFCURVE",
"308 6 OFFCURVE",
"308 61 CURVE SMOOTH",
"308 137 OFFCURVE",
"243 185 OFFCURVE",
"166 185 CURVE SMOOTH",
"89 185 OFFCURVE",
"25 135 OFFCURVE",
"25 61 CURVE SMOOTH",
"25 -17 OFFCURVE",
"95 -63 OFFCURVE",
"164 -62 CURVE",
"105 -130 LINE SMOOTH",
"99 -137 OFFCURVE",
"94 -144 OFFCURVE",
"94 -150 CURVE SMOOTH",
"94 -161 OFFCURVE",
"103 -170 OFFCURVE",
"114 -170 CURVE SMOOTH"
);
},
{
closed = 1;
nodes = (
"122 1 OFFCURVE",
"96 26 OFFCURVE",
"96 61 CURVE SMOOTH",
"96 95 OFFCURVE",
"122 121 OFFCURVE",
"166 121 CURVE SMOOTH",
"210 121 OFFCURVE",
"236 95 OFFCURVE",
"236 61 CURVE SMOOTH",
"236 26 OFFCURVE",
"210 1 OFFCURVE",
"166 1 CURVE SMOOTH"
);
}
);
width = 339.25;
}
);
unicode = 2089;
userData = {
com.typemytype.robofont.guides = (
{
angle = 0;
isGlobal = 0;
magnetic = 5;
x = 0;
y = 180;
},
{
angle = 0;
isGlobal = 0;
magnetic = 5;
x = 0;
y = "-170";
},
{
angle = 90;
isGlobal = 0;
magnetic = 5;
x = 167;
y = 0;
}
);
};
},
{
color = 5;
glyphname = .notdef;
layers = (
{
hints = (
{
horizontal = 1;
origin = "{1, 1}";
type = Tag;
}
);
layerId = "FF2DC345-5101-49B6-97F3-57A040F7C387";
paths = (
{
closed = 1;
nodes = (
"593 -117 LINE SMOOTH",
"606 -117 OFFCURVE",
"615 -108 OFFCURVE",
"615 -95 CURVE SMOOTH",
"615 796 LINE SMOOTH",
"615 809 OFFCURVE",
"606 818 OFFCURVE",
"593 818 CURVE SMOOTH",
"102 818 LINE SMOOTH",
"89 818 OFFCURVE",
"80 809 OFFCURVE",
"80 796 CURVE SMOOTH",
"80 -95 LINE SMOOTH",
"80 -108 OFFCURVE",
"89 -117 OFFCURVE",
"102 -117 CURVE SMOOTH"
);
},
{
closed = 1;
nodes = (
"554 703 LINE",
"554 -59 LINE",
"181 -59 LINE"
);
},
{
closed = 1;
nodes = (
"141 760 LINE",
"518 760 LINE",
"141 -9 LINE"
);
}
);
width = 695;
}
);
},
{
color = 6;
glyphname = "geresh-hb";
layers = (
{
layerId = "FF2DC345-5101-49B6-97F3-57A040F7C387";
paths = (
{
closed = 1;
nodes = (
"106 408 LINE SMOOTH",
"123 408 OFFCURVE",
"129 418 OFFCURVE",
"135 431 CURVE",
"187 568 LINE SMOOTH",
"190 574 OFFCURVE",
"191 579 OFFCURVE",
"191 584 CURVE SMOOTH",
"191 593 OFFCURVE",
"184 601 OFFCURVE",
"175 601 CURVE SMOOTH",
"108 601 LINE SMOOTH",
"90 601 OFFCURVE",
"82 588 OFFCURVE",
"80 572 CURVE SMOOTH",
"57 429 LINE SMOOTH",
"56 417 OFFCURVE",
"62 408 OFFCURVE",
"73 408 CURVE SMOOTH"
);
}
);
width = 228.375;
}
);
unicode = 05F3;
},
